SplineFontDB: 3.0
FontName: Ionicons
FullName: Ionicons
FamilyName: Ionicons
Weight: Medium
Copyright: Created by Adam Bradley with FontForge 2.0 (http://fontforge.sf.net)
Version: 001.000
ItalicAngle: 0
UnderlinePosition: -100
UnderlineWidth: 25
Ascent: 448
Descent: 64
InvalidEm: 0
sfntRevision: 0x00010000
LayerCount: 2
Layer: 0 1 "Back" 1
Layer: 1 1 "Fore" 0
XUID: [1021 944 68294858 13516]
StyleMap: 0x0040
FSType: 0
OS2Version: 4
OS2_WeightWidthSlopeOnly: 0
OS2_UseTypoMetrics: 1
CreationTime: 1421296812
ModificationTime: 1487329095
PfmFamily: 17
TTFWeight: 500
TTFWidth: 5
LineGap: 46
VLineGap: 0
Panose: 2 0 6 3 0 0 0 0 0 0
OS2TypoAscent: 448
OS2TypoAOffset: 0
OS2TypoDescent: -64
OS2TypoDOffset: 0
OS2TypoLinegap: 46
OS2WinAscent: 448
OS2WinAOffset: 0
OS2WinDescent: 64
OS2WinDOffset: 0
HheadAscent: 448
HheadAOffset: 0
HheadDescent: -64
HheadDOffset: 0
OS2SubXSize: 332
OS2SubYSize: 358
OS2SubXOff: 0
OS2SubYOff: 71
OS2SupXSize: 332
OS2SupYSize: 358
OS2SupXOff: 0
OS2SupYOff: 245
OS2StrikeYSize: 25
OS2StrikeYPos: 132
OS2Vendor: 'PfEd'
OS2CodePages: 00000001.00000000
OS2UnicodeRanges: 00000000.10000000.00000000.00000000
DEI: 91125
TtTable: prep
MPPEM
PUSHW_1
 200
GT
IF
PUSHB_2
 1
 1
INSTCTRL
EIF
PUSHW_2
 2048
 2048
MUL
DUP
PUSHB_1
 1
SWAP
WCVTP
PUSHB_1
 3
SWAP
WCVTF
PUSHB_3
 4
 40
 9
RCVT
GT
WCVTP
PUSHB_3
 10
 2
 7
LOOPCALL
PUSHB_2
 6
 1
WCVTP
PUSHB_2
 36
 1
GETINFO
LTEQ
IF
PUSHB_1
 64
GETINFO
IF
PUSHB_2
 6
 3
WCVTP
PUSHB_2
 38
 1
GETINFO
LTEQ
IF
PUSHW_1
 1024
GETINFO
IF
PUSHB_2
 6
 1
WCVTP
EIF
EIF
EIF
EIF
PUSHW_1
 511
SCANCTRL
PUSHB_1
 4
SCANTYPE
PUSHB_2
 5
 0
WCVTP
EndTTInstrs
TtTable: fpgm
PUSHB_1
 0
FDEF
PUSHB_1
 32
ADD
FLOOR
ENDF
PUSHB_1
 1
FDEF
DUP
ABS
DUP
PUSHB_1
 192
LT
PUSHB_1
 4
MINDEX
AND
PUSHB_1
 4
RCVT
OR
IF
POP
SWAP
POP
ELSE
ROLL
IF
DUP
PUSHB_1
 80
LT
IF
POP
PUSHB_1
 64
EIF
ELSE
DUP
PUSHB_1
 56
LT
IF
POP
PUSHB_1
 56
EIF
EIF
DUP
PUSHB_1
 10
RCVT
SUB
ABS
PUSHB_1
 40
LT
IF
POP
PUSHB_1
 10
RCVT
DUP
PUSHB_1
 48
LT
IF
POP
PUSHB_1
 48
EIF
ELSE
DUP
PUSHB_1
 192
LT

StartChar: .notdef
Encoding: 65536 -1 0
Width: 187
Flags: W
LayerCount: 2
Fore
SplineSet
17 0 m 1,0,-1
 17 341 l 1,1,-1
 153 341 l 1,2,-1
 153 0 l 1,3,-1
 17 0 l 1,0,-1
34 17 m 1,4,-1
 136 17 l 1,5,-1
 136 324 l 1,6,-1
 34 324 l 1,7,-1
 34 17 l 1,4,-1
EndSplineSet
Validated: 1
EndChar

StartChar: uniE600
Encoding: 58880 58880 3
Width: 512
GlyphClass: 2
Flags: W
LayerCount: 2
Fore
SplineSet
504 179 m 1,0,-1
 435 179 l 1,1,-1
 435 -17 l 1,2,-1
 323 -17 l 1,3,-1
 323 124 l 1,4,-1
 211 124 l 1,5,-1
 211 -17 l 1,6,-1
 97 -17 l 1,7,-1
 97 179 l 1,8,-1
 23 179 l 1,9,-1
 264 420 l 1,10,-1
 504 179 l 1,0,-1
504 179 m 1024,11,-1
464 376 m 1,12,-1
 464 259 l 1,13,-1
 348 375 l 1,14,-1
 348 376 l 1,15,-1
 464 376 l 1,12,-1
464 376 m 1024,16,-1
EndSplineSet
Validated: 1
EndChar

StartChar: uniE601
Encoding: 58881 58881 4
Width: 512
GlyphClass: 2
Flags: W
LayerCount: 2
Fore
SplineSet
376 222 m 1,0,1
 369 256 369 256 344.5 281 c 128,-1,2
 320 306 320 306 286 313 c 1,3,-1
 286 422 l 1,4,5
 365 414 365 414 421.5 357.5 c 128,-1,6
 478 301 478 301 485 222 c 1,7,-1
 376 222 l 1,8,-1
 376 222 l 1,0,1
376 222 m 1024,9,-1
242 313 m 1,10,11
 208 306 208 306 183 281 c 128,-1,12
 158 256 158 256 151 222 c 1,13,-1
 42 222 l 1,14,15
 50 301 50 301 106.5 357.5 c 128,-1,16
 163 414 163 414 242 422 c 1,17,-1
 242 313 l 1,18,-1
 242 313 l 1,10,11
242 313 m 1024,19,-1
286 88 m 1,20,21
 320 95 320 95 344.5 119.5 c 128,-1,22
 369 144 369 144 376 179 c 1,23,-1
 485 179 l 1,24,25
 478 99 478 99 421.5 42.5 c 128,-1,26
 365 -14 365 -14 286 -21 c 1,27,-1
 286 88 l 1,28,-1
 286 88 l 1,20,21
286 88 m 1024,29,-1
151 179 m 1,30,31
 158 144 158 144 183 119.5 c 128,-1,32
 208 95 208 95 242 88 c 1,33,-1
 242 -21 l 1,34,35
 163 -14 163 -14 106.5 42.5 c 128,-1,36
 50 99 50 99 42 179 c 1,37,-1
 151 179 l 1,30,31
151 179 m 1024,38,-1
EndSplineSet
Validated: 5
EndChar

StartChar: uniE602
Encoding: 58882 58882 5
Width: 512
GlyphClass: 2
Flags: W
LayerCount: 2
Fore
SplineSet
401 421 m 1,0,-1
 484 337 l 1,1,-1
 127 -20 l 1,2,-1
 43 63 l 1,3,-1
 401 421 l 1,0,-1
100 44 m 1,4,-1
 107 51 l 1,5,-1
 75 83 l 1,6,-1
 68 76 l 1,7,-1
 100 44 l 1,4,-1
132 75 m 1,8,-1
 139 83 l 1,9,-1
 107 115 l 1,10,-1
 99 108 l 1,11,-1
 132 75 l 1,8,-1
164 107 m 1,12,-1
 171 114 l 1,13,-1
 138 147 l 1,14,-1
 131 140 l 1,15,-1
 164 107 l 1,12,-1
195 139 m 1,16,-1
 203 146 l 1,17,-1
 170 179 l 1,18,-1
 163 171 l 1,19,-1
 195 139 l 1,16,-1
227 171 m 1,20,-1
 234 178 l 1,21,-1
 202 210 l 1,22,-1
 195 203 l 1,23,-1
 227 171 l 1,20,-1
259 203 m 1,24,-1
 266 210 l 1,25,-1
 234 242 l 1,26,-1
 226 235 l 1,27,-1
 259 203 l 1,24,-1
291 234 m 1,28,-1
 298 241 l 1,29,-1
 265 274 l 1,30,-1
 258 267 l 1,31,-1
 291 234 l 1,28,-1
322 266 m 1,32,-1
 330 273 l 1,33,-1
 297 306 l 1,34,-1
 290 299 l 1,35,-1
 322 266 l 1,32,-1
354 298 m 1,36,-1
 361 305 l 1,37,-1
 329 338 l 1,38,-1
 322 330 l 1,39,-1
 354 298 l 1,36,-1
386 330 m 1,40,-1
 393 337 l 1,41,-1
 361 369 l 1,42,-1
 354 362 l 1,43,-1
 386 330 l 1,40,-1
385 394 m 1,44,-1
 418 361 l 1,45,-1
 425 369 l 1,46,-1
 392 401 l 1,47,-1
 385 394 l 1,44,-1
385 394 m 1024,48,-1
418 127 m 1,49,-1
 443 22 l 1,50,-1
 337 46 l 1,51,-1
 275 108 l 1,52,-1
 356 189 l 1,53,-1
 418 127 l 1,49,-1
418 127 m 1024,54,-1
126 420 m 1,55,-1
 252 293 l 1,56,-1
 171 212 l 1,57,-1
 44 339 l 1,58,-1
 126 420 l 1,55,-1
126 420 m 1024,59,-1
EndSplineSet
Validated: 1
EndChar

StartChar: uniE603
Encoding: 58883 58883 6
Width: 512
GlyphClass: 2
Flags: W
LayerCount: 2
Fore
SplineSet
266 -13 m 1,0,1
 237 -13 237 -13 202 6 c 0,2,3
 182 18 182 18 138 49 c 0,4,5
 134 52 134 52 132 53 c 0,6,7
 80 91 80 91 59 121 c 1,8,-1
 58 122 l 2,9,10
 53 129 53 129 55 143 c 2,11,-1
 55 323 l 2,12,13
 54 333 54 333 59 341 c 0,14,15
 65 350 65 350 81.5 363 c 128,-1,16
 98 376 98 376 117.5 384 c 128,-1,17
 137 392 137 392 150.5 397 c 128,-1,18
 164 402 164 402 194.5 407.5 c 128,-1,19
 225 413 225 413 260 413 c 0,20,21
 309 413 309 413 362 399 c 0,22,23
 400 389 400 389 421 378 c 0,24,25
 423 377 423 377 428 374 c 0,26,27
 460 358 460 358 467 349 c 0,28,29
 475 339 475 339 473 322 c 2,30,-1
 473 162 l 2,31,32
 473 158 473 158 473 154 c 0,33,34
 473 131 473 131 471 127 c 0,35,36
 463 112 463 112 434 90 c 0,37,38
 420 79 420 79 403 79 c 128,-1,39
 386 79 386 79 372 88 c 2,40,-1
 289 130 l 1,41,42
 280 118 280 118 259 104 c 0,43,44
 237 91 237 91 192 81 c 2,45,-1
 188 80 l 1,46,-1
 174 109 l 1,47,-1
 182 109 l 2,48,49
 195 110 195 110 215 117 c 0,50,51
 254 130 254 130 268 151 c 0,52,53
 278 166 278 166 278 200 c 2,54,-1
 278 205 l 1,55,-1
 306 205 l 1,56,-1
 305 200 l 2,57,58
 305 183 305 183 304 173 c 0,59,60
 303 165 303 165 300 155 c 1,61,62
 332 140 332 140 358 128 c 0,63,64
 365 125 365 125 375 120 c 0,65,66
 395 110 395 110 402 110 c 0,67,68
 403 110 403 110 404 110 c 0,69,70
 412 110 412 110 423 119 c 128,-1,71
 434 128 434 128 443 139 c 1,72,-1
 443 330 l 2,73,74
 443 331 443 331 443 332 c 1,75,76
 442 332 442 332 437 336 c 2,77,-1
 435 337 l 2,78,79
 424 344 424 344 408.5 351.5 c 128,-1,80
 393 359 393 359 358 369 c 128,-1,81
 323 379 323 379 286 382 c 0,82,83
 270 383 270 383 255 383 c 0,84,85
 173 383 173 383 114 349 c 0,86,87
 91 335 91 335 84 325 c 1,88,-1
 84 137 l 1,89,90
 91 127 91 127 94 124 c 0,91,92
 96 122 96 122 104 114 c 128,-1,93
 112 106 112 106 130.5 91.5 c 128,-1,94
 149 77 149 77 169 63 c 0,95,96
 204 38 204 38 227 27.5 c 128,-1,97
 250 17 250 17 267 17 c 0,98,99
 278 17 278 17 292.5 21.5 c 128,-1,100
 307 26 307 26 326 39 c 128,-1,101
 345 52 345 52 353 58.5 c 128,-1,102
 361 65 361 65 366 69 c 2,103,-1
 370 73 l 1,104,-1
 388 51 l 1,105,-1
 385 47 l 2,106,107
 382 43 382 43 369 33 c 2,108,-1
 368 32 l 1,109,110
 322 -4 322 -4 283 -11 c 0,111,112
 275 -13 275 -13 266 -13 c 1,113,-1
 266 -13 l 1,0,1
128 98 m 1,114,-1
 131 102 l 2,115,116
 141 120 141 120 149 146 c 0,117,118
 156 173 156 173 157 229 c 2,119,-1
 157 343 l 1,120,-1
 162 343 l 1,121,-1
 164 343 l 2,122,123
 216 343 216 343 278 346 c 0,124,125
 320 348 320 348 382 353 c 1,126,-1
 386 354 l 1,127,-1
 396 325 l 1,128,-1
 389 325 l 2,129,130
 343 322 343 322 304 320 c 1,131,-1
 304 292 l 1,132,-1
 393 292 l 1,133,-1
 393 265 l 1,134,-1
 304 265 l 1,135,-1
 304 240 l 1,136,-1
 376 240 l 1,137,-1
 376 138 l 1,138,-1
 347 138 l 1,139,-1
 347 213 l 1,140,-1
 234 213 l 1,141,-1
 234 138 l 1,142,-1
 205 138 l 1,143,-1
 205 240 l 1,144,-1
 276 240 l 1,145,-1
 276 265 l 1,146,-1
 191 265 l 1,147,-1
 191 292 l 1,148,-1
 276 292 l 1,149,-1
 276 319 l 1,150,151
 243 317 243 317 185 316 c 1,152,-1
 185 253 l 2,153,154
 185 175 185 175 177 140 c 0,155,156
 170 110 170 110 155 85 c 2,157,-1
 152 79 l 1,158,-1
 128 98 l 1,114,-1
128 98 m 1024,159,-1
EndSplineSet
Validated: 37
EndChar

StartChar: uniE604
Encoding: 58884 58884 7
Width: 512
GlyphClass: 2
Flags: W
LayerCount: 2
Fore
SplineSet
103 349 m 2,0,1
 103 353 103 353 105.5 355.5 c 128,-1,2
 108 358 108 358 112 358 c 2,3,-1
 411 358 l 2,4,5
 415 358 415 358 417.5 355.5 c 128,-1,6
 420 353 420 353 420 349 c 2,7,-1
 420 288 l 2,8,9
 420 284 420 284 417.5 281.5 c 128,-1,10
 415 279 415 279 411 279 c 2,11,-1
 112 279 l 2,12,13
 108 279 108 279 105.5 281.5 c 128,-1,14
 103 284 103 284 103 288 c 2,15,-1
 103 349 l 2,0,1
481 232 m 2,16,-1
 481 171 l 2,17,18
 481 167 481 167 478.5 164.5 c 128,-1,19
 476 162 476 162 472 162 c 2,20,-1
 112 162 l 2,21,22
 108 162 108 162 105.5 164.5 c 128,-1,23
 103 167 103 167 103 171 c 2,24,-1
 103 232 l 2,25,26
 103 236 103 236 105.5 238.5 c 128,-1,27
 108 241 108 241 112 241 c 2,28,-1
 472 241 l 2,29,30
 476 241 476 241 478.5 238.5 c 128,-1,31
 481 236 481 236 481 232 c 2,16,-1
349 115 m 1,32,-1
 349 115 l 1,33,-1
 349 54 l 2,34,35
 349 50 349 50 346 47 c 128,-1,36
 343 44 343 44 340 44 c 2,37,-1
 112 44 l 2,38,39
 108 44 108 44 105.5 47 c 128,-1,40
 103 50 103 50 103 54 c 2,41,-1
 103 115 l 2,42,43
 103 118 103 118 105.5 121 c 128,-1,44
 108 124 108 124 112 124 c 2,45,-1
 340 124 l 2,46,47
 343 124 343 124 346 121 c 128,-1,48
 349 118 349 118 349 115 c 1,32,-1
78 -2 m 1,49,50
 78 -8 78 -8 73.5 -12.5 c 128,-1,51
 69 -17 69 -17 62.5 -17 c 128,-1,52
 56 -17 56 -17 51.5 -12.5 c 128,-1,53
 47 -8 47 -8 47 -2 c 2,54,-1
 47 402 l 2,55,56
 47 408 47 408 51.5 412.5 c 128,-1,57
 56 417 56 417 62.5 417 c 128,-1,58
 69 417 69 417 73.5 412.5 c 128,-1,59
 78 408 78 408 78 402 c 2,60,-1
 78 -2 l 1,61,-1
 78 -2 l 1,49,50
78 -2 m 1024,62,-1
EndSplineSet
Validated: 5
EndChar

StartChar: uniE605
Encoding: 58885 58885 8
Width: 512
GlyphClass: 2
Flags: W
LayerCount: 2
Fore
SplineSet
440 394 m 2,0,-1
 468 398 l 1,1,-1
 468 367 l 2,2,3
 467 273 467 273 452.5 214 c 128,-1,4
 438 155 438 155 411 107 c 0,5,6
 382 58 382 58 345.5 24.5 c 128,-1,7
 309 -9 309 -9 269 -19 c 1,8,-1
 264 -21 l 1,9,-1
 258 -19 l 2,10,11
 218 -9 218 -9 181.5 24.5 c 128,-1,12
 145 58 145 58 117 107 c 0,13,14
 89 155 89 155 75 214 c 128,-1,15
 61 273 61 273 60 367 c 2,16,-1
 59 398 l 1,17,-1
 87 394 l 2,18,19
 127 389 127 389 168 395 c 0,20,21
 211 401 211 401 256 418 c 1,22,-1
 264 422 l 1,23,-1
 272 418 l 1,24,25
 316 401 316 401 359 395 c 0,26,27
 401 389 401 389 440 394 c 2,0,-1
252 122 m 1,28,-1
 393 274 l 1,29,-1
 369 296 l 1,30,-1
 251 170 l 1,31,-1
 179 244 l 1,32,-1
 155 222 l 1,33,-1
 252 122 l 1,28,-1
252 122 m 1024,34,-1
EndSplineSet
Validated: 33
EndChar

StartChar: uniE606
Encoding: 58886 58886 9
Width: 512
GlyphClass: 2
Flags: W
LayerCount: 2
Fore
SplineSet
264 316 m 128,-1,1
 304 316 304 316 332.5 288 c 128,-1,2
 361 260 361 260 361 220 c 128,-1,3
 361 180 361 180 332.5 151.5 c 128,-1,4
 304 123 304 123 264 123 c 128,-1,5
 224 123 224 123 195.5 151.5 c 128,-1,6
 167 180 167 180 167 220 c 128,-1,7
 167 260 167 260 195.5 288 c 128,-1,0
 224 316 224 316 264 316 c 128,-1,1
264 159 m 128,-1,9
 289 159 289 159 307 177 c 128,-1,10
 325 195 325 195 325 220 c 128,-1,11
 325 245 325 245 307 262.5 c 128,-1,12
 289 280 289 280 264 280 c 128,-1,13
 239 280 239 280 221 262.5 c 128,-1,14
 203 245 203 245 203 220 c 128,-1,15
 203 195 203 195 221 177 c 128,-1,8
 239 159 239 159 264 159 c 128,-1,9
264 159 m 1024,16,-1
426 308 m 1,17,18
 440 275 440 275 440 239 c 0,19,20
 440 191 440 191 416 150 c 0,21,22
 392 110 392 110 352 87 c 0,23,24
 340 80 340 80 326 75 c 1,25,-1
 348 20 l 1,26,-1
 352 20 l 2,27,28
 359 20 359 20 364.5 15 c 128,-1,29
 370 10 370 10 370 2.5 c 128,-1,30
 370 -5 370 -5 364.5 -10.5 c 128,-1,31
 359 -16 359 -16 352 -16 c 2,32,-1
 336 -16 l 1,33,-1
 336 -16 l 1,34,-1
 179 -16 l 2,35,36
 172 -16 172 -16 166.5 -10.5 c 128,-1,37
 161 -5 161 -5 161 2.5 c 128,-1,38
 161 10 161 10 166.5 15 c 128,-1,39
 172 20 172 20 179 20 c 2,40,-1
 183 20 l 1,41,-1
 204 74 l 1,42,43
 199 75 199 75 195 77 c 0,44,45
 164 90 164 90 139.5 114.5 c 128,-1,46
 115 139 115 139 101 171 c 0,47,48
 88 204 88 204 88 239.5 c 128,-1,49
 88 275 88 275 101 308 c 0,50,51
 115 340 115 340 139.5 364.5 c 128,-1,52
 164 389 164 389 195 402 c 0,53,54
 228 416 228 416 264 416 c 128,-1,55
 300 416 300 416 333 402 c 0,56,57
 364 389 364 389 388.5 364.5 c 128,-1,58
 413 340 413 340 426 308 c 1,59,-1
 426 308 l 1,17,18
404 240 m 1,60,61
 404 298 404 298 363 339 c 128,-1,62
 322 380 322 380 264 380 c 128,-1,63
 206 380 206 380 164.5 339 c 128,-1,64
 123 298 123 298 123 239.5 c 128,-1,65
 123 181 123 181 164.5 140 c 128,-1,66
 206 99 206 99 264 99 c 0,67,68
 302 99 302 99 334 118 c 0,69,70
 366 136 366 136 385 168 c 0,71,72
 404 201 404 201 404 240 c 1,73,-1
 404 240 l 1,60,61
309 20 m 1,74,-1
 291 65 l 1,75,76
 278 63 278 63 264 63 c 0,77,78
 252 63 252 63 239 65 c 1,79,-1
 222 20 l 1,80,-1
 309 20 l 1,74,-1
309 20 m 1024,81,-1
264.5 321 m 128,-1,83
 253 321 253 321 245 329 c 128,-1,84
 237 337 237 337 237 348.5 c 128,-1,85
 237 360 237 360 245 368.5 c 128,-1,86
 253 377 253 377 264.5 377 c 128,-1,87
 276 377 276 377 284 368.5 c 128,-1,88
 292 360 292 360 292 348.5 c 128,-1,89
 292 337 292 337 284 329 c 128,-1,82
 276 321 276 321 264.5 321 c 128,-1,83
264.5 350 m 128,-1,91
 264 350 264 350 264 349 c 128,-1,92
 264 348 264 348 264.5 348 c 128,-1,93
 265 348 265 348 265 349 c 128,-1,90
 265 350 265 350 264.5 350 c 128,-1,91
265 350 m 1024,94,-1
EndSplineSet
Validated: 1
EndChar

StartChar: uniE607
Encoding: 58887 58887 10
Width: 512
GlyphClass: 2
Flags: W
LayerCount: 2
Fore
SplineSet
286 157 m 1,0,1
 303 150 303 150 313.5 134.5 c 128,-1,2
 324 119 324 119 324 100 c 0,3,4
 324 73 324 73 305.5 54.5 c 128,-1,5
 287 36 287 36 261 36 c 128,-1,6
 235 36 235 36 216.5 54.5 c 128,-1,7
 198 73 198 73 198 100 c 0,8,9
 198 119 198 119 208.5 134.5 c 128,-1,10
 219 150 219 150 235 157 c 1,11,-1
 235 310 l 2,12,13
 235 318 235 318 242.5 324 c 128,-1,14
 250 330 250 330 260.5 330 c 128,-1,15
 271 330 271 330 278.5 324 c 128,-1,16
 286 318 286 318 286 310 c 2,17,-1
 286 157 l 1,0,1
286 157 m 1024,18,-1
346 189 m 1,19,20
 385 153 385 153 385 100 c 0,21,22
 385 48 385 48 348.5 12 c 128,-1,23
 312 -24 312 -24 261 -24 c 128,-1,24
 210 -24 210 -24 173.5 12 c 128,-1,25
 137 48 137 48 137 100 c 0,26,27
 137 153 137 153 176 189 c 1,28,-1
 176 356 l 2,29,30
 176 386 176 386 203 406 c 0,31,32
 227 424 227 424 261 424 c 128,-1,33
 295 424 295 424 319 406 c 0,34,35
 346 386 346 386 346 356 c 2,36,-1
 346 189 l 1,37,-1
 346 189 l 1,19,20
261 9 m 1,38,39
 298 9 298 9 324.5 35.5 c 128,-1,40
 351 62 351 62 351 100 c 0,41,42
 351 142 351 142 319 169 c 2,43,-1
 313 174 l 1,44,-1
 313 356 l 2,45,46
 313 370 313 370 297.5 380.5 c 128,-1,47
 282 391 282 391 261 391 c 128,-1,48
 240 391 240 391 224.5 380.5 c 128,-1,49
 209 370 209 370 209 356 c 2,50,-1
 209 174 l 1,51,-1
 203 169 l 2,52,53
 171 142 171 142 171 100 c 0,54,55
 171 62 171 62 197.5 35.5 c 128,-1,56
 224 9 224 9 261 9 c 1,57,-1
 261 9 l 1,38,39
261 9 m 1024,58,-1
362 338 m 2,59,60
 359 338 359 338 356.5 340.5 c 128,-1,61
 354 343 354 343 354 346.5 c 128,-1,62
 354 350 354 350 356.5 352.5 c 128,-1,63
 359 355 359 355 362 355 c 2,64,-1
 382 355 l 2,65,66
 385 355 385 355 387.5 352.5 c 128,-1,67
 390 350 390 350 390 346.5 c 128,-1,68
 390 343 390 343 387.5 340.5 c 128,-1,69
 385 338 385 338 382 338 c 2,70,-1
 362 338 l 2,59,60
362 338 m 1024,71,-1
382 330 m 2,72,73
 385 330 385 330 387.5 327.5 c 128,-1,74
 390 325 390 325 390 321.5 c 128,-1,75
 390 318 390 318 387.5 315.5 c 128,-1,76
 385 313 385 313 382 313 c 2,77,-1
 362 313 l 2,78,79
 359 313 359 313 356.5 315.5 c 128,-1,80
 354 318 354 318 354 321.5 c 128,-1,81
 354 325 354 325 356.5 327.5 c 128,-1,82
 359 330 359 330 362 330 c 2,83,-1
 382 330 l 2,72,73
382 330 m 1024,84,-1
382 304 m 2,85,86
 385 304 385 304 387.5 302 c 128,-1,87
 390 300 390 300 390 296.5 c 128,-1,88
 390 293 390 293 387.5 290.5 c 128,-1,89
 385 288 385 288 382 288 c 2,90,-1
 362 288 l 2,91,92
 359 288 359 288 356.5 290.5 c 128,-1,93
 354 293 354 293 354 296.5 c 128,-1,94
 354 300 354 300 356.5 302 c 128,-1,95
 359 304 359 304 362 304 c 2,96,-1
 382 304 l 2,85,86
382 304 m 1024,97,-1
382 279 m 2,98,99
 385 279 385 279 387.5 277 c 128,-1,100
 390 275 390 275 390 271.5 c 128,-1,101
 390 268 390 268 387.5 265.5 c 128,-1,102
 385 263 385 263 382 263 c 2,103,-1
 362 263 l 2,104,105
 359 263 359 263 356.5 265.5 c 128,-1,106
 354 268 354 268 354 271.5 c 128,-1,107
 354 275 354 275 356.5 277 c 128,-1,108
 359 279 359 279 362 279 c 2,109,-1
 382 279 l 2,98,99
382 279 m 1024,110,-1
382 254 m 2,111,112
 385 254 385 254 387.5 251.5 c 128,-1,113
 390 249 390 249 390 246 c 128,-1,114
 390 243 390 243 387.5 240.5 c 128,-1,115
 385 238 385 238 382 238 c 2,116,-1
 362 238 l 2,117,118
 359 238 359 238 356.5 240.5 c 128,-1,119
 354 243 354 243 354 246 c 128,-1,120
 354 249 354 249 356.5 251.5 c 128,-1,121
 359 254 359 254 362 254 c 2,122,-1
 382 254 l 2,111,112
382 254 m 1024,123,-1
382 229 m 2,124,125
 385 229 385 229 387.5 226.5 c 128,-1,126
 390 224 390 224 390 220.5 c 128,-1,127
 390 217 390 217 387.5 215 c 128,-1,128
 385 213 385 213 382 213 c 2,129,-1
 362 213 l 2,130,131
 359 213 359 213 356.5 215 c 128,-1,132
 354 217 354 217 354 220.5 c 128,-1,133
 354 224 354 224 356.5 226.5 c 128,-1,134
 359 229 359 229 362 229 c 2,135,-1
 382 229 l 2,124,125
382 229 m 1024,136,-1
EndSplineSet
Validated: 5
EndChar

StartChar: uniE608
Encoding: 58888 58888 11
Width: 512
GlyphClass: 2
Flags: W
LayerCount: 2
Fore
SplineSet
334 211 m 1,0,-1
 336 212 l 1,1,-1
 448 308 l 1,2,3
 455 296 455 296 460 283 c 1,4,-1
 376 211 l 1,5,-1
 334 211 l 1,6,-1
 334 211 l 1,0,-1
274 413 m 1,7,8
 290 413 290 413 308 409 c 1,9,-1
 274 379 l 1,10,-1
 274 413 l 1,7,8
451 211 m 1,11,-1
 451 211 l 1,12,-1
 409 211 l 1,13,-1
 468 261 l 1,14,15
 473 245 473 245 475 231 c 1,16,-1
 451 211 l 1,11,-1
381 379 m 1,17,18
 393 371 393 371 403 362 c 1,19,-1
 274 251 l 1,20,-1
 274 287 l 1,21,-1
 381 379 l 1,17,18
334 402 m 1,22,23
 346 398 346 398 361 390 c 1,24,-1
 274 315 l 1,25,-1
 274 351 l 1,26,-1
 334 402 l 1,22,23
436 326 m 1,27,-1
 302 211 l 1,28,-1
 274 211 l 1,29,-1
 274 223 l 1,30,-1
 419 347 l 1,31,32
 428 337 428 337 436 326 c 1,27,-1
254 413 m 1,33,-1
 254 205 l 1,34,-1
 96 69 l 1,35,36
 51 127 51 127 51 200 c 0,37,38
 51 257 51 257 78 305 c 128,-1,39
 105 353 105 353 151.5 382 c 128,-1,40
 198 411 198 411 254 413 c 1,41,-1
 254 413 l 1,33,-1
268 190 m 1,42,-1
 477 190 l 1,43,44
 474 135 474 135 445 88 c 128,-1,45
 416 41 416 41 368 14 c 128,-1,46
 320 -13 320 -13 264 -13 c 0,47,48
 219 -13 219 -13 179 4.5 c 128,-1,49
 139 22 139 22 109 54 c 1,50,-1
 268 190 l 1,42,-1
268 190 m 1024,51,-1
EndSplineSet
Validated: 5
EndChar

StartChar: uniE609
Encoding: 58889 58889 12
Width: 512
GlyphClass: 2
Flags: W
LayerCount: 2
Fore
SplineSet
448 212 m 0,0,1
 449 207 449 207 449 200 c 2,2,-1
 448 188 l 2,3,4
 448 185 448 185 445.5 181.5 c 128,-1,5
 443 178 443 178 440 177 c 2,6,-1
 405 165 l 2,7,8
 397 162 397 162 394 154 c 2,9,-1
 389 141 l 2,10,11
 385 133 385 133 389 125 c 2,12,-1
 405 92 l 2,13,14
 408 85 408 85 403 78 c 2,15,-1
 386 61 l 2,16,17
 379 56 379 56 372 59 c 2,18,-1
 339 75 l 2,19,20
 331 79 331 79 323 75 c 2,21,-1
 310 70 l 2,22,23
 302 67 302 67 299 59 c 2,24,-1
 287 24 l 2,25,26
 286 21 286 21 282.5 18.5 c 128,-1,27
 279 16 279 16 276 16 c 0,28,29
 271 15 271 15 264 15 c 2,30,-1
 252 16 l 2,31,32
 248 16 248 16 245 18.5 c 128,-1,33
 242 21 242 21 241 24 c 2,34,-1
 228 59 l 2,35,36
 225 67 225 67 217 70 c 2,37,-1
 204 75 l 2,38,39
 197 79 197 79 189 75 c 2,40,-1
 156 59 l 2,41,42
 148 56 148 56 142 61 c 2,43,-1
 125 78 l 2,44,45
 119 85 119 85 123 92 c 2,46,-1
 139 125 l 2,47,48
 142 133 142 133 139 141 c 2,49,-1
 133 154 l 2,50,51
 131 162 131 162 123 165 c 2,52,-1
 88 177 l 2,53,54
 85 178 85 178 82.5 181.5 c 128,-1,55
 80 185 80 185 79 188 c 0,56,57
 79 193 79 193 79 200 c 2,58,-1
 79 212 l 2,59,60
 80 216 80 216 82.5 219 c 128,-1,61
 85 222 85 222 88 223 c 2,62,-1
 123 236 l 2,63,64
 131 238 131 238 133 246 c 2,65,-1
 139 260 l 2,66,67
 142 267 142 267 139 275 c 2,68,-1
 123 308 l 2,69,70
 119 316 119 316 125 322 c 2,71,-1
 142 339 l 2,72,73
 148 344 148 344 156 341 c 2,74,-1
 189 325 l 2,75,76
 197 321 197 321 204 325 c 2,77,-1
 217 331 l 2,78,79
 225 333 225 333 228 341 c 2,80,-1
 241 376 l 2,81,82
 242 379 242 379 245 381.5 c 128,-1,83
 248 384 248 384 252 385 c 0,84,85
 257 385 257 385 264 385 c 2,86,-1
 276 385 l 2,87,88
 279 384 279 384 282.5 381.5 c 128,-1,89
 286 379 286 379 287 376 c 2,90,-1
 299 341 l 2,91,92
 302 333 302 333 310 331 c 2,93,-1
 323 325 l 2,94,95
 331 321 331 321 339 325 c 2,96,-1
 372 341 l 2,97,98
 379 344 379 344 386 339 c 2,99,-1
 403 322 l 2,100,101
 408 316 408 316 405 308 c 2,102,-1
 389 275 l 2,103,104
 385 267 385 267 389 260 c 2,105,-1
 394 246 l 2,106,107
 397 238 397 238 405 236 c 2,108,-1
 440 223 l 2,109,110
 443 222 443 222 445.5 219 c 128,-1,111
 448 216 448 216 448 212 c 0,0,1
264 116 m 1,112,113
 299 116 299 116 323.5 140.5 c 128,-1,114
 348 165 348 165 348 200 c 128,-1,115
 348 235 348 235 323.5 259.5 c 128,-1,116
 299 284 299 284 264 284 c 128,-1,117
 229 284 229 284 204.5 259.5 c 128,-1,118
 180 235 180 235 180 200 c 128,-1,119
 180 165 180 165 204.5 140.5 c 128,-1,120
 229 116 229 116 264 116 c 1,121,-1
 264 116 l 1,112,113
226 200 m 128,-1,123
 226 216 226 216 237 227 c 128,-1,124
 248 238 248 238 263.5 238 c 128,-1,125
 279 238 279 238 290.5 227 c 128,-1,126
 302 216 302 216 302 200 c 128,-1,127
 302 184 302 184 290.5 173 c 128,-1,128
 279 162 279 162 263.5 162 c 128,-1,129
 248 162 248 162 237 173 c 128,-1,122
 226 184 226 184 226 200 c 128,-1,123
226 200 m 1024,130,-1
EndSplineSet
Validated: 5
EndChar

StartChar: uniE60A
Encoding: 58890 58890 13
Width: 512
GlyphClass: 2
Flags: W
LayerCount: 2
Fore
SplineSet
45 32 m 1,0,-1
 190 128 l 1,1,-1
 191 163 l 1,2,3
 179 164 179 164 170 175.5 c 128,-1,4
 161 187 161 187 158 197 c 2,5,-1
 155 208 l 1,6,-1
 155 332 l 1,7,8
 159 355 159 355 170 372 c 128,-1,9
 181 389 181 389 194.5 398 c 128,-1,10
 208 407 208 407 220.5 412.5 c 128,-1,11
 233 418 233 418 241 420 c 2,12,-1
 250 421 l 1,13,-1
 279 421 l 1,14,15
 304 417 304 417 323 406.5 c 128,-1,16
 342 396 342 396 351 383.5 c 128,-1,17
 360 371 360 371 365.5 359.5 c 128,-1,18
 371 348 371 348 372 340 c 2,19,-1
 373 332 l 1,20,-1
 373 208 l 2,21,22
 370 195 370 195 365.5 185.5 c 128,-1,23
 361 176 361 176 356 172.5 c 128,-1,24
 351 169 351 169 346.5 167 c 128,-1,25
 342 165 342 165 339 165 c 2,26,-1
 336 165 l 1,27,-1
 336 127 l 1,28,-1
 483 31 l 1,29,-1
 483 -20 l 1,30,-1
 45 -20 l 1,31,-1
 45 32 l 1,32,-1
 45 32 l 1,0,-1
45 32 m 1024,33,-1
EndSplineSet
Validated: 5
EndChar

StartChar: uniE60B
Encoding: 58891 58891 14
Width: 512
GlyphClass: 2
Flags: W
LayerCount: 2
Fore
SplineSet
47 281 m 1,0,-1
 47 316 l 2,1,2
 49 314 49 314 53 311.5 c 128,-1,3
 57 309 57 309 69 302.5 c 128,-1,4
 81 296 81 296 93.5 291 c 128,-1,5
 106 286 106 286 123 282 c 128,-1,6
 140 278 140 278 155 278 c 0,7,8
 168 278 168 278 183 283.5 c 128,-1,9
 198 289 198 289 210 296.5 c 128,-1,10
 222 304 222 304 231.5 311.5 c 128,-1,11
 241 319 241 319 246 324 c 2,12,-1
 252 330 l 2,13,14
 254 331 254 331 258 334 c 128,-1,15
 262 337 262 337 274.5 344 c 128,-1,16
 287 351 287 351 299.5 356 c 128,-1,17
 312 361 312 361 330 365.5 c 128,-1,18
 348 370 348 370 365 370 c 0,19,20
 389 370 389 370 417 360.5 c 128,-1,21
 445 351 445 351 462 342 c 2,22,-1
 478 332 l 1,23,-1
 478 281 l 2,24,25
 476 283 476 283 471.5 285.5 c 128,-1,26
 467 288 467 288 454 294.5 c 128,-1,27
 441 301 441 301 428.5 306 c 128,-1,28
 416 311 416 311 399 315 c 128,-1,29
 382 319 382 319 368 319 c 0,30,31
 350 319 350 319 332 315 c 128,-1,32
 314 311 314 311 300.5 305.5 c 128,-1,33
 287 300 287 300 276.5 294.5 c 128,-1,34
 266 289 266 289 260 285 c 2,35,-1
 254 281 l 2,36,37
 252 279 252 279 248.5 276.5 c 128,-1,38
 245 274 245 274 233.5 267.5 c 128,-1,39
 222 261 222 261 210.5 256 c 128,-1,40
 199 251 199 251 183.5 247 c 128,-1,41
 168 243 168 243 155 243 c 0,42,43
 131 243 131 243 104 252.5 c 128,-1,44
 77 262 77 262 62 272 c 2,45,-1
 47 281 l 1,0,-1
47 281 m 1024,46,-1
47 181 m 1,47,-1
 47 216 l 2,48,49
 49 215 49 215 53 212.5 c 128,-1,50
 57 210 57 210 69 203.5 c 128,-1,51
 81 197 81 197 93.5 192 c 128,-1,52
 106 187 106 187 123 183 c 128,-1,53
 140 179 140 179 155 179 c 0,54,55
 168 179 168 179 183.5 184 c 128,-1,56
 199 189 199 189 211 196 c 128,-1,57
 223 203 223 203 233 210 c 128,-1,58
 243 217 243 217 249 222 c 2,59,-1
 254 227 l 2,60,61
 256 229 256 229 260 231.5 c 128,-1,62
 264 234 264 234 276 241 c 128,-1,63
 288 248 288 248 301 254 c 128,-1,64
 314 260 314 260 332 264.5 c 128,-1,65
 350 269 350 269 368 270 c 0,66,67
 392 270 392 270 420 260.5 c 128,-1,68
 448 251 448 251 464 242 c 2,69,-1
 481 232 l 1,70,-1
 481 181 l 2,71,72
 478 183 478 183 473.5 185.5 c 128,-1,73
 469 188 469 188 455.5 194.5 c 128,-1,74
 442 201 442 201 429 206 c 128,-1,75
 416 211 416 211 399 215 c 128,-1,76
 382 219 382 219 368 219 c 0,77,78
 350 219 350 219 332 215 c 128,-1,79
 314 211 314 211 300.5 205.5 c 128,-1,80
 287 200 287 200 276.5 194.5 c 128,-1,81
 266 189 266 189 260 185 c 2,82,-1
 254 181 l 2,83,84
 252 180 252 180 248.5 177.5 c 128,-1,85
 245 175 245 175 233.5 168.5 c 128,-1,86
 222 162 222 162 210.5 157 c 128,-1,87
 199 152 199 152 183.5 148 c 128,-1,88
 168 144 168 144 155 144 c 0,89,90
 131 144 131 144 104 153 c 128,-1,91
 77 162 77 162 62 172 c 2,92,-1
 47 181 l 1,47,-1
47 181 m 1024,93,-1
47 68 m 1,94,-1
 47 103 l 2,95,96
 49 102 49 102 53 99 c 128,-1,97
 57 96 57 96 69 89.5 c 128,-1,98
 81 83 81 83 93.5 78.5 c 128,-1,99
 106 74 106 74 123 69.5 c 128,-1,100
 140 65 140 65 155 65 c 0,101,102
 168 65 168 65 183.5 70.5 c 128,-1,103
 199 76 199 76 211 83.5 c 128,-1,104
 223 91 223 91 233 98.5 c 128,-1,105
 243 106 243 106 249 111 c 2,106,-1
 254 117 l 2,107,108
 257 118 257 118 261 121 c 128,-1,109
 265 124 265 124 277.5 131 c 128,-1,110
 290 138 290 138 302.5 143 c 128,-1,111
 315 148 315 148 333 152.5 c 128,-1,112
 351 157 351 157 368 157 c 0,113,114
 392 157 392 157 420 147.5 c 128,-1,115
 448 138 448 138 464 129 c 2,116,-1
 481 119 l 1,117,-1
 481 68 l 2,118,119
 478 70 478 70 473.5 72.5 c 128,-1,120
 469 75 469 75 455.5 81.5 c 128,-1,121
 442 88 442 88 429 93 c 128,-1,122
 416 98 416 98 399 102 c 128,-1,123
 382 106 382 106 368 106 c 0,124,125
 350 106 350 106 332 102 c 128,-1,126
 314 98 314 98 300.5 92.5 c 128,-1,127
 287 87 287 87 276.5 81.5 c 128,-1,128
 266 76 266 76 260 72 c 2,129,-1
 254 68 l 2,130,131
 252 67 252 67 248.5 64 c 128,-1,132
 245 61 245 61 233.5 54.5 c 128,-1,133
 222 48 222 48 210.5 43 c 128,-1,134
 199 38 199 38 183.5 34 c 128,-1,135
 168 30 168 30 155 30 c 0,136,137
 131 30 131 30 104 39.5 c 128,-1,138
 77 49 77 49 62 59 c 2,139,-1
 47 68 l 1,94,-1
47 68 m 1024,140,-1
EndSplineSet
Validated: 1
EndChar

StartChar: uniE60C
Encoding: 58892 58892 15
Width: 512
GlyphClass: 2
Flags: W
LayerCount: 2
Fore
SplineSet
510 448 m 1,0,-1
 512 447 l 1,1,-1
 512 332 l 1,2,-1
 264 332 l 2,3,4
 242 332 242 332 231 321 c 128,-1,5
 220 310 220 310 220 292 c 2,6,-1
 220 231 l 1,7,-1
 208 231 l 1,8,-1
 208 162 l 1,9,-1
 303 162 l 1,10,-1
 281 -64 l 1,11,-1
 42 -64 l 1,12,-1
 20 162 l 1,13,-1
 116 162 l 1,14,-1
 116 231 l 1,15,-1
 105 231 l 1,16,-1
 105 292 l 2,17,18
 105 367 105 367 146 407.5 c 128,-1,19
 187 448 187 448 264 448 c 2,20,-1
 510 448 l 1,0,-1
208 49 m 1,21,-1
 189 49 l 1,22,-1
 189 132 l 1,23,-1
 171 132 l 1,24,-1
 171 49 l 1,25,-1
 153 49 l 1,26,-1
 153 132 l 1,27,-1
 134 132 l 1,28,-1
 134 49 l 1,29,-1
 116 49 l 1,30,-1
 116 132 l 1,31,-1
 47 132 l 1,32,33
 48 124 48 124 50.5 97 c 128,-1,34
 53 70 53 70 56 41.5 c 128,-1,35
 59 13 59 13 61.5 -13.5 c 128,-1,36
 64 -40 64 -40 64 -46 c 1,37,-1
 259 -46 l 1,38,39
 265 11 265 11 277 132 c 1,40,-1
 208 132 l 1,41,-1
 208 49 l 1,42,-1
 208 49 l 1,21,-1
EndSplineSet
Validated: 5
EndChar

StartChar: uniE610
Encoding: 58896 58896 16
Width: 512
GlyphClass: 2
Flags: W
LayerCount: 2
Fore
SplineSet
282 186 m 1,0,-1
 478 285 l 1,1,-1
 478 86 l 1,2,-1
 282 -14 l 1,3,-1
 282 186 l 1,0,-1
50 86 m 1,4,-1
 50 287 l 1,5,-1
 246 187 l 1,6,-1
 246 -14 l 1,7,-1
 50 86 l 1,4,-1
264 414 m 1,8,-1
 460 314 l 1,9,-1
 265 214 l 1,10,-1
 69 314 l 1,11,-1
 264 414 l 1,8,-1
264 414 m 1024,12,-1
EndSplineSet
Validated: 1
EndChar

StartChar: uniE611
Encoding: 58897 58897 17
Width: 512
GlyphClass: 2
Flags: W
LayerCount: 2
Fore
SplineSet
475 51 m 1,0,1
 476 50 476 50 481 39 c 1,2,-1
 481 35 l 1,3,4
 481 35 481 35 481 35 c 1,5,6
 480 34 480 34 480 33 c 0,7,8
 477 27 477 27 471 27 c 0,9,10
 425 27 425 27 341 27 c 128,-1,11
 257 27 257 27 188.5 27 c 128,-1,12
 120 27 120 27 59 27 c 0,13,14
 53 27 53 27 49 33 c 128,-1,15
 45 39 45 39 49 45 c 0,16,17
 50 47 50 47 56 53 c 0,18,19
 56 54 56 54 58 54 c 0,20,21
 110 52 110 52 176 50 c 0,22,23
 219 49 219 49 259 48 c 0,24,25
 266 48 266 48 280 47.5 c 128,-1,26
 294 47 294 47 301 47 c 0,27,28
 305 47 305 47 307 47 c 0,29,30
 313 48 313 48 310 53 c 0,31,32
 308 55 308 55 304 59 c 0,33,34
 300 62 300 62 296 66 c 0,35,36
 292 69 292 69 293 73 c 0,37,38
 296 82 296 82 298 89 c 0,39,40
 299 92 299 92 301.5 98.5 c 128,-1,41
 304 105 304 105 305 106 c 0,42,43
 308 116 308 116 308 123 c 0,44,45
 307 128 307 128 312 128 c 0,46,47
 319 128 319 128 321 136 c 0,48,49
 323 141 323 141 324 148 c 0,50,51
 325 153 325 153 326 162.5 c 128,-1,52
 327 172 327 172 328 176 c 0,53,54
 328 180 328 180 330 183 c 0,55,56
 331 186 331 186 333.5 187.5 c 128,-1,57
 336 189 336 189 335 191 c 0,58,59
 335 192 335 192 332 195 c 0,60,61
 324 204 324 204 324 204 c 2,62,63
 319 211 319 211 321 220 c 128,-1,64
 323 229 323 229 331 230 c 0,65,66
 340 232 340 232 352 228 c 0,67,68
 353 227 353 227 354 226 c 0,69,70
 438 104 438 104 475 51 c 1,71,-1
 475 51 l 1,0,1
475 51 m 1024,72,-1
67 66 m 1,73,74
 62 67 62 67 58.5 71.5 c 128,-1,75
 55 76 55 76 55 81 c 0,76,77
 59 110 59 110 70 140 c 0,78,79
 80 167 80 167 102 206 c 0,80,81
 111 221 111 221 112 228 c 0,82,83
 113 236 113 236 113 241 c 0,84,85
 113 244 113 244 111 245 c 0,86,87
 107 248 107 248 102 250 c 0,88,89
 99 252 99 252 92 255 c 128,-1,90
 85 258 85 258 82 259 c 0,91,92
 79 261 79 261 76 263 c 0,93,94
 70 268 70 268 74 275 c 0,95,96
 77 279 77 279 80 282 c 0,97,98
 102 300 102 300 129 307 c 0,99,100
 160 315 160 315 186 308 c 1,101,102
 179 318 179 318 177 329 c 0,103,104
 175 344 175 344 184.5 357 c 128,-1,105
 194 370 194 370 209 373 c 0,106,107
 224 375 224 375 237 366.5 c 128,-1,108
 250 358 250 358 253 342 c 0,109,110
 257 326 257 326 248.5 312 c 128,-1,111
 240 298 240 298 225 294 c 0,112,113
 224 294 224 294 214 293 c 1,114,115
 214 293 214 293 214 293 c 1,116,117
 226 281 226 281 228 259 c 0,118,119
 229 245 229 245 230 243 c 0,120,121
 232 226 232 226 245 211 c 0,122,123
 252 203 252 203 256 197 c 0,124,125
 266 180 266 180 288 179 c 0,126,127
 293 178 293 178 299 177 c 0,128,129
 307 174 307 174 305 166 c 0,130,131
 301 147 301 147 286 135 c 0,132,133
 279 130 279 130 274 137 c 2,134,135
 274 137 274 137 268 151 c 0,136,137
 266 153 266 153 265 154 c 0,138,139
 246 167 246 167 198 199 c 1,140,141
 198 199 198 199 197 199 c 1,142,143
 198 197 198 197 198 197 c 2,144,145
 207 177 207 177 208 175 c 256,146,147
 209 173 209 173 209 172 c 0,148,149
 210 120 210 120 211 98 c 0,150,151
 211 94 211 94 210 83 c 0,152,153
 209 73 209 73 199 69 c 0,154,155
 195 67 195 67 192 67 c 0,156,157
 175 66 175 66 169 66 c 0,158,159
 158 67 158 67 158 79 c 0,160,161
 158 83 158 83 158 112 c 128,-1,162
 158 141 158 141 158 156 c 0,163,164
 158 160 158 160 156 163 c 0,165,166
 151 169 151 169 150 169 c 0,167,168
 145 174 145 174 141 169 c 0,169,170
 133 161 133 161 129 156 c 0,171,172
 109 125 109 125 94 86 c 0,173,174
 91 79 91 79 87 74 c 0,175,176
 80 65 80 65 67 66 c 1,177,-1
 67 66 l 1,73,74
197 227 m 0,178,179
 196 226 196 226 197 226 c 0,180,181
 201 223 201 223 214 214 c 1,182,183
 207 225 207 225 202 252 c 1,184,185
 198 234 198 234 197 227 c 0,178,179
113 273 m 1,186,187
 114 273 114 273 121 267.5 c 128,-1,188
 128 262 128 262 132 260 c 1,189,190
 136 267 136 267 145 280 c 1,191,192
 141 279 141 279 130 276.5 c 128,-1,193
 119 274 119 274 113 273 c 1,186,187
113 273 m 1024,194,-1
EndSplineSet
Validated: 37
EndChar

StartChar: uniE612
Encoding: 58898 58898 18
Width: 512
GlyphClass: 2
Flags: W
LayerCount: 2
Fore
SplineSet
323 5 m 1,0,-1
 75 5 l 2,1,2
 69 5 69 5 69 10 c 2,3,-1
 69 21 l 2,4,5
 69 25 69 25 75 25 c 2,6,-1
 309 25 l 1,7,-1
 323 5 l 1,0,-1
323 5 m 1024,8,-1
130 43 m 2,9,10
 130 39 130 39 124 39 c 2,11,-1
 76 39 l 2,12,13
 69 39 69 39 69 43 c 2,14,-1
 69 121 l 2,15,16
 69 125 69 125 76 125 c 2,17,-1
 124 125 l 2,18,19
 130 125 130 125 130 121 c 2,20,-1
 130 43 l 2,9,10
130 43 m 1024,21,-1
208 45 m 2,22,23
 208 42 208 42 206 40 c 128,-1,24
 204 38 204 38 202 38 c 2,25,-1
 154 38 l 2,26,27
 151 38 151 38 149 40 c 128,-1,28
 147 42 147 42 147 45 c 2,29,-1
 147 164 l 2,30,31
 147 167 147 167 149 169 c 128,-1,32
 151 171 151 171 154 171 c 2,33,-1
 202 171 l 2,34,35
 204 171 204 171 206 169 c 128,-1,36
 208 167 208 167 208 164 c 2,37,-1
 208 45 l 2,22,23
208 45 m 1024,38,-1
290 44 m 2,39,40
 290 38 290 38 284 38 c 2,41,-1
 236 38 l 2,42,43
 230 38 230 38 230 44 c 2,44,-1
 230 206 l 2,45,46
 230 212 230 212 236 212 c 2,47,-1
 284 212 l 2,48,49
 290 212 290 212 290 206 c 2,50,-1
 290 44 l 2,39,40
290 44 m 1024,51,-1
311 96 m 1,52,-1
 311 302 l 2,53,54
 311 308 311 308 312.5 309 c 128,-1,55
 314 310 314 310 318 310 c 2,56,-1
 366 310 l 2,57,58
 368 310 368 310 369 310 c 128,-1,59
 370 310 370 310 371 308 c 128,-1,60
 372 306 372 306 372 302 c 0,61,62
 373 147 373 147 372 141 c 1,63,64
 358 141 358 141 346 136 c 128,-1,65
 334 131 334 131 328 124.5 c 128,-1,66
 322 118 322 118 318 111.5 c 128,-1,67
 314 105 314 105 313 101 c 2,68,-1
 311 96 l 1,52,-1
311 96 m 1024,69,-1
345 367 m 1,70,-1
 310 367 l 1,71,72
 304 335 304 335 292.5 308.5 c 128,-1,73
 281 282 281 282 266 264 c 128,-1,74
 251 246 251 246 233 232.5 c 128,-1,75
 215 219 215 219 196.5 211 c 128,-1,76
 178 203 178 203 160 198 c 128,-1,77
 142 193 142 193 126.5 191.5 c 128,-1,78
 111 190 111 190 99 189.5 c 128,-1,79
 87 189 87 189 80 189 c 2,80,-1
 73 190 l 1,81,82
 108 193 108 193 139 203 c 128,-1,83
 170 213 170 213 191 226 c 128,-1,84
 212 239 212 239 229.5 255.5 c 128,-1,85
 247 272 247 272 258 287 c 128,-1,86
 269 302 269 302 277 319 c 128,-1,87
 285 336 285 336 288 346.5 c 128,-1,88
 291 357 291 357 293 367 c 1,89,-1
 258 367 l 1,90,-1
 304 417 l 1,91,-1
 345 367 l 1,70,-1
345 367 m 1024,92,-1
383 134 m 1,93,94
 414 134 414 134 436.5 112 c 128,-1,95
 459 90 459 90 459 59 c 128,-1,96
 459 28 459 28 436.5 6 c 128,-1,97
 414 -16 414 -16 383 -16 c 128,-1,98
 352 -16 352 -16 330 6 c 128,-1,99
 308 28 308 28 308 59 c 128,-1,100
 308 90 308 90 330 112 c 128,-1,101
 352 134 352 134 383 134 c 1,102,-1
 383 134 l 1,93,94
409 61 m 1,103,-1
 395 61 l 1,104,-1
 414 96 l 1,105,-1
 396 96 l 1,106,-1
 388 77 l 2,107,108
 387 74 387 74 385 68.5 c 128,-1,109
 383 63 383 63 383 63 c 1,110,-1
 383 63 l 1,111,112
 379 74 379 74 378 76 c 2,113,-1
 370 96 l 1,114,-1
 352 96 l 1,115,-1
 370 61 l 1,116,-1
 357 61 l 1,117,-1
 357 52 l 1,118,-1
 375 52 l 1,119,-1
 375 45 l 1,120,-1
 357 45 l 1,121,-1
 357 36 l 1,122,-1
 375 36 l 1,123,-1
 375 16 l 1,124,-1
 391 16 l 1,125,-1
 391 36 l 1,126,-1
 409 36 l 1,127,-1
 409 45 l 1,128,-1
 391 45 l 1,129,-1
 391 52 l 1,130,-1
 409 52 l 1,131,-1
 409 61 l 1,103,-1
409 61 m 1024,132,-1
EndSplineSet
Validated: 37
EndChar

StartChar: uniE613
Encoding: 58899 58899 19
Width: 512
GlyphClass: 2
Flags: W
LayerCount: 2
Fore
SplineSet
47 417 m 1,0,-1
 480 417 l 1,1,-1
 480 -16 l 1,2,-1
 47 -16 l 1,3,-1
 47 417 l 1,0,-1
453 11 m 1,4,-1
 453 390 l 1,5,-1
 74 390 l 1,6,-1
 74 11 l 1,7,-1
 453 11 l 1,4,-1
453 11 m 1024,8,-1
163 326 m 1,9,-1
 163 228 l 2,10,11
 163 107 163 107 122 54 c 1,12,13
 113 65 113 65 103 74 c 1,14,15
 138 117 138 117 138 226 c 2,16,-1
 138 348 l 1,17,18
 291 348 291 348 405 361 c 1,19,-1
 414 336 l 1,20,21
 295 328 295 328 163 326 c 1,22,-1
 163 326 l 1,9,-1
163 326 m 1024,23,-1
300 133 m 1,24,25
 358 107 358 107 419 77 c 1,26,-1
 405 54 l 1,27,28
 344 87 344 87 292 112 c 1,29,30
 268 69 268 69 170 53 c 1,31,32
 164 63 164 63 156 76 c 1,33,34
 255 91 255 91 271 125 c 0,35,36
 280 139 280 139 280 192 c 1,37,-1
 304 192 l 1,38,39
 305 151 305 151 300 133 c 1,40,-1
 300 133 l 1,24,25
300 133 m 1024,41,-1
412 268 m 1,42,-1
 304 268 l 1,43,-1
 304 231 l 1,44,-1
 389 231 l 1,45,-1
 389 119 l 1,46,-1
 365 119 l 1,47,-1
 365 209 l 1,48,-1
 219 209 l 1,49,-1
 219 119 l 1,50,-1
 195 119 l 1,51,-1
 195 231 l 1,52,-1
 279 231 l 1,53,-1
 279 268 l 1,54,-1
 175 268 l 1,55,-1
 175 290 l 1,56,-1
 279 290 l 1,57,-1
 279 324 l 1,58,-1
 304 324 l 1,59,-1
 304 290 l 1,60,-1
 412 290 l 1,61,-1
 412 268 l 1,42,-1
412 268 m 1024,62,-1
EndSplineSet
Validated: 37
EndChar

StartChar: uniE614
Encoding: 58900 58900 20
Width: 512
GlyphClass: 2
Flags: W
LayerCount: 2
Fore
SplineSet
157 222 m 2,0,-1
 157 233 l 2,1,2
 157 238 157 238 160 241 c 128,-1,3
 163 244 163 244 167 244 c 2,4,-1
 357 244 l 2,5,6
 361 244 361 244 364 241 c 128,-1,7
 367 238 367 238 367 233 c 2,8,-1
 367 222 l 2,9,10
 367 218 367 218 364 214.5 c 128,-1,11
 361 211 361 211 357 211 c 2,12,-1
 167 211 l 2,13,14
 163 211 163 211 160 214.5 c 128,-1,15
 157 218 157 218 157 222 c 2,0,-1
157 222 m 1024,16,-1
167 291 m 2,17,18
 163 291 163 291 160 294.5 c 128,-1,19
 157 298 157 298 157 302 c 2,20,-1
 157 313 l 2,21,22
 157 318 157 318 160 321 c 128,-1,23
 163 324 163 324 167 324 c 2,24,-1
 357 324 l 2,25,26
 361 324 361 324 364 321 c 128,-1,27
 367 318 367 318 367 313 c 2,28,-1
 367 302 l 2,29,30
 367 298 367 298 364 294.5 c 128,-1,31
 361 291 361 291 357 291 c 2,32,-1
 167 291 l 2,17,18
167 291 m 1024,33,-1
157 142 m 2,34,-1
 157 153 l 2,35,36
 157 157 157 157 160 160.5 c 128,-1,37
 163 164 163 164 167 164 c 2,38,-1
 322 164 l 2,39,40
 327 164 327 164 330 160.5 c 128,-1,41
 333 157 333 157 333 153 c 2,42,-1
 333 142 l 2,43,44
 333 137 333 137 330 134 c 128,-1,45
 327 131 327 131 322 131 c 2,46,-1
 167 131 l 2,47,48
 163 131 163 131 160 134 c 128,-1,49
 157 137 157 137 157 142 c 2,34,-1
157 142 m 1024,50,-1
435 415 m 2,51,52
 441 415 441 415 445.5 411 c 128,-1,53
 450 407 450 407 450 401 c 2,54,-1
 450 71 l 1,55,-1
 366 -15 l 1,56,-1
 326 -15 l 1,57,-1
 326 100 l 2,58,59
 326 106 326 106 327 108 c 128,-1,60
 328 110 328 110 334 110 c 2,61,-1
 414 110 l 1,62,-1
 414 367 l 2,63,64
 414 372 414 372 410.5 375.5 c 128,-1,65
 407 379 407 379 402 379 c 2,66,-1
 126 379 l 2,67,68
 121 379 121 379 117.5 375.5 c 128,-1,69
 114 372 114 372 114 367 c 2,70,-1
 114 34 l 2,71,72
 114 29 114 29 117.5 25.5 c 128,-1,73
 121 22 121 22 126 22 c 2,74,-1
 273 22 l 1,75,-1
 273 -15 l 1,76,-1
 92 -15 l 2,77,78
 86 -15 86 -15 82 -10.5 c 128,-1,79
 78 -6 78 -6 78 0 c 2,80,-1
 78 401 l 2,81,82
 78 407 78 407 82 411 c 128,-1,83
 86 415 86 415 92 415 c 2,84,-1
 435 415 l 2,51,52
353 28 m 1,85,-1
 402 73 l 1,86,-1
 367 73 l 2,87,88
 362 73 362 73 357.5 67.5 c 128,-1,89
 353 62 353 62 353 57 c 2,90,-1
 353 28 l 1,91,-1
 353 28 l 1,85,-1
353 28 m 1024,92,-1
EndSplineSet
Validated: 5
EndChar

StartChar: uniE615
Encoding: 58901 58901 21
Width: 512
GlyphClass: 2
Flags: W
LayerCount: 2
Fore
SplineSet
107 272 m 1,0,-1
 131 272 l 1,1,-1
 131 254 l 1,2,-1
 107 254 l 1,3,-1
 107 272 l 1,0,-1
107 272 m 1024,4,-1
107 145 m 1,5,-1
 131 145 l 1,6,-1
 131 126 l 1,7,-1
 107 126 l 1,8,-1
 107 145 l 1,5,-1
107 145 m 1024,9,-1
106 188 m 1,10,-1
 131 188 l 1,11,-1
 131 169 l 1,12,-1
 106 169 l 1,13,-1
 106 188 l 1,10,-1
106 188 m 1024,14,-1
110 355 m 1,15,-1
 418 355 l 1,16,-1
 418 341 l 1,17,-1
 110 341 l 1,18,-1
 110 355 l 1,15,-1
110 355 m 1024,19,-1
205 41 m 1,20,-1
 205 41 l 1,21,22
 421 230 421 230 422 231 c 2,23,-1
 422 41 l 1,24,-1
 205 41 l 1,20,-1
395 46 m 1,25,-1
 395 46 l 1,26,-1
 395 54 l 2,27,28
 395 59 395 59 390.5 59 c 128,-1,29
 386 59 386 59 386 54 c 2,30,-1
 386 46 l 1,31,-1
 395 46 l 1,25,-1
351 46 m 1,32,-1
 351 46 l 1,33,-1
 351 54 l 2,34,35
 351 59 351 59 346.5 59 c 128,-1,36
 342 59 342 59 342 54 c 2,37,-1
 342 46 l 1,38,-1
 351 46 l 1,32,-1
308 46 m 1,39,-1
 308 46 l 1,40,-1
 308 54 l 2,41,42
 308 59 308 59 303 59 c 128,-1,43
 298 59 298 59 298 54 c 2,44,-1
 298 46 l 1,45,-1
 308 46 l 1,39,-1
264 46 m 1,46,-1
 264 46 l 1,47,-1
 264 54 l 2,48,49
 264 59 264 59 259.5 59 c 128,-1,50
 255 59 255 59 255 54 c 2,51,-1
 255 46 l 1,52,-1
 264 46 l 1,46,-1
321 106 m 1,53,-1
 277 68 l 1,54,-1
 399 68 l 1,55,-1
 399 174 l 1,56,-1
 378 156 l 1,57,-1
 321 106 l 1,53,-1
321 106 m 1024,58,-1
52 395 m 1,59,-1
 52 395 l 1,60,61
 52 402 52 402 56.5 407.5 c 128,-1,62
 61 413 61 413 67 413 c 2,63,-1
 463 413 l 2,64,65
 466 413 466 413 470.5 408 c 128,-1,66
 475 403 475 403 475 399 c 2,67,-1
 475 2 l 2,68,69
 475 -4 475 -4 470 -8.5 c 128,-1,70
 465 -13 465 -13 459 -13 c 2,71,-1
 69 -13 l 2,72,73
 63 -13 63 -13 57.5 -8 c 128,-1,74
 52 -3 52 -3 52 3 c 2,75,-1
 52 395 l 1,76,-1
 52 395 l 1,59,-1
440 18 m 1,77,-1
 440 18 l 1,78,79
 447 23 447 23 447 31 c 2,80,-1
 447 368 l 2,81,82
 447 372 447 372 443 377 c 128,-1,83
 439 382 439 382 435 382 c 2,84,-1
 93 382 l 2,85,86
 90 382 90 382 85.5 377 c 128,-1,87
 81 372 81 372 81 368 c 2,88,-1
 81 27 l 2,89,90
 81 25 81 25 85 21 c 128,-1,91
 89 17 89 17 91 17 c 2,92,-1
 429 17 l 1,93,-1
 440 18 l 1,77,-1
440 18 m 1024,94,-1
314 230 m 1,95,-1
 314 230 l 1,96,-1
 314 161 l 1,97,-1
 249 161 l 1,98,-1
 249 230 l 1,99,-1
 314 230 l 1,95,-1
302 175 m 1,100,-1
 302 217 l 1,101,-1
 262 217 l 1,102,-1
 262 175 l 1,103,-1
 302 175 l 1,100,-1
302 175 m 1024,104,-1
190 233 m 1,105,-1
 190 233 l 1,106,107
 205 233 205 233 215.5 222 c 128,-1,108
 226 211 226 211 226 195.5 c 128,-1,109
 226 180 226 180 215.5 169.5 c 128,-1,110
 205 159 205 159 190.5 159 c 128,-1,111
 176 159 176 159 165.5 169.5 c 128,-1,112
 155 180 155 180 155 195.5 c 128,-1,113
 155 211 155 211 165.5 222 c 128,-1,114
 176 233 176 233 190 233 c 1,105,-1
190.5 172 m 128,-1,116
 200 172 200 172 206.5 179 c 128,-1,117
 213 186 213 186 213 195.5 c 128,-1,118
 213 205 213 205 206.5 212 c 128,-1,119
 200 219 200 219 190.5 219 c 128,-1,120
 181 219 181 219 174.5 212 c 128,-1,121
 168 205 168 205 168 195.5 c 128,-1,122
 168 186 168 186 174.5 179 c 128,-1,115
 181 172 181 172 190.5 172 c 128,-1,116
190 172 m 1024,123,-1
282 249 m 1,124,-1
 282 249 l 1,125,126
 267 249 267 249 256.5 260 c 128,-1,127
 246 271 246 271 246 286.5 c 128,-1,128
 246 302 246 302 256.5 313 c 128,-1,129
 267 324 267 324 281.5 324 c 128,-1,130
 296 324 296 324 306.5 313 c 128,-1,131
 317 302 317 302 317 286.5 c 128,-1,132
 317 271 317 271 306.5 260 c 128,-1,133
 296 249 296 249 282 249 c 1,124,-1
281.5 310 m 128,-1,135
 272 310 272 310 265.5 303 c 128,-1,136
 259 296 259 296 259 286.5 c 128,-1,137
 259 277 259 277 265.5 270 c 128,-1,138
 272 263 272 263 281.5 263 c 128,-1,139
 291 263 291 263 297.5 270 c 128,-1,140
 304 277 304 277 304 286.5 c 128,-1,141
 304 296 304 296 297.5 303 c 128,-1,134
 291 310 291 310 281.5 310 c 128,-1,135
282 310 m 1024,142,-1
190 324 m 1,143,-1
 190 324 l 1,144,145
 205 324 205 324 215.5 313 c 128,-1,146
 226 302 226 302 226 286.5 c 128,-1,147
 226 271 226 271 215.5 260 c 128,-1,148
 205 249 205 249 190.5 249 c 128,-1,149
 176 249 176 249 165.5 260 c 128,-1,150
 155 271 155 271 155 286.5 c 128,-1,151
 155 302 155 302 165.5 313 c 128,-1,152
 176 324 176 324 190 324 c 1,143,-1
190.5 263 m 128,-1,154
 200 263 200 263 206.5 270 c 128,-1,155
 213 277 213 277 213 286.5 c 128,-1,156
 213 296 213 296 206.5 303 c 128,-1,157
 200 310 200 310 190.5 310 c 128,-1,158
 181 310 181 310 174.5 303 c 128,-1,159
 168 296 168 296 168 286.5 c 128,-1,160
 168 277 168 277 174.5 270 c 128,-1,153
 181 263 181 263 190.5 263 c 128,-1,154
190 263 m 1024,161,-1
107 314 m 1,162,-1
 131 314 l 1,163,-1
 131 296 l 1,164,-1
 107 296 l 1,165,-1
 107 314 l 1,162,-1
107 314 m 1024,166,-1
107 230 m 1,167,-1
 131 230 l 1,168,-1
 131 211 l 1,169,-1
 107 211 l 1,170,-1
 107 230 l 1,167,-1
107 230 m 1024,171,-1
107 103 m 1,172,-1
 131 103 l 1,173,-1
 131 84 l 1,174,-1
 107 84 l 1,175,-1
 107 103 l 1,172,-1
107 103 m 1024,176,-1
107 60 m 1,177,-1
 131 60 l 1,178,-1
 131 41 l 1,179,-1
 107 41 l 1,180,-1
 107 60 l 1,177,-1
107 60 m 1024,181,-1
EndSplineSet
Validated: 5
EndChar

StartChar: uniE616
Encoding: 58902 58902 22
Width: 512
GlyphClass: 2
Flags: W
LayerCount: 2
Fore
SplineSet
193 131 m 1,0,-1
 220 225 l 1,1,-1
 288 158 l 1,2,-1
 193 131 l 1,0,-1
446 315 m 1,3,-1
 297 167 l 1,4,-1
 230 234 l 1,5,-1
 378 382 l 1,6,-1
 446 315 l 1,3,-1
426 67 m 1,7,-1
 426 235 l 1,8,-1
 468 278 l 1,9,-1
 468 52 l 2,10,11
 468 23 468 23 447.5 2.5 c 128,-1,12
 427 -18 427 -18 398 -18 c 2,13,-1
 116 -18 l 2,14,15
 87 -18 87 -18 66.5 2.5 c 128,-1,16
 46 23 46 23 46 52 c 2,17,-1
 46 334 l 2,18,19
 46 363 46 363 66.5 383.5 c 128,-1,20
 87 404 87 404 116 404 c 2,21,-1
 342 404 l 1,22,-1
 299 362 l 1,23,-1
 130 362 l 2,24,25
 113 362 113 362 100.5 349.5 c 128,-1,26
 88 337 88 337 88 320 c 2,27,-1
 88 67 l 2,28,29
 88 49 88 49 100.5 36.5 c 128,-1,30
 113 24 113 24 130 24 c 2,31,-1
 384 24 l 2,32,33
 401 24 401 24 413.5 36.5 c 128,-1,34
 426 49 426 49 426 67 c 1,35,-1
 426 67 l 1,7,-1
477 371 m 2,36,37
 482 366 482 366 482 358.5 c 128,-1,38
 482 351 482 351 476 345 c 2,39,-1
 456 325 l 1,40,-1
 388 392 l 1,41,-1
 409 412 l 2,42,43
 414 418 414 418 422 418 c 128,-1,44
 430 418 430 418 435 413 c 2,45,-1
 477 371 l 2,36,37
477 371 m 1024,46,-1
EndSplineSet
Validated: 5
EndChar

StartChar: uniE617
Encoding: 58903 58903 23
Width: 512
GlyphClass: 2
Flags: W
LayerCount: 2
Fore
SplineSet
461 282 m 1,0,1
 467 282 467 282 471 278 c 128,-1,2
 475 274 475 274 475 268 c 2,3,-1
 475 33 l 2,4,5
 475 27 475 27 471 23 c 128,-1,6
 467 19 467 19 461 19 c 2,7,-1
 165 19 l 2,8,9
 159 19 159 19 155 23 c 128,-1,10
 151 27 151 27 151 33 c 2,11,-1
 151 69 l 1,12,-1
 116 69 l 2,13,14
 110 69 110 69 106 73 c 128,-1,15
 102 77 102 77 102 83 c 2,16,-1
 102 118 l 1,17,-1
 66 118 l 2,18,19
 60 118 60 118 56 122.5 c 128,-1,20
 52 127 52 127 52 133 c 2,21,-1
 52 367 l 2,22,23
 52 373 52 373 56 377.5 c 128,-1,24
 60 382 60 382 66 382 c 2,25,-1
 363 382 l 2,26,27
 368 382 368 382 372.5 377.5 c 128,-1,28
 377 373 377 373 377 367 c 2,29,-1
 377 332 l 1,30,-1
 412 332 l 2,31,32
 418 332 418 332 422 328 c 128,-1,33
 426 324 426 324 426 318 c 2,34,-1
 426 282 l 1,35,-1
 461 282 l 1,36,-1
 461 282 l 1,0,1
102 318 m 1,37,38
 102 324 102 324 106 328 c 128,-1,39
 110 332 110 332 116 332 c 2,40,-1
 363 332 l 1,41,-1
 363 360 l 2,42,43
 363 363 363 363 360.5 365 c 128,-1,44
 358 367 358 367 355 367 c 2,45,-1
 73 367 l 2,46,47
 70 367 70 367 68 365 c 128,-1,48
 66 363 66 363 66 360 c 2,49,-1
 66 140 l 2,50,51
 66 137 66 137 68 135 c 128,-1,52
 70 133 70 133 73 133 c 2,53,-1
 102 133 l 1,54,-1
 102 318 l 1,55,-1
 102 318 l 1,37,38
151 268 m 1,56,57
 151 274 151 274 155 278 c 128,-1,58
 159 282 159 282 165 282 c 2,59,-1
 412 282 l 1,60,-1
 412 311 l 2,61,62
 412 313 412 313 410 315.5 c 128,-1,63
 408 318 408 318 405 318 c 2,64,-1
 123 318 l 2,65,66
 120 318 120 318 118 315.5 c 128,-1,67
 116 313 116 313 116 311 c 2,68,-1
 116 90 l 2,69,70
 116 87 116 87 118 85 c 128,-1,71
 120 83 120 83 123 83 c 2,72,-1
 151 83 l 1,73,-1
 151 268 l 1,74,-1
 151 268 l 1,56,57
461 40 m 2,75,-1
 461 261 l 2,76,77
 461 264 461 264 459 266 c 128,-1,78
 457 268 457 268 454 268 c 2,79,-1
 172 268 l 2,80,81
 169 268 169 268 167 266 c 128,-1,82
 165 264 165 264 165 261 c 2,83,-1
 165 40 l 2,84,85
 165 37 165 37 167 35 c 128,-1,86
 169 33 169 33 172 33 c 2,87,-1
 454 33 l 2,88,89
 457 33 457 33 459 35 c 128,-1,90
 461 37 461 37 461 40 c 2,75,-1
461 40 m 1024,91,-1
EndSplineSet
Validated: 5
EndChar

StartChar: uniE618
Encoding: 58904 58904 24
Width: 512
GlyphClass: 2
Flags: W
LayerCount: 2
Fore
SplineSet
350 316 m 1,0,-1
 354 304 l 1,1,2
 283 298 283 298 181 297 c 1,3,-1
 181 233 l 2,4,5
 181 186 181 186 176 162 c 256,6,7
 171 138 171 138 157 112 c 0,8,9
 155 113 155 113 149 117 c 0,10,11
 147 118 147 118 146 119 c 0,12,13
 160 142 160 142 165 165 c 0,14,15
 169 189 169 189 169 234 c 2,16,-1
 169 308 l 1,17,18
 273 308 273 308 350 316 c 1,0,-1
353 257 m 1,19,-1
 279 257 l 1,20,-1
 279 227 l 1,21,-1
 338 227 l 1,22,-1
 338 155 l 1,23,-1
 326 155 l 1,24,-1
 326 216 l 1,25,-1
 220 216 l 1,26,-1
 220 155 l 1,27,-1
 208 155 l 1,28,-1
 208 227 l 1,29,-1
 266 227 l 1,30,-1
 266 257 l 1,31,-1
 195 257 l 1,32,-1
 195 267 l 1,33,-1
 266 267 l 1,34,-1
 266 292 l 1,35,-1
 279 292 l 1,36,-1
 279 267 l 1,37,-1
 353 267 l 1,38,-1
 353 257 l 1,19,-1
280 200 m 1,39,40
 280 179 280 179 274 162 c 1,41,42
 318 143 318 143 357 124 c 1,43,-1
 350 113 l 1,44,45
 321 130 321 130 270 153 c 1,46,47
 256 126 256 126 190 111 c 1,48,49
 188 115 188 115 185 121 c 1,50,51
 185 120 185 120 184 121 c 0,52,53
 184 122 184 122 184 122 c 1,54,55
 234 132 234 132 251 148 c 0,56,57
 268 162 268 162 268 200 c 1,58,-1
 280 200 l 1,39,40
441 341 m 1,59,60
 446 253 446 253 439 209 c 0,61,62
 423 114 423 114 370 61 c 0,63,64
 343 34 343 34 299 16 c 0,65,66
 293 13 293 13 281 7 c 0,67,68
 274 2 274 2 270 0 c 256,69,70
 266 -2 266 -2 262 -2 c 256,71,72
 258 -2 258 -2 255 0 c 0,73,74
 251 2 251 2 243 5 c 0,75,76
 229 12 229 12 222 14 c 0,77,78
 166 34 166 34 129 74 c 0,79,80
 94 112 94 112 76 170 c 0,81,82
 59 221 59 221 65 285 c 0,83,84
 66 305 66 305 71 345 c 0,85,86
 73 358 73 358 74 366 c 0,87,88
 74 369 74 369 75 373 c 2,89,-1
 78 381 l 1,90,-1
 87 380 l 2,91,92
 93 379 93 379 105 377 c 0,93,94
 130 373 130 373 142 372 c 0,95,96
 148 371 148 371 154 371 c 0,97,98
 199 371 199 371 244 403 c 0,99,100
 253 409 253 409 261 409 c 0,101,102
 268 409 268 409 278 402 c 0,103,104
 321 368 321 368 372 368 c 0,105,106
 396 368 396 368 421 376 c 1,107,-1
 421 376 l 1,108,109
 422 376 422 376 423.5 376 c 128,-1,110
 425 376 425 376 425 376 c 1,111,-1
 436 379 l 1,112,-1
 438 368 l 2,113,114
 438 366 438 366 439 362 c 0,115,116
 440 351 440 351 441 346 c 2,117,-1
 441 341 l 1,59,60
419 212 m 0,118,119
 426 254 426 254 421 340 c 1,120,-1
 420 344 l 2,121,122
 420 348 420 348 419 354 c 1,123,124
 395 348 395 348 372 348 c 0,125,126
 315 348 315 348 265 386 c 0,127,128
 262 388 262 388 260 389 c 0,129,130
 259 388 259 388 256 386 c 0,131,132
 205 351 205 351 154 351 c 0,133,134
 147 351 147 351 141 351 c 0,135,136
 127 353 127 353 102 357 c 0,137,138
 96 358 96 358 93 358 c 1,139,140
 93 353 93 353 91 342 c 0,141,142
 87 303 87 303 85 283 c 0,143,144
 80 224 80 224 95 176 c 0,145,146
 129 69 129 69 229 34 c 0,147,148
 237 31 237 31 252 24 c 0,149,150
 259 21 259 21 262 19 c 0,151,152
 265 21 265 21 271 24 c 0,153,154
 284 31 284 31 291 34 c 0,155,156
 332 51 332 51 356 75 c 0,157,158
 404 124 404 124 419 212 c 0,118,119
EndSplineSet
Validated: 37
EndChar

StartChar: uniE619
Encoding: 58905 58905 25
Width: 512
GlyphClass: 2
Flags: W
LayerCount: 2
Fore
SplineSet
336 256 m 1,0,-1
 262 256 l 1,1,-1
 262 227 l 1,2,-1
 321 227 l 1,3,-1
 321 154 l 1,4,-1
 309 154 l 1,5,-1
 309 216 l 1,6,-1
 203 216 l 1,7,-1
 203 154 l 1,8,-1
 191 154 l 1,9,-1
 191 227 l 1,10,-1
 250 227 l 1,11,-1
 250 256 l 1,12,-1
 178 256 l 1,13,-1
 178 267 l 1,14,-1
 250 267 l 1,15,-1
 250 292 l 1,16,-1
 262 292 l 1,17,-1
 262 267 l 1,18,-1
 336 267 l 1,19,-1
 336 256 l 1,0,-1
263 199 m 1,20,21
 263 178 263 178 258 162 c 1,22,23
 301 143 301 143 341 123 c 1,24,-1
 334 112 l 1,25,26
 304 129 304 129 253 152 c 1,27,28
 239 125 239 125 173 110 c 1,29,30
 171 114 171 114 167 120 c 1,31,32
 168 119 168 119 167 120 c 1,33,34
 167 121 167 121 167 122 c 0,35,36
 217 131 217 131 234 147 c 0,37,38
 251 162 251 162 251 199 c 1,39,-1
 263 199 l 1,40,-1
 263 199 l 1,20,21
334 316 m 1,41,-1
 337 303 l 1,42,43
 266 298 266 298 164 296 c 1,44,-1
 164 233 l 2,45,46
 164 185 164 185 159 161 c 256,47,48
 154 137 154 137 139 111 c 1,49,50
 138 112 138 112 132 116 c 0,51,52
 130 117 130 117 129 118 c 0,53,54
 143 142 143 142 147 164 c 0,55,56
 152 188 152 188 152 233 c 2,57,-1
 152 308 l 1,58,59
 257 308 257 308 334 316 c 1,60,-1
 334 316 l 1,41,-1
425 342 m 1,61,62
 430 253 430 253 423 209 c 0,63,64
 407 114 407 114 354 60 c 0,65,66
 326 33 326 33 282 14 c 0,67,68
 276 12 276 12 265 5 c 0,69,70
 257 1 257 1 253 -1 c 0,71,72
 250 -3 250 -3 245 -3 c 0,73,74
 242 -3 242 -3 239 -2 c 0,75,76
 234 0 234 0 226 4 c 0,77,78
 212 11 212 11 205 13 c 0,79,80
 149 33 149 33 112 73 c 0,81,82
 76 111 76 111 58 169 c 0,83,84
 42 221 42 221 47 285 c 0,85,86
 49 305 49 305 53 345 c 0,87,88
 55 359 55 359 56 367 c 0,89,90
 56 369 56 369 58 373 c 1,91,-1
 58 373 l 1,92,-1
 60 382 l 1,93,-1
 69 380 l 2,94,95
 75 379 75 379 88 377 c 0,96,97
 113 373 113 373 125 372 c 0,98,99
 131 371 131 371 136 371 c 0,100,101
 182 371 182 371 227 403 c 0,102,103
 237 410 237 410 244 410 c 256,104,105
 251 410 251 410 261 402 c 0,106,107
 305 368 305 368 356 368 c 0,108,109
 380 368 380 368 405 376 c 1,110,-1
 405 376 l 1,111,112
 406 376 406 376 407 376 c 128,-1,113
 408 376 408 376 409 377 c 2,114,-1
 420 379 l 1,115,-1
 422 368 l 2,116,117
 422 366 422 366 422 362 c 0,118,119
 424 351 424 351 424 346 c 2,120,-1
 425 342 l 1,61,62
403 212 m 1,121,122
 409 254 409 254 404 340 c 1,123,-1
 404 344 l 2,124,125
 404 348 404 348 403 354 c 1,126,127
 379 348 379 348 356 348 c 0,128,129
 298 348 298 348 248 386 c 0,130,131
 245 389 245 389 244 389 c 0,132,133
 242 389 242 389 239 386 c 0,134,135
 188 351 188 351 136 351 c 0,136,137
 130 351 130 351 123 352 c 0,138,139
 110 353 110 353 84 357 c 0,140,141
 79 358 79 358 76 359 c 1,142,143
 75 353 75 353 74 342 c 0,144,145
 69 303 69 303 67 283 c 0,146,147
 62 223 62 223 77 175 c 0,148,149
 111 68 111 68 212 32 c 0,150,151
 220 30 220 30 235 23 c 0,152,153
 242 19 242 19 245 18 c 0,154,155
 248 19 248 19 254 23 c 0,156,157
 267 30 267 30 274 33 c 0,158,159
 315 50 315 50 339 74 c 0,160,161
 388 123 388 123 403 212 c 1,162,-1
 403 212 l 1,121,122
485 3 m 1,163,164
 485 -3 485 -3 487.5 -4 c 128,-1,165
 490 -5 490 -5 503 -5 c 1,166,-1
 503 -10 l 1,167,-1
 405 -10 l 1,168,-1
 405 -5 l 1,169,170
 417 -5 417 -5 419.5 -3.5 c 128,-1,171
 422 -2 422 -2 422 3 c 2,172,-1
 422 118 l 2,173,174
 422 125 422 125 420 126.5 c 128,-1,175
 418 128 418 128 406 128 c 1,176,-1
 406 131 l 1,177,-1
 503 131 l 1,178,-1
 503 128 l 1,179,180
 490 128 490 128 487.5 126 c 128,-1,181
 485 124 485 124 485 118 c 2,182,-1
 485 3 l 1,183,-1
 485 3 l 1,163,164
475 3 m 1,184,-1
 475 118 l 2,185,186
 475 124 475 124 472 126 c 128,-1,187
 469 128 469 128 455 128 c 0,188,189
 440 128 440 128 436.5 126 c 128,-1,190
 433 124 433 124 433 118 c 2,191,-1
 433 3 l 2,192,193
 433 -2 433 -2 436 -3.5 c 128,-1,194
 439 -5 439 -5 453.5 -5 c 128,-1,195
 468 -5 468 -5 471.5 -3.5 c 128,-1,196
 475 -2 475 -2 475 3 c 1,197,-1
 475 3 l 1,184,-1
EndSplineSet
Validated: 37
EndChar

StartChar: uniE61A
Encoding: 58906 58906 26
Width: 512
GlyphClass: 2
Flags: W
LayerCount: 2
Fore
SplineSet
248 30 m 1,0,1
 234 58 234 58 234 89 c 0,2,3
 234 144 234 144 273 183 c 128,-1,4
 312 222 312 222 367 222 c 0,5,6
 375 222 375 222 382 221 c 1,7,-1
 382 281 l 1,8,-1
 338 281 l 2,9,10
 304 281 304 281 280 305 c 128,-1,11
 256 329 256 329 256 363 c 2,12,-1
 256 392 l 1,13,-1
 109 392 l 2,14,15
 93 392 93 392 82.5 381.5 c 128,-1,16
 72 371 72 371 72 355 c 2,17,-1
 72 67 l 2,18,19
 72 52 72 52 82.5 41 c 128,-1,20
 93 30 93 30 109 30 c 2,21,-1
 248 30 l 1,22,-1
 248 30 l 1,0,1
292 8 m 1,23,-1
 109 8 l 2,24,25
 84 8 84 8 67 25.5 c 128,-1,26
 50 43 50 43 50 67 c 2,27,-1
 50 355 l 2,28,29
 50 380 50 380 67 397 c 128,-1,30
 84 414 84 414 109 414 c 2,31,-1
 279 414 l 1,32,-1
 279 363 l 2,33,34
 279 338 279 338 296 321 c 128,-1,35
 313 304 313 304 338 304 c 2,36,-1
 404 304 l 1,37,-1
 404 194 l 1,38,39
 386 200 386 200 367 200 c 0,40,41
 321 200 321 200 288.5 167.5 c 128,-1,42
 256 135 256 135 256 89 c 0,43,44
 256 41 256 41 292 8 c 1,45,-1
 292 8 l 1,46,-1
 292 8 l 1,23,-1
292 8 m 1024,47,-1
227 112 m 1,48,-1
 109 112 l 2,49,50
 106 112 106 112 103.5 114 c 128,-1,51
 101 116 101 116 101 119 c 2,52,-1
 101 126 l 2,53,54
 101 129 101 129 103.5 131.5 c 128,-1,55
 106 134 106 134 109 134 c 2,56,-1
 227 134 l 2,57,58
 230 134 230 134 232 131.5 c 128,-1,59
 234 129 234 129 234 126 c 2,60,-1
 234 119 l 2,61,62
 234 116 234 116 232 114 c 128,-1,63
 230 112 230 112 227 112 c 1,64,-1
 227 112 l 1,48,-1
227 112 m 1024,65,-1
249 185 m 1,66,-1
 109 185 l 2,67,68
 106 185 106 185 103.5 187.5 c 128,-1,69
 101 190 101 190 101 193 c 2,70,-1
 101 200 l 2,71,72
 101 203 101 203 103.5 205.5 c 128,-1,73
 106 208 106 208 109 208 c 2,74,-1
 249 208 l 2,75,76
 252 208 252 208 254 205.5 c 128,-1,77
 256 203 256 203 256 200 c 2,78,-1
 256 193 l 2,79,80
 256 190 256 190 254 187.5 c 128,-1,81
 252 185 252 185 249 185 c 1,82,-1
 249 185 l 1,66,-1
249 185 m 1024,83,-1
286 267 m 1,84,-1
 109 267 l 2,85,86
 106 267 106 267 103.5 269 c 128,-1,87
 101 271 101 271 101 274 c 2,88,-1
 101 281 l 2,89,90
 101 284 101 284 103.5 286.5 c 128,-1,91
 106 289 106 289 109 289 c 2,92,-1
 286 289 l 2,93,94
 289 289 289 289 291 286.5 c 128,-1,95
 293 284 293 284 293 281 c 2,96,-1
 293 274 l 2,97,98
 293 271 293 271 291 269 c 128,-1,99
 289 267 289 267 286 267 c 1,100,-1
 286 267 l 1,84,-1
286 267 m 1024,101,-1
378 8 m 1,102,103
 410 8 410 8 433 31 c 128,-1,104
 456 54 456 54 456 86 c 128,-1,105
 456 118 456 118 433 140.5 c 128,-1,106
 410 163 410 163 378 163 c 128,-1,107
 346 163 346 163 323.5 140.5 c 128,-1,108
 301 118 301 118 301 86 c 128,-1,109
 301 54 301 54 323.5 31 c 128,-1,110
 346 8 346 8 378 8 c 1,111,-1
 378 8 l 1,102,103
378 -14 m 1,112,113
 337 -14 337 -14 308 15 c 128,-1,114
 279 44 279 44 279 85.5 c 128,-1,115
 279 127 279 127 308 156 c 128,-1,116
 337 185 337 185 378.5 185 c 128,-1,117
 420 185 420 185 449 156 c 128,-1,118
 478 127 478 127 478 85.5 c 128,-1,119
 478 44 478 44 449 15 c 128,-1,120
 420 -14 420 -14 378 -14 c 1,121,-1
 378 -14 l 1,122,-1
 378 -14 l 1,112,113
378 -14 m 1024,123,-1
426 67 m 1,124,-1
 367 67 l 1,125,-1
 360 67 l 2,126,127
 357 67 357 67 354.5 69.5 c 128,-1,128
 352 72 352 72 352 75 c 2,129,-1
 352 134 l 2,130,131
 352 137 352 137 354.5 139 c 128,-1,132
 357 141 357 141 360 141 c 2,133,-1
 367 141 l 2,134,135
 370 141 370 141 372.5 139 c 128,-1,136
 375 137 375 137 375 134 c 2,137,-1
 375 89 l 1,138,-1
 426 89 l 2,139,140
 429 89 429 89 431.5 87 c 128,-1,141
 434 85 434 85 434 82 c 2,142,-1
 434 75 l 2,143,144
 434 72 434 72 431.5 69.5 c 128,-1,145
 429 67 429 67 426 67 c 1,146,-1
 426 67 l 1,147,-1
 426 67 l 1,124,-1
426 67 m 1024,148,-1
353 355 m 1,149,-1
 323 380 l 1,150,-1
 323 355 l 1,151,-1
 353 355 l 1,149,-1
382 333 m 1,152,-1
 316 333 l 2,153,154
 309 333 309 333 305 337.5 c 128,-1,155
 301 342 301 342 301 348 c 2,156,-1
 301 400 l 2,157,158
 301 406 301 406 305 410 c 128,-1,159
 309 414 309 414 316 414 c 1,160,-1
 397 348 l 1,161,162
 397 342 397 342 392.5 337.5 c 128,-1,163
 388 333 388 333 382 333 c 1,164,-1
 382 333 l 1,152,-1
382 333 m 1024,165,-1
EndSplineSet
Validated: 5
EndChar

StartChar: uniE61B
Encoding: 58907 58907 27
Width: 512
GlyphClass: 2
Flags: W
LayerCount: 2
Fore
SplineSet
326 414 m 1,0,-1
 455 282 l 1,1,-1
 455 46 l 2,2,3
 455 21 455 21 437.5 4 c 128,-1,4
 420 -13 420 -13 395 -13 c 2,5,-1
 133 -13 l 2,6,7
 108 -13 108 -13 90.5 4 c 128,-1,8
 73 21 73 21 73 46 c 2,9,-1
 73 355 l 2,10,11
 73 379 73 379 90.5 396.5 c 128,-1,12
 108 414 108 414 133 414 c 2,13,-1
 326 414 l 1,0,-1
319 394 m 1,14,-1
 319 281 l 1,15,-1
 430 281 l 1,16,-1
 319 394 l 1,14,-1
436 46 m 1,17,-1
 436 263 l 1,18,-1
 319 263 l 1,19,-1
 301 263 l 1,20,-1
 301 281 l 1,21,-1
 301 395 l 1,22,-1
 133 395 l 2,23,24
 115 395 115 395 103 383 c 128,-1,25
 91 371 91 371 91 355 c 2,26,-1
 91 46 l 2,27,28
 91 29 91 29 103 17 c 128,-1,29
 115 5 115 5 133 5 c 2,30,-1
 395 5 l 2,31,32
 412 5 412 5 424 17 c 128,-1,33
 436 29 436 29 436 46 c 1,34,-1
 436 46 l 1,17,-1
436 46 m 1024,35,-1
165 244 m 1,36,-1
 363 244 l 1,37,-1
 363 230 l 1,38,-1
 165 230 l 1,39,-1
 165 244 l 1,36,-1
165 244 m 1024,40,-1
165 178 m 1,41,-1
 363 178 l 1,42,-1
 363 163 l 1,43,-1
 165 163 l 1,44,-1
 165 178 l 1,41,-1
165 178 m 1024,45,-1
165 119 m 1,46,-1
 363 119 l 1,47,-1
 363 104 l 1,48,-1
 165 104 l 1,49,-1
 165 119 l 1,46,-1
165 119 m 1024,50,-1
EndSplineSet
Validated: 5
EndChar

StartChar: uniE61D
Encoding: 58909 58909 28
Width: 512
GlyphClass: 2
Flags: W
LayerCount: 2
Fore
SplineSet
264 410 m 128,-1,1
 321 410 321 410 369 382 c 128,-1,2
 417 354 417 354 445 305.5 c 128,-1,3
 473 257 473 257 473 200 c 128,-1,4
 473 143 473 143 445 95 c 128,-1,5
 417 47 417 47 369 19 c 128,-1,6
 321 -9 321 -9 264 -9 c 128,-1,7
 207 -9 207 -9 158.5 19 c 128,-1,8
 110 47 110 47 82 95 c 128,-1,9
 54 143 54 143 54 200 c 128,-1,10
 54 257 54 257 82 305.5 c 128,-1,11
 110 354 110 354 158.5 382 c 128,-1,0
 207 410 207 410 264 410 c 128,-1,1
264 17 m 1,12,13
 314 17 314 17 356 41.5 c 128,-1,14
 398 66 398 66 422.5 108 c 128,-1,15
 447 150 447 150 447 200 c 128,-1,16
 447 250 447 250 422.5 292 c 128,-1,17
 398 334 398 334 356 359 c 128,-1,18
 314 384 314 384 264 384 c 128,-1,19
 214 384 214 384 172 359 c 128,-1,20
 130 334 130 334 105 292 c 128,-1,21
 80 250 80 250 80 200 c 128,-1,22
 80 150 80 150 105 108 c 128,-1,23
 130 66 130 66 172 41.5 c 128,-1,24
 214 17 214 17 264 17 c 1,25,-1
 264 17 l 1,12,13
264 17 m 1024,26,-1
375 200 m 1,27,28
 381 200 381 200 384.5 196 c 128,-1,29
 388 192 388 192 388 187 c 128,-1,30
 388 182 388 182 384.5 178 c 128,-1,31
 381 174 381 174 375 174 c 2,32,-1
 264 174 l 2,33,34
 258 174 258 174 254 179 c 0,35,36
 251 182 251 182 251 187 c 1,37,-1
 251 187 l 1,38,-1
 251 318 l 2,39,40
 251 324 251 324 254.5 327.5 c 128,-1,41
 258 331 258 331 263.5 331 c 128,-1,42
 269 331 269 331 273 327.5 c 128,-1,43
 277 324 277 324 277 318 c 2,44,-1
 277 200 l 1,45,-1
 375 200 l 1,46,-1
 375 200 l 1,27,28
375 200 m 1024,47,-1
EndSplineSet
Validated: 5
EndChar

StartChar: uniE61E
Encoding: 58910 58910 29
Width: 512
GlyphClass: 2
Flags: W
LayerCount: 2
Fore
SplineSet
338 51 m 2,0,-1
 338 14 l 1,1,-1
 431 14 l 1,2,-1
 431 -14 l 1,3,-1
 96 -14 l 1,4,-1
 96 14 l 1,5,-1
 189 14 l 1,6,-1
 189 51 l 2,7,8
 189 55 189 55 192 58 c 128,-1,9
 195 61 195 61 199 61 c 2,10,-1
 329 61 l 2,11,12
 333 61 333 61 335.5 58 c 128,-1,13
 338 55 338 55 338 51 c 2,0,-1
450 414 m 2,14,15
 462 414 462 414 470 406 c 128,-1,16
 478 398 478 398 478 386 c 2,17,-1
 478 126 l 2,18,19
 478 114 478 114 470 106 c 128,-1,20
 462 98 462 98 450 98 c 2,21,-1
 78 98 l 2,22,23
 66 98 66 98 58 106 c 128,-1,24
 50 114 50 114 50 126 c 2,25,-1
 50 386 l 2,26,27
 50 398 50 398 58 406 c 128,-1,28
 66 414 66 414 78 414 c 2,29,-1
 450 414 l 2,14,15
450 135 m 2,30,-1
 450 377 l 2,31,32
 450 381 450 381 447.5 383.5 c 128,-1,33
 445 386 445 386 441 386 c 2,34,-1
 87 386 l 2,35,36
 83 386 83 386 80.5 383.5 c 128,-1,37
 78 381 78 381 78 377 c 2,38,-1
 78 135 l 2,39,40
 78 131 78 131 80.5 128.5 c 128,-1,41
 83 126 83 126 87 126 c 2,42,-1
 441 126 l 2,43,44
 445 126 445 126 447.5 128.5 c 128,-1,45
 450 131 450 131 450 135 c 2,30,-1
135 162 m 1,46,-1
 151 162 l 1,47,-1
 151 311 l 1,48,-1
 234 324 l 1,49,-1
 247 319 l 1,50,-1
 258 232 l 1,51,-1
 262 228 l 1,52,-1
 262 365 l 1,53,-1
 346 377 l 1,54,-1
 381 365 l 1,55,-1
 381 162 l 1,56,-1
 393 162 l 1,57,-1
 393 142 l 1,58,-1
 325 142 l 1,59,-1
 325 354 l 1,60,-1
 283 347 l 1,61,-1
 283 142 l 1,62,-1
 214 142 l 1,63,-1
 214 300 l 1,64,-1
 171 294 l 1,65,-1
 171 142 l 1,66,-1
 135 142 l 1,67,-1
 135 162 l 1,68,-1
 135 162 l 1,46,-1
307 313 m 1,69,-1
 307 313 l 1,70,71
 308 313 308 313 312 314 c 0,72,73
 316 314 316 314 317 314 c 2,74,-1
 317 299 l 2,75,76
 314 298 314 298 312 298 c 0,77,78
 311 298 311 298 309.5 298 c 128,-1,79
 308 298 308 298 307 298 c 2,80,-1
 307 313 l 1,69,-1
307 341 m 1,81,-1
 307 341 l 1,82,83
 308 341 308 341 309.5 341 c 128,-1,84
 311 341 311 341 312 341 c 2,85,86
 312 341 312 341 317 342 c 1,87,-1
 317 326 l 2,88,89
 314 326 314 326 312 326 c 0,90,91
 311 326 311 326 307 325 c 1,92,-1
 307 341 l 1,81,-1
307 286 m 1,93,-1
 307 286 l 1,94,95
 308 286 308 286 309.5 286 c 128,-1,96
 311 286 311 286 312 286 c 0,97,98
 315 286 315 286 317 287 c 2,99,-1
 317 271 l 2,100,101
 316 271 316 271 312 271 c 0,102,103
 311 271 311 271 309.5 270.5 c 128,-1,104
 308 270 308 270 307 270 c 2,105,-1
 307 286 l 1,93,-1
307 258 m 1,106,-1
 307 258 l 1,107,108
 308 258 308 258 309.5 258.5 c 128,-1,109
 311 259 311 259 312 259 c 2,110,111
 312 259 312 259 314 259 c 128,-1,112
 316 259 316 259 317 259 c 2,113,-1
 317 243 l 2,114,115
 316 243 316 243 314.5 243 c 128,-1,116
 313 243 313 243 312 243 c 256,117,118
 311 243 311 243 309.5 243 c 128,-1,119
 308 243 308 243 307 243 c 2,120,-1
 307 258 l 1,106,-1
307 231 m 1,121,-1
 307 231 l 1,122,123
 309 231 309 231 312 231 c 0,124,125
 314 231 314 231 317 231 c 2,126,-1
 317 216 l 2,127,128
 316 216 316 216 314.5 216 c 128,-1,129
 313 216 313 216 312 216 c 0,130,131
 311 215 311 215 307 215 c 1,132,-1
 307 231 l 1,121,-1
290 311 m 1,133,-1
 290 311 l 1,134,135
 291 311 291 311 295 312 c 2,136,137
 295 312 295 312 297 312 c 128,-1,138
 299 312 299 312 299 312 c 1,139,-1
 299 297 l 2,140,141
 297 297 297 297 295 296 c 0,142,143
 294 296 294 296 292.5 296 c 128,-1,144
 291 296 291 296 290 296 c 2,145,-1
 290 311 l 1,133,-1
290 338 m 1,146,-1
 290 338 l 1,147,148
 291 339 291 339 295 339 c 0,149,150
 299 340 299 340 299 340 c 1,151,-1
 299 324 l 1,152,153
 299 324 299 324 297 324 c 128,-1,154
 295 324 295 324 295 324 c 2,155,156
 290 323 290 323 290 323 c 1,157,-1
 290 338 l 1,146,-1
290 284 m 1,158,-1
 290 284 l 1,159,160
 291 284 291 284 292.5 284.5 c 128,-1,161
 294 285 294 285 295 285 c 256,162,163
 296 285 296 285 299 285 c 2,164,-1
 299 270 l 2,165,166
 297 270 297 270 295 269 c 0,167,168
 294 269 294 269 292 269 c 128,-1,169
 290 269 290 269 290 269 c 1,170,-1
 290 284 l 1,158,-1
290 257 m 1,171,-1
 290 257 l 1,172,173
 291 257 291 257 292.5 257.5 c 128,-1,174
 294 258 294 258 295 258 c 0,175,176
 297 258 297 258 299 258 c 2,177,-1
 299 242 l 2,178,179
 297 242 297 242 295 242 c 0,180,181
 292 242 292 242 290 242 c 2,182,-1
 290 257 l 1,171,-1
290 230 m 1,183,-1
 290 230 l 1,184,185
 291 230 291 230 292.5 230 c 128,-1,186
 294 230 294 230 295 230 c 0,187,188
 298 231 298 231 299 231 c 2,189,-1
 299 215 l 1,190,191
 299 215 299 215 297 215 c 128,-1,192
 295 215 295 215 295 215 c 2,193,194
 291 215 291 215 290 215 c 2,195,-1
 290 230 l 1,183,-1
307 203 m 1,196,-1
 307 203 l 1,197,198
 308 203 308 203 312 203 c 0,199,200
 313 203 313 203 314.5 203 c 128,-1,201
 316 203 316 203 317 203 c 2,202,-1
 317 188 l 1,203,-1
 312 188 l 1,204,-1
 307 188 l 1,205,-1
 307 203 l 1,196,-1
290 203 m 1,206,-1
 290 203 l 1,207,208
 291 203 291 203 292.5 203 c 128,-1,209
 294 203 294 203 294.5 203 c 128,-1,210
 295 203 295 203 297 203 c 128,-1,211
 299 203 299 203 299 203 c 1,212,-1
 299 188 l 1,213,-1
 295 188 l 1,214,-1
 290 188 l 1,215,-1
 290 203 l 1,206,-1
178 260 m 1,216,-1
 178 260 l 1,217,218
 179 260 179 260 180.5 260 c 128,-1,219
 182 260 182 260 183 260 c 128,-1,220
 184 260 184 260 185.5 260 c 128,-1,221
 187 260 187 260 188 260 c 2,222,-1
 188 245 l 2,223,224
 187 245 187 245 185.5 245 c 128,-1,225
 184 245 184 245 183 244.5 c 128,-1,226
 182 244 182 244 180.5 244 c 128,-1,227
 179 244 179 244 178 244 c 2,228,-1
 178 260 l 1,216,-1
196 261 m 1,229,-1
 196 261 l 1,230,231
 196 261 196 261 198 261.5 c 128,-1,232
 200 262 200 262 200.5 262 c 128,-1,233
 201 262 201 262 203 262 c 128,-1,234
 205 262 205 262 205 262 c 1,235,-1
 205 246 l 2,236,237
 202 246 202 246 200 246 c 0,238,239
 199 246 199 246 197.5 246 c 128,-1,240
 196 246 196 246 196 246 c 1,241,-1
 196 261 l 1,229,-1
196 289 m 1,242,-1
 196 289 l 1,243,244
 196 289 196 289 198 289 c 128,-1,245
 200 289 200 289 200 289 c 2,246,247
 201 289 201 289 202.5 289.5 c 128,-1,248
 204 290 204 290 205 290 c 2,249,-1
 205 274 l 1,250,251
 205 274 205 274 200 274 c 0,252,253
 196 273 196 273 196 273 c 1,254,-1
 196 289 l 1,242,-1
196 234 m 1,255,-1
 196 234 l 1,256,257
 196 234 196 234 197 234 c 128,-1,258
 198 234 198 234 199 234 c 128,-1,259
 200 234 200 234 200 234 c 2,260,261
 201 234 201 234 203 234 c 128,-1,262
 205 234 205 234 205 234 c 1,263,-1
 205 219 l 1,264,265
 205 219 205 219 203 218.5 c 128,-1,266
 201 218 201 218 200 218 c 2,267,268
 200 218 200 218 196 218 c 1,269,-1
 196 234 l 1,255,-1
196 206 m 1,270,-1
 196 206 l 1,271,272
 198 206 198 206 200 206 c 0,273,274
 201 207 201 207 202.5 207 c 128,-1,275
 204 207 204 207 205 207 c 2,276,-1
 205 191 l 1,277,278
 205 191 205 191 203 191 c 128,-1,279
 201 191 201 191 200 191 c 0,280,281
 198 191 198 191 196 191 c 2,282,-1
 196 206 l 1,270,-1
196 179 m 1,283,-1
 196 179 l 1,284,285
 196 179 196 179 198 179 c 128,-1,286
 200 179 200 179 200.5 179 c 128,-1,287
 201 179 201 179 202.5 179 c 128,-1,288
 204 179 204 179 205 179 c 2,289,-1
 205 163 l 1,290,-1
 200 163 l 1,291,-1
 196 163 l 1,292,-1
 196 179 l 1,283,-1
178 287 m 1,293,-1
 178 287 l 1,294,295
 179 287 179 287 180.5 287 c 128,-1,296
 182 287 182 287 183 287 c 0,297,298
 186 288 186 288 188 288 c 2,299,-1
 188 272 l 2,300,301
 187 272 187 272 185.5 272 c 128,-1,302
 184 272 184 272 183 272 c 256,303,304
 182 272 182 272 178 271 c 1,305,-1
 178 287 l 1,293,-1
178 233 m 1,306,-1
 178 233 l 1,307,308
 179 233 179 233 180.5 233 c 128,-1,309
 182 233 182 233 183 233 c 0,310,311
 185 233 185 233 188 233 c 2,312,-1
 188 218 l 2,313,314
 187 218 187 218 185 217.5 c 128,-1,315
 183 217 183 217 182.5 217 c 128,-1,316
 182 217 182 217 180.5 217 c 128,-1,317
 179 217 179 217 178 217 c 2,318,-1
 178 233 l 1,306,-1
178 206 m 1,319,-1
 178 206 l 1,320,321
 181 206 181 206 183 206 c 0,322,323
 186 206 186 206 188 206 c 2,324,-1
 188 190 l 2,325,326
 187 190 187 190 185.5 190 c 128,-1,327
 184 190 184 190 183 190 c 128,-1,328
 182 190 182 190 180.5 190 c 128,-1,329
 179 190 179 190 178 190 c 2,330,-1
 178 206 l 1,319,-1
178 179 m 1,331,332
 182 179 182 179 183 179 c 2,333,334
 183 179 183 179 185 179 c 128,-1,335
 187 179 187 179 188 179 c 2,336,-1
 188 163 l 1,337,-1
 183 163 l 1,338,-1
 178 163 l 1,339,-1
 178 179 l 1,331,332
178 179 m 1024,340,-1
EndSplineSet
Validated: 5
EndChar

StartChar: uniE61F
Encoding: 58911 58911 30
Width: 512
GlyphClass: 2
Flags: W
LayerCount: 2
Fore
SplineSet
281 398 m 2,0,-1
 281 363 l 1,1,-1
 253 363 l 1,2,-1
 253 398 l 2,3,4
 253 404 253 404 257 408 c 128,-1,5
 261 412 261 412 267 412 c 256,6,7
 273 412 273 412 277 408 c 128,-1,8
 281 404 281 404 281 398 c 2,0,-1
452 283 m 2,9,-1
 428 266 l 1,10,-1
 414 289 l 1,11,-1
 438 307 l 2,12,13
 440 309 440 309 446 309 c 0,14,15
 453 308 453 308 456 302 c 256,16,17
 459 296 459 296 458 291 c 128,-1,18
 457 286 457 286 452 283 c 2,9,-1
166 333 m 1,19,-1
 148 364 l 2,20,21
 145 369 145 369 146.5 374 c 128,-1,22
 148 379 148 379 153 382 c 0,23,24
 156 384 156 384 161 384 c 0,25,26
 168 383 168 383 172 377 c 2,27,-1
 191 347 l 1,28,-1
 166 333 l 1,19,-1
387 364 m 2,29,-1
 368 333 l 1,30,-1
 344 347 l 1,31,-1
 362 377 l 2,32,33
 365 382 365 382 370.5 383.5 c 128,-1,34
 376 385 376 385 381.5 382.5 c 128,-1,35
 387 380 387 380 388.5 374.5 c 128,-1,36
 390 369 390 369 387 364 c 2,29,-1
121 289 m 1,37,-1
 107 265 l 1,38,-1
 75 283 l 2,39,40
 69 286 69 286 68 291 c 128,-1,41
 67 296 67 296 70 301 c 0,42,43
 74 309 74 309 84 308 c 0,44,45
 86 308 86 308 89 307 c 2,46,-1
 121 289 l 1,37,-1
404 190 m 2,47,-1
 404 45 l 1,48,-1
 136 45 l 1,49,-1
 136 190 l 2,50,51
 136 241 136 241 175.5 277 c 128,-1,52
 215 313 215 313 270 313 c 128,-1,53
 325 313 325 313 364.5 277 c 128,-1,54
 404 241 404 241 404 190 c 2,47,-1
376 73 m 1,55,-1
 376 196 l 2,56,57
 376 232 376 232 342.5 258.5 c 128,-1,58
 309 285 309 285 270 285 c 128,-1,59
 231 285 231 285 197.5 258.5 c 128,-1,60
 164 232 164 232 164 196 c 2,61,-1
 164 73 l 1,62,-1
 376 73 l 1,63,-1
 376 73 l 1,55,-1
453 17 m 2,64,65
 456 17 456 17 458 15 c 128,-1,66
 460 13 460 13 460 10 c 2,67,-1
 460 -4 l 2,68,69
 460 -7 460 -7 458 -9 c 128,-1,70
 456 -11 456 -11 453 -11 c 2,71,-1
 87 -11 l 2,72,73
 84 -11 84 -11 82 -9 c 128,-1,74
 80 -7 80 -7 80 -4 c 2,75,-1
 80 10 l 2,76,77
 80 13 80 13 82 15 c 128,-1,78
 84 17 84 17 87 17 c 2,79,-1
 453 17 l 2,64,65
323 241 m 1,80,81
 329 239 329 239 331.5 233.5 c 128,-1,82
 334 228 334 228 332 222 c 2,83,-1
 311 144 l 2,84,85
 309 140 309 140 305 137 c 256,86,87
 301 134 301 134 296 134 c 2,88,-1
 240 162 l 1,89,-1
 223 116 l 2,90,91
 223 108 223 108 216 104 c 0,92,93
 212 101 212 101 207 102 c 0,94,95
 201 102 201 102 197 106.5 c 128,-1,96
 193 111 193 111 193 118 c 2,97,-1
 220 181 l 2,98,99
 221 188 221 188 227 192 c 0,100,101
 231 195 231 195 236 194 c 2,102,-1
 286 164 l 1,103,-1
 303 232 l 2,104,105
 305 237 305 237 310 239 c 0,106,107
 316 243 316 243 323 241 c 1,108,-1
 323 241 l 1,80,81
323 241 m 1024,109,-1
EndSplineSet
Validated: 5
EndChar

StartChar: uniE620
Encoding: 58912 58912 31
Width: 512
GlyphClass: 2
Flags: W
LayerCount: 2
Fore
SplineSet
52 285 m 1,0,-1
 52 313 l 1,1,-1
 108 313 l 1,2,-1
 108 285 l 1,3,-1
 52 285 l 1,0,-1
52 87 m 1,4,-1
 52 116 l 1,5,-1
 108 116 l 1,6,-1
 108 87 l 1,7,-1
 52 87 l 1,4,-1
434 412 m 2,8,9
 451 412 451 412 463.5 399.5 c 128,-1,10
 476 387 476 387 476 370 c 2,11,-1
 476 31 l 2,12,13
 476 13 476 13 463.5 0.5 c 128,-1,14
 451 -12 451 -12 434 -12 c 2,15,-1
 108 -12 l 1,16,-1
 108 412 l 1,17,-1
 434 412 l 2,8,9
448 45 m 1,18,-1
 448 356 l 2,19,20
 448 367 448 367 439.5 375.5 c 128,-1,21
 431 384 431 384 419 384 c 2,22,-1
 137 384 l 1,23,-1
 137 16 l 1,24,-1
 419 16 l 2,25,26
 431 16 431 16 439.5 24.5 c 128,-1,27
 448 33 448 33 448 45 c 1,28,-1
 448 45 l 1,18,-1
320 285 m 1,29,-1
 349 285 l 1,30,-1
 320 214 l 1,31,-1
 349 214 l 1,32,-1
 349 200 l 1,33,-1
 306 200 l 1,34,-1
 306 172 l 1,35,-1
 349 172 l 1,36,-1
 349 158 l 1,37,-1
 306 158 l 1,38,-1
 306 115 l 1,39,-1
 278 115 l 1,40,-1
 278 158 l 1,41,-1
 236 158 l 1,42,-1
 236 172 l 1,43,-1
 278 172 l 1,44,-1
 278 200 l 1,45,-1
 236 200 l 1,46,-1
 236 214 l 1,47,-1
 264 214 l 1,48,-1
 236 285 l 1,49,-1
 264 285 l 1,50,-1
 292 214 l 1,51,-1
 320 285 l 1,29,-1
320 285 m 1024,52,-1
EndSplineSet
Validated: 5
EndChar

StartChar: uniE621
Encoding: 58913 58913 32
Width: 512
GlyphClass: 2
Flags: W
LayerCount: 2
Fore
SplineSet
455 76 m 0,0,1
 445 60 445 60 428 50.5 c 128,-1,2
 411 41 411 41 392 41 c 128,-1,3
 373 41 373 41 356 50.5 c 128,-1,4
 339 60 339 60 329 76 c 0,5,6
 328 78 328 78 328 80.5 c 128,-1,7
 328 83 328 83 329 85 c 0,8,9
 339 101 339 101 356 110.5 c 128,-1,10
 373 120 373 120 392 120 c 128,-1,11
 411 120 411 120 428 110.5 c 128,-1,12
 445 101 445 101 455 85 c 0,13,14
 456 83 456 83 456 80.5 c 128,-1,15
 456 78 456 78 455 76 c 0,0,1
376.5 104 m 128,-1,17
 370 98 370 98 370 90 c 0,18,19
 370 88 370 88 371 87 c 128,-1,20
 372 86 372 86 373.5 86 c 128,-1,21
 375 86 375 86 376 87 c 128,-1,22
 377 88 377 88 377 90 c 0,23,24
 377 96 377 96 381.5 100 c 128,-1,25
 386 104 386 104 392 104 c 0,26,27
 393 104 393 104 394 105 c 128,-1,28
 395 106 395 106 395 107 c 128,-1,29
 395 108 395 108 394 109 c 128,-1,30
 393 110 393 110 392 110 c 0,31,16
 383 110 383 110 376.5 104 c 128,-1,17
423 58.5 m 128,-1,33
 437 67 437 67 447 81 c 1,34,35
 436 97 436 97 420 105 c 1,36,37
 424 98 424 98 424 89 c 0,38,39
 424 77 424 77 414.5 68 c 128,-1,40
 405 59 405 59 392 59 c 128,-1,41
 379 59 379 59 369.5 68 c 128,-1,42
 360 77 360 77 360 89 c 0,43,44
 360 98 360 98 364 105 c 1,45,46
 348 97 348 97 337 81 c 1,47,48
 347 67 347 67 361 58.5 c 128,-1,49
 375 50 375 50 392 50 c 128,-1,32
 409 50 409 50 423 58.5 c 128,-1,33
464 82 m 1,50,51
 465 82 465 82 467 82 c 128,-1,52
 469 82 469 82 470 82 c 128,-1,53
 471 82 471 82 472 82 c 128,-1,54
 473 82 473 82 474 82 c 128,-1,55
 475 82 475 82 476 82 c 128,-1,56
 477 82 477 82 477 82 c 1,57,-1
 477 63 l 2,58,59
 477 56 477 56 473.5 52.5 c 128,-1,60
 470 49 470 49 458 49 c 2,61,-1
 438 49 l 1,62,63
 448 55 448 55 456.5 64.5 c 128,-1,64
 465 74 465 74 464 82 c 1,50,51
324 92 m 1,65,66
 306 77 306 77 343 49 c 1,67,-1
 303 56 l 1,68,-1
 343 49 l 1,69,-1
 109 49 l 1,70,-1
 64 49 l 2,71,72
 56 48 56 48 54 53 c 0,73,74
 50 63 50 63 50 63 c 1,75,-1
 50 82 l 1,76,-1
 95 82 l 1,77,-1
 95 320 l 2,78,79
 95 326 95 326 99 330.5 c 128,-1,80
 103 335 103 335 109 335 c 2,81,-1
 412 335 l 2,82,83
 418 335 418 335 422 330.5 c 128,-1,84
 426 326 426 326 426 320 c 2,85,-1
 426 122 l 1,86,87
 418 126 418 126 406 129 c 1,88,-1
 406 314 l 1,89,-1
 114 314 l 1,90,-1
 114 93 l 1,91,92
 317 92 317 92 324 92 c 1,93,-1
 324 92 l 1,65,66
289 72 m 1,94,-1
 289 81 l 1,95,-1
 233 81 l 1,96,-1
 233 72 l 1,97,-1
 289 72 l 1,94,-1
248 203 m 0,98,99
 247 208 247 208 253 208 c 2,100,-1
 299 208 l 2,101,102
 304 208 304 208 304 203 c 256,103,104
 304 198 304 198 299 198 c 2,105,-1
 253 198 l 2,106,107
 248 198 248 198 248 203 c 0,98,99
217 259 m 1,108,109
 218 267 218 267 223.5 273 c 128,-1,110
 229 279 229 279 238 279 c 2,111,-1
 299 279 l 1,112,-1
 334 239 l 1,113,-1
 334 229 l 1,114,-1
 334 158 l 2,115,116
 334 150 334 150 328 143 c 0,117,118
 322 137 322 137 314 137 c 2,119,-1
 309 137 l 1,120,121
 308 130 308 130 302 123.5 c 128,-1,122
 296 117 296 117 288 117 c 2,123,-1
 212 117 l 2,124,125
 204 117 204 117 198 123 c 0,126,127
 192 130 192 130 192 137 c 2,128,-1
 192 239 l 2,129,130
 192 247 192 247 198 253 c 0,131,132
 203 259 203 259 211 259 c 2,133,-1
 217 259 l 1,108,109
288 127 m 1,134,135
 293 127 293 127 295 130 c 0,136,137
 298 134 298 134 299 137 c 2,138,-1
 238 137 l 2,139,140
 230 137 230 137 223.5 143.5 c 128,-1,141
 217 150 217 150 217 158 c 2,142,-1
 217 249 l 1,143,-1
 212 249 l 2,144,145
 208 248 208 248 205 246 c 0,146,147
 202 243 202 243 202 239 c 2,148,-1
 202 137 l 2,149,150
 202 134 202 134 205 130 c 0,151,152
 208 127 208 127 212 127 c 2,153,-1
 288 127 l 1,154,-1
 288 127 l 1,134,135
299 269 m 1,155,-1
 299 254 l 2,156,157
 298 250 298 250 302 244 c 0,158,159
 305 239 305 239 309 239 c 2,160,-1
 324 239 l 1,161,-1
 299 269 l 1,155,-1
288 249 m 0,162,163
 288 258 288 258 288 269 c 1,164,-1
 238 269 l 2,165,166
 234 270 234 270 230.5 266.5 c 128,-1,167
 227 263 227 263 227 259 c 2,168,-1
 227 158 l 2,169,170
 228 154 228 154 231 150.5 c 128,-1,171
 234 147 234 147 238 147 c 2,172,-1
 314 147 l 2,173,174
 318 148 318 148 321 151 c 128,-1,175
 324 154 324 154 324 158 c 2,176,-1
 324 229 l 1,177,-1
 309 229 l 2,178,179
 300 228 300 228 294 234.5 c 128,-1,180
 288 241 288 241 288 249 c 0,162,163
299 183 m 2,181,182
 304 183 304 183 304 178 c 128,-1,183
 304 173 304 173 299 173 c 2,184,-1
 253 173 l 2,185,186
 248 172 248 172 248 178 c 0,187,188
 248 183 248 183 253 183 c 2,189,-1
 299 183 l 2,181,182
EndSplineSet
Validated: 37
EndChar

StartChar: uniE622
Encoding: 58914 58914 33
Width: 512
GlyphClass: 2
Flags: W
LayerCount: 2
Fore
SplineSet
357 64 m 1,0,1
 400 51 400 51 400 28.5 c 128,-1,2
 400 6 400 6 357 -7 c 0,3,4
 318 -19 318 -19 264 -19 c 128,-1,5
 210 -19 210 -19 171 -7 c 0,6,7
 127 6 127 6 127 28.5 c 128,-1,8
 127 51 127 51 171 64 c 0,9,10
 206 75 206 75 254 76 c 1,11,-1
 241 202 l 1,12,13
 203 210 203 210 178.5 240 c 128,-1,14
 154 270 154 270 154 309 c 0,15,16
 154 355 154 355 186 387 c 128,-1,17
 218 419 218 419 263.5 419 c 128,-1,18
 309 419 309 419 341 387 c 128,-1,19
 373 355 373 355 373 309 c 0,20,21
 373 270 373 270 348.5 240 c 128,-1,22
 324 210 324 210 287 202 c 1,23,-1
 273 76 l 1,24,25
 322 75 322 75 357 64 c 1,26,-1
 357 64 l 1,0,1
204 339.5 m 128,-1,28
 204 327 204 327 213 318 c 128,-1,29
 222 309 222 309 234.5 309 c 128,-1,30
 247 309 247 309 256 318 c 128,-1,31
 265 327 265 327 265 339.5 c 128,-1,32
 265 352 265 352 256 361 c 128,-1,33
 247 370 247 370 234.5 370 c 128,-1,34
 222 370 222 370 213 361 c 128,-1,27
 204 352 204 352 204 339.5 c 128,-1,28
145 29 m 1,35,36
 145 27 145 27 147 24 c 128,-1,37
 149 21 149 21 156.5 17 c 128,-1,38
 164 13 164 13 176 10 c 0,39,40
 212 -1 212 -1 262 -1 c 1,41,-1
 256 59 l 1,42,43
 209 58 209 58 176 48 c 0,44,45
 164 44 164 44 156.5 40 c 128,-1,46
 149 36 149 36 147 33.5 c 128,-1,47
 145 31 145 31 145 29 c 1,48,-1
 145 29 l 1,35,36
352 10 m 1,49,50
 363 13 363 13 370.5 17 c 128,-1,51
 378 21 378 21 380.5 24 c 128,-1,52
 383 27 383 27 383 29 c 128,-1,53
 383 31 383 31 380.5 33.5 c 128,-1,54
 378 36 378 36 370.5 40 c 128,-1,55
 363 44 363 44 352 48 c 0,56,57
 319 58 319 58 272 59 c 1,58,-1
 265 -1 l 1,59,60
 316 -1 316 -1 352 10 c 1,61,-1
 352 10 l 1,49,50
352 10 m 1024,62,-1
EndSplineSet
Validated: 5
EndChar

StartChar: uniE623
Encoding: 58915 58915 34
Width: 512
GlyphClass: 2
Flags: W
LayerCount: 2
Fore
SplineSet
212 302 m 1,0,-1
 336 207 l 1,1,-1
 212 126 l 1,2,-1
 212 302 l 1,3,-1
 212 302 l 1,0,-1
455 133 m 0,4,5
 452 126 452 126 448 119 c 1,6,7
 464 97 464 97 464 70 c 0,8,9
 464 35 464 35 440 10.5 c 128,-1,10
 416 -14 416 -14 381 -14 c 0,11,12
 345 -14 345 -14 320 13 c 1,13,14
 292 5 292 5 263 5 c 0,15,16
 220 5 220 5 182 22 c 0,17,18
 144 37 144 37 115.5 66 c 128,-1,19
 87 95 87 95 71 133 c 0,20,21
 54 171 54 171 54 213.5 c 128,-1,22
 54 256 54 256 71 295 c 0,23,24
 87 332 87 332 115.5 361 c 128,-1,25
 144 390 144 390 182 406 c 256,26,27
 220 422 220 422 262.5 422 c 128,-1,28
 305 422 305 422 344 406 c 0,29,30
 382 390 382 390 410.5 361 c 128,-1,31
 439 332 439 332 455 295 c 0,32,33
 471 256 471 256 471 213.5 c 128,-1,34
 471 171 471 171 455 133 c 0,4,5
449 70 m 128,-1,36
 449 98 449 98 429 117.5 c 128,-1,37
 409 137 409 137 381 137 c 0,38,39
 364 137 364 137 349.5 129.5 c 128,-1,40
 335 122 335 122 326 109 c 1,41,-1
 339 109 l 2,42,43
 342 109 342 109 344.5 106.5 c 128,-1,44
 347 104 347 104 347 101 c 128,-1,45
 347 98 347 98 344.5 95.5 c 128,-1,46
 342 93 342 93 339 93 c 2,47,-1
 305 93 l 2,48,49
 302 93 302 93 299.5 95.5 c 128,-1,50
 297 98 297 98 297 101 c 2,51,-1
 297 132 l 2,52,53
 297 135 297 135 299.5 137.5 c 128,-1,54
 302 140 302 140 305.5 140 c 128,-1,55
 309 140 309 140 311 137.5 c 128,-1,56
 313 135 313 135 313 132 c 2,57,-1
 313 118 l 1,58,59
 325 134 325 134 342.5 143.5 c 128,-1,60
 360 153 360 153 381 153 c 0,61,62
 412 153 412 153 436 132 c 1,63,64
 437 136 437 136 439 139 c 0,65,66
 454 175 454 175 454 214 c 128,-1,67
 454 253 454 253 439 288 c 0,68,69
 424 322 424 322 397.5 348.5 c 128,-1,70
 371 375 371 375 337 390 c 0,71,72
 302 405 302 405 263 405 c 128,-1,73
 224 405 224 405 189 390 c 256,74,75
 154 375 154 375 127.5 348.5 c 128,-1,76
 101 322 101 322 87 288 c 0,77,78
 72 253 72 253 72 214 c 128,-1,79
 72 175 72 175 87 139 c 0,80,81
 101 105 101 105 127.5 78.5 c 128,-1,82
 154 52 154 52 189 38 c 0,83,84
 224 23 224 23 263 23 c 0,85,86
 286 23 286 23 309 28 c 1,87,88
 304 37 304 37 301 47 c 1,89,90
 301 47 301 47 301 47 c 129,-1,91
 301 47 301 47 301 47 c 1,92,93
 300 48 300 48 300 48 c 2,94,95
 300 49 300 49 300 50 c 0,96,97
 300 53 300 53 302.5 55.5 c 128,-1,98
 305 58 305 58 308 58 c 0,99,100
 313 58 313 58 315 53 c 1,101,-1
 315 53 l 1,102,103
 321 31 321 31 339.5 16.5 c 128,-1,104
 358 2 358 2 381 2 c 0,105,106
 409 2 409 2 429 22 c 128,-1,35
 449 42 449 42 449 70 c 128,-1,36
415 71 m 2,107,108
 418 71 418 71 420.5 68.5 c 128,-1,109
 423 66 423 66 423 63 c 128,-1,110
 423 60 423 60 420.5 57.5 c 128,-1,111
 418 55 418 55 415 55 c 2,112,-1
 381 55 l 2,113,114
 378 55 378 55 375.5 57.5 c 128,-1,115
 373 60 373 60 373 63 c 2,116,-1
 373 110 l 2,117,118
 373 113 373 113 375.5 115.5 c 128,-1,119
 378 118 378 118 381 118 c 128,-1,120
 384 118 384 118 386.5 115.5 c 128,-1,121
 389 113 389 113 389 110 c 2,122,-1
 389 71 l 1,123,-1
 415 71 l 2,107,108
EndSplineSet
Validated: 5
EndChar

StartChar: uniE624
Encoding: 58916 58916 35
Width: 512
GlyphClass: 2
Flags: W
LayerCount: 2
Fore
SplineSet
264 415 m 1,0,-1
 264 415 l 1,1,2
 322 415 322 415 371.5 386.5 c 128,-1,3
 421 358 421 358 450 308.5 c 128,-1,4
 479 259 479 259 479 200.5 c 128,-1,5
 479 142 479 142 450 92 c 128,-1,6
 421 42 421 42 371.5 13.5 c 128,-1,7
 322 -15 322 -15 263.5 -15 c 128,-1,8
 205 -15 205 -15 155.5 13.5 c 128,-1,9
 106 42 106 42 77.5 92 c 128,-1,10
 49 142 49 142 49 200.5 c 128,-1,11
 49 259 49 259 77.5 308.5 c 128,-1,12
 106 358 106 358 155.5 386.5 c 128,-1,13
 205 415 205 415 264 415 c 1,0,-1
264 17 m 1,14,-1
 264 17 l 1,15,-1
 264 383 l 1,16,17
 214 383 214 383 172 358.5 c 128,-1,18
 130 334 130 334 105.5 292 c 128,-1,19
 81 250 81 250 81 200 c 128,-1,20
 81 150 81 150 105.5 108 c 128,-1,21
 130 66 130 66 172 41.5 c 128,-1,22
 214 17 214 17 264 17 c 1,23,-1
 264 17 l 1,14,-1
264 17 m 1024,24,-1
EndSplineSet
Validated: 5
EndChar

StartChar: uniE625
Encoding: 58917 58917 36
Width: 512
GlyphClass: 2
Flags: W
LayerCount: 2
Fore
SplineSet
160 209 m 1,0,-1
 160 241 l 1,1,-1
 330 241 l 1,2,-1
 330 209 l 1,3,-1
 160 209 l 1,0,-1
160 282 m 1,4,-1
 160 313 l 1,5,-1
 330 313 l 1,6,-1
 330 282 l 1,7,-1
 160 282 l 1,4,-1
160 137 m 1,8,-1
 160 168 l 1,9,-1
 257 168 l 1,10,-1
 257 137 l 1,11,-1
 160 137 l 1,8,-1
468 111 m 1,12,13
 457 101 457 101 453 90.5 c 128,-1,14
 449 80 449 80 451 71.5 c 128,-1,15
 453 63 453 63 456.5 56.5 c 128,-1,16
 460 50 460 50 464 46 c 2,17,-1
 467 43 l 2,18,19
 467 42 467 42 453 18 c 1,20,21
 438 22 438 22 427 20 c 128,-1,22
 416 18 416 18 409.5 12 c 128,-1,23
 403 6 403 6 399 -0.5 c 128,-1,24
 395 -7 395 -7 394 -12 c 2,25,-1
 393 -17 l 1,26,-1
 363 -17 l 1,27,28
 359 -2 359 -2 351 7 c 128,-1,29
 343 16 343 16 335 18 c 128,-1,30
 327 20 327 20 319.5 20 c 128,-1,31
 312 20 312 20 307 19 c 2,32,-1
 303 17 l 1,33,-1
 287 43 l 1,34,35
 298 54 298 54 302 65 c 128,-1,36
 306 76 306 76 304.5 83.5 c 128,-1,37
 303 91 303 91 298.5 98 c 128,-1,38
 294 105 294 105 291 107.5 c 128,-1,39
 288 110 288 110 287 110 c 1,40,41
 287 111 287 111 302 136 c 1,42,43
 318 133 318 133 329 134.5 c 128,-1,44
 340 136 340 136 346.5 142 c 128,-1,45
 353 148 353 148 356.5 154.5 c 128,-1,46
 360 161 360 161 362 166 c 2,47,-1
 363 171 l 1,48,-1
 392 171 l 1,49,50
 395 157 395 157 402.5 148.5 c 128,-1,51
 410 140 410 140 418 137.5 c 128,-1,52
 426 135 426 135 434 134.5 c 128,-1,53
 442 134 442 134 448 135 c 2,54,-1
 453 136 l 1,55,56
 453 136 453 136 468 111 c 1,12,13
377 28 m 1,57,58
 397 28 397 28 411.5 42.5 c 128,-1,59
 426 57 426 57 426 77 c 128,-1,60
 426 97 426 97 411.5 111.5 c 128,-1,61
 397 126 397 126 377 126 c 128,-1,62
 357 126 357 126 342.5 111.5 c 128,-1,63
 328 97 328 97 328 77 c 128,-1,64
 328 57 328 57 342.5 42.5 c 128,-1,65
 357 28 357 28 377 28 c 1,66,-1
 377 28 l 1,57,58
88 55 m 1,67,68
 88 42 88 42 88 35 c 128,-1,69
 88 28 88 28 90 21.5 c 128,-1,70
 92 15 92 15 93.5 13 c 128,-1,71
 95 11 95 11 100.5 9 c 128,-1,72
 106 7 106 7 110.5 7 c 128,-1,73
 115 7 115 7 125 6 c 2,74,-1
 272 6 l 1,75,-1
 272 -17 l 1,76,-1
 96 -17 l 2,77,78
 81 -17 81 -17 70.5 -6 c 128,-1,79
 60 5 60 5 60 19 c 2,80,-1
 60 381 l 2,81,82
 60 396 60 396 70.5 406.5 c 128,-1,83
 81 417 81 417 96 417 c 2,84,-1
 395 417 l 2,85,86
 410 417 410 417 421 406.5 c 128,-1,87
 432 396 432 396 432 381 c 2,88,-1
 432 191 l 1,89,-1
 404 191 l 1,90,-1
 404 361 l 2,91,92
 403 382 403 382 399 388 c 128,-1,93
 395 394 395 394 379 394 c 2,94,-1
 109 394 l 2,95,96
 93 394 93 394 90.5 390.5 c 128,-1,97
 88 387 88 387 88 367 c 2,98,-1
 88 55 l 1,99,-1
 88 55 l 1,67,68
EndSplineSet
Validated: 37
EndChar

StartChar: uniE626
Encoding: 58918 58918 37
Width: 512
GlyphClass: 2
Flags: W
LayerCount: 2
Fore
SplineSet
122 325 m 1,0,-1
 122 346 l 1,1,-1
 331 346 l 1,2,-1
 331 325 l 1,3,-1
 122 325 l 1,0,-1
122 95 m 1,4,-1
 266 95 l 1,5,6
 267 84 267 84 268 74 c 1,7,-1
 122 74 l 1,8,-1
 122 95 l 1,9,-1
 122 95 l 1,4,-1
230 32 m 1,10,11
 241 22 241 22 244.5 19 c 128,-1,12
 248 16 248 16 255 7 c 1,13,-1
 80 7 l 2,14,15
 71 7 71 7 65 13 c 128,-1,16
 59 19 59 19 59 28 c 2,17,-1
 59 392 l 2,18,19
 59 401 59 401 65 407 c 128,-1,20
 71 413 71 413 80 413 c 2,21,-1
 373 413 l 2,22,23
 382 413 382 413 388 407 c 128,-1,24
 394 401 394 401 394 392 c 2,25,-1
 394 272 l 2,26,27
 393 272 393 272 391.5 272.5 c 128,-1,28
 390 273 390 273 389 273 c 0,29,30
 382 273 382 273 373 272 c 1,31,-1
 373 388 l 1,32,-1
 80 388 l 1,33,-1
 80 32 l 1,34,-1
 230 32 l 1,35,-1
 230 32 l 1,10,11
122 262 m 1,36,-1
 122 283 l 1,37,-1
 331 283 l 1,38,-1
 331 263 l 2,39,40
 331 262 331 262 330.5 262 c 128,-1,41
 330 262 330 262 330 262 c 1,42,-1
 122 262 l 1,43,-1
 122 262 l 1,36,-1
122 220 m 1,44,-1
 315 220 l 1,45,46
 306 211 306 211 298 199 c 1,47,-1
 122 199 l 1,48,-1
 122 220 l 1,49,-1
 122 220 l 1,44,-1
122 136 m 1,50,-1
 122 157 l 1,51,-1
 276 157 l 1,52,53
 272 146 272 146 270 136 c 1,54,-1
 122 136 l 1,55,-1
 122 136 l 1,50,-1
383 256 m 1,56,57
 386 256 386 256 407 220.5 c 128,-1,58
 428 185 428 185 448.5 139.5 c 128,-1,59
 469 94 469 94 469 73 c 0,60,61
 469 38 469 38 444 13 c 128,-1,62
 419 -12 419 -12 383.5 -12 c 128,-1,63
 348 -12 348 -12 323 13 c 128,-1,64
 298 38 298 38 298 73 c 0,65,66
 298 94 298 94 318 139.5 c 128,-1,67
 338 185 338 185 359 220.5 c 128,-1,68
 380 256 380 256 383 256 c 1,69,-1
 383 256 l 1,56,57
345 21 m 0,70,71
 346 25 346 25 343 26 c 0,72,73
 333 28 333 28 325.5 44 c 128,-1,74
 318 60 318 60 318 74 c 0,75,76
 318 78 318 78 314.5 78 c 128,-1,77
 311 78 311 78 311 74 c 0,78,79
 311 58 311 58 319.5 40 c 128,-1,80
 328 22 328 22 341 19 c 0,81,82
 342 19 342 19 342 19 c 2,83,84
 345 19 345 19 345 21 c 0,70,71
359 5 m 1,85,86
 364 5 364 5 367 8 c 128,-1,87
 370 11 370 11 370 15.5 c 128,-1,88
 370 20 370 20 367 23.5 c 128,-1,89
 364 27 364 27 359.5 27 c 128,-1,90
 355 27 355 27 352 23.5 c 128,-1,91
 349 20 349 20 349 15.5 c 128,-1,92
 349 11 349 11 352 8 c 128,-1,93
 355 5 355 5 359 5 c 1,94,-1
 359 5 l 1,85,86
EndSplineSet
Validated: 5
EndChar

StartChar: uniE627
Encoding: 58919 58919 38
Width: 512
GlyphClass: 2
Flags: W
LayerCount: 2
Fore
SplineSet
468 254 m 0,0,1
 469 246 469 246 469 240 c 0,2,3
 469 236 469 236 469 231 c 0,4,5
 465 191 465 191 435.5 164 c 128,-1,6
 406 137 406 137 366 137 c 0,7,8
 337 137 337 137 313 152 c 1,9,10
 283 137 283 137 250 137 c 0,11,12
 218 137 218 137 190 151 c 1,13,14
 169 137 169 137 143 137 c 0,15,16
 108 137 108 137 83.5 161.5 c 128,-1,17
 59 186 59 186 59 221 c 0,18,19
 59 249 59 249 75 271 c 128,-1,20
 91 293 91 293 117 302 c 1,21,22
 127 349 127 349 164 379.5 c 128,-1,23
 201 410 201 410 250 410 c 0,24,25
 261 410 261 410 274 407 c 0,26,27
 287 405 287 405 299 401 c 0,28,29
 316 394 316 394 333 381 c 0,30,31
 345 372 345 372 352 363 c 0,32,33
 362 353 362 353 368 342 c 1,34,35
 395 342 395 342 417.5 328.5 c 128,-1,36
 440 315 440 315 454 293 c 0,37,38
 461 281 461 281 465 268 c 0,39,40
 467 260 467 260 468 254 c 0,0,1
440 232 m 0,41,42
 441 237 441 237 441 240 c 0,43,44
 441 244 441 244 439 253 c 2,45,46
 439 253 439 253 439 254 c 128,-1,47
 439 255 439 255 439 256 c 0,48,49
 436 266 436 266 431 276 c 0,50,51
 421 293 421 293 404 303.5 c 128,-1,52
 387 314 387 314 366 314 c 0,53,54
 359 314 359 314 349 312 c 0,55,56
 336 309 336 309 326 302 c 0,57,58
 321 298 321 298 318 296 c 0,59,60
 314 292 314 292 308 292.5 c 128,-1,61
 302 293 302 293 298 297.5 c 128,-1,62
 294 302 294 302 294.5 308 c 128,-1,63
 295 314 295 314 300 318 c 256,64,65
 305 322 305 322 313 327 c 0,66,67
 314 328 314 328 316.5 329.5 c 128,-1,68
 319 331 319 331 320 331 c 0,69,70
 329 335 329 335 329 335 c 2,71,72
 334 337 334 337 337 338 c 1,73,74
 331 345 331 345 322 353 c 0,75,76
 304 369 304 369 283 376 c 0,77,78
 271 380 271 380 259 381 c 0,79,80
 253 381 253 381 250 381 c 0,81,82
 215 381 215 381 186.5 360 c 128,-1,83
 158 339 158 339 147 306 c 1,84,85
 182 304 182 304 205 279 c 0,86,87
 209 274 209 274 209 268.5 c 128,-1,88
 209 263 209 263 204.5 259 c 128,-1,89
 200 255 200 255 194 255 c 128,-1,90
 188 255 188 255 184 259 c 0,91,92
 168 277 168 277 143 277 c 0,93,94
 120 277 120 277 103.5 261 c 128,-1,95
 87 245 87 245 87 221.5 c 128,-1,96
 87 198 87 198 103.5 181.5 c 128,-1,97
 120 165 120 165 143 165 c 0,98,99
 163 165 163 165 178 177 c 0,100,101
 180 179 180 179 184 180 c 0,102,103
 191 183 191 183 197 179 c 0,104,105
 222 165 222 165 250 165 c 0,106,107
 277 165 277 165 301 178 c 1,108,109
 301 178 301 178 301 178 c 1,110,111
 304 183 304 183 310 183.5 c 128,-1,112
 316 184 316 184 321 181 c 0,113,114
 341 165 341 165 366 165 c 0,115,116
 395 165 395 165 416 184.5 c 128,-1,117
 437 204 437 204 440 232 c 0,41,42
136 32 m 1,118,119
 136 28 136 28 134 25 c 128,-1,120
 132 22 132 22 128.5 22 c 128,-1,121
 125 22 125 22 122.5 25 c 128,-1,122
 120 28 120 28 120 32 c 2,123,-1
 120 102 l 2,124,125
 120 106 120 106 122.5 108.5 c 128,-1,126
 125 111 125 111 128.5 111 c 128,-1,127
 132 111 132 111 134 108.5 c 128,-1,128
 136 106 136 106 136 102 c 2,129,-1
 136 32 l 1,130,-1
 136 32 l 1,118,119
184 22 m 2,131,132
 184 18 184 18 181.5 15.5 c 128,-1,133
 179 13 179 13 176 13 c 128,-1,134
 173 13 173 13 170.5 15.5 c 128,-1,135
 168 18 168 18 168 22 c 2,136,-1
 168 92 l 2,137,138
 168 96 168 96 170.5 98.5 c 128,-1,139
 173 101 173 101 176 101 c 128,-1,140
 179 101 179 101 181.5 98.5 c 128,-1,141
 184 96 184 96 184 92 c 2,142,-1
 184 22 l 2,131,132
232 10 m 1,143,144
 232 7 232 7 229.5 4 c 128,-1,145
 227 1 227 1 224 1 c 128,-1,146
 221 1 221 1 218.5 3.5 c 128,-1,147
 216 6 216 6 216 10 c 2,148,-1
 216 81 l 2,149,150
 216 85 216 85 218.5 87.5 c 128,-1,151
 221 90 221 90 224 90 c 128,-1,152
 227 90 227 90 229.5 87.5 c 128,-1,153
 232 85 232 85 232 81 c 2,154,-1
 232 10 l 1,155,-1
 232 10 l 1,143,144
280 0 m 1,156,157
 280 -4 280 -4 277.5 -6.5 c 128,-1,158
 275 -9 275 -9 272 -9 c 128,-1,159
 269 -9 269 -9 266.5 -6.5 c 128,-1,160
 264 -4 264 -4 264 0 c 2,161,-1
 264 70 l 2,162,163
 264 74 264 74 266.5 76.5 c 128,-1,164
 269 79 269 79 272 79 c 128,-1,165
 275 79 275 79 277.5 76.5 c 128,-1,166
 280 74 280 74 280 70 c 2,167,-1
 280 0 l 1,168,-1
 280 0 l 1,156,157
328 10 m 1,169,170
 328 7 328 7 325.5 4 c 128,-1,171
 323 1 323 1 320 1 c 128,-1,172
 317 1 317 1 314.5 3.5 c 128,-1,173
 312 6 312 6 312 10 c 2,174,-1
 312 81 l 2,175,176
 312 85 312 85 314.5 87.5 c 128,-1,177
 317 90 317 90 320 90 c 128,-1,178
 323 90 323 90 325.5 87.5 c 128,-1,179
 328 85 328 85 328 81 c 2,180,-1
 328 10 l 1,181,-1
 328 10 l 1,169,170
376 22 m 2,182,183
 376 18 376 18 373.5 15.5 c 128,-1,184
 371 13 371 13 367.5 13 c 128,-1,185
 364 13 364 13 362 15.5 c 128,-1,186
 360 18 360 18 360 22 c 2,187,-1
 360 92 l 2,188,189
 360 96 360 96 362 98.5 c 128,-1,190
 364 101 364 101 367.5 101 c 128,-1,191
 371 101 371 101 373.5 98.5 c 128,-1,192
 376 96 376 96 376 92 c 2,193,-1
 376 22 l 2,182,183
424 32 m 1,194,195
 424 28 424 28 421.5 25 c 128,-1,196
 419 22 419 22 415.5 22 c 128,-1,197
 412 22 412 22 410 25 c 128,-1,198
 408 28 408 28 408 32 c 2,199,-1
 408 102 l 2,200,201
 408 106 408 106 410 108.5 c 128,-1,202
 412 111 412 111 415.5 111 c 128,-1,203
 419 111 419 111 421.5 108.5 c 128,-1,204
 424 106 424 106 424 102 c 2,205,-1
 424 32 l 1,206,-1
 424 32 l 1,194,195
EndSplineSet
Validated: 5
EndChar

StartChar: uniE628
Encoding: 58920 58920 39
Width: 512
GlyphClass: 2
Flags: W
LayerCount: 2
Fore
SplineSet
465 8 m 1,0,1
 468 8 468 8 470.5 5.5 c 128,-1,2
 473 3 473 3 473 -0.5 c 128,-1,3
 473 -4 473 -4 470.5 -6.5 c 128,-1,4
 468 -9 468 -9 465 -9 c 2,5,-1
 444 -9 l 1,6,-1
 359 -9 l 1,7,-1
 317 -9 l 1,8,-1
 232 -9 l 1,9,-1
 190 -9 l 1,10,-1
 105 -9 l 1,11,-1
 63 -9 l 2,12,13
 59 -9 59 -9 56.5 -6.5 c 128,-1,14
 54 -4 54 -4 54 -1 c 2,15,-1
 54 401 l 2,16,17
 54 405 54 405 56.5 407.5 c 128,-1,18
 59 410 59 410 63 410 c 128,-1,19
 67 410 67 410 69.5 407.5 c 128,-1,20
 72 405 72 405 72 401 c 2,21,-1
 72 8 l 1,22,-1
 97 8 l 1,23,-1
 97 200 l 2,24,25
 97 204 97 204 99.5 206.5 c 128,-1,26
 102 209 102 209 105 209 c 2,27,-1
 190 209 l 2,28,29
 193 209 193 209 196 206.5 c 128,-1,30
 199 204 199 204 199 200 c 2,31,-1
 199 8 l 1,32,-1
 223 8 l 1,33,-1
 223 359 l 2,34,35
 223 362 223 362 225.5 364.5 c 128,-1,36
 228 367 228 367 232 367 c 2,37,-1
 317 367 l 2,38,39
 320 367 320 367 322.5 364.5 c 128,-1,40
 325 362 325 362 325 359 c 2,41,-1
 325 8 l 1,42,-1
 350 8 l 1,43,-1
 350 253 l 2,44,45
 350 257 350 257 352.5 259.5 c 128,-1,46
 355 262 355 262 359 262 c 2,47,-1
 443 262 l 2,48,49
 447 262 447 262 449.5 259.5 c 128,-1,50
 452 257 452 257 452 253 c 2,51,-1
 452 8 l 1,52,-1
 465 8 l 1,53,-1
 465 8 l 1,0,1
181 8 m 1,54,-1
 181 191 l 1,55,-1
 114 191 l 1,56,-1
 114 8 l 1,57,-1
 181 8 l 1,54,-1
308 8 m 1,58,-1
 308 350 l 1,59,-1
 241 350 l 1,60,-1
 241 8 l 1,61,-1
 308 8 l 1,58,-1
435 8 m 1,62,-1
 435 244 l 1,63,-1
 368 244 l 1,64,-1
 368 8 l 1,65,-1
 435 8 l 1,62,-1
435 8 m 1024,66,-1
EndSplineSet
Validated: 5
EndChar

StartChar: uniE629
Encoding: 58921 58921 40
Width: 512
GlyphClass: 2
Flags: W
LayerCount: 2
Fore
SplineSet
456 138 m 1,0,1
 450 136 450 136 441.5 136 c 128,-1,2
 433 136 433 136 432 140 c 0,3,4
 430 143 430 143 430 153 c 0,5,6
 429 231 429 231 430 269 c 0,7,8
 431 297 431 297 407 310 c 0,9,10
 352 340 352 340 288 379 c 0,11,12
 264 393 264 393 241 379 c 0,13,14
 199 354 199 354 120 309 c 0,15,16
 98 297 98 297 98 271 c 0,17,18
 99 202 99 202 98 130 c 0,19,20
 98 105 98 105 120 92 c 0,21,22
 189 53 189 53 243 21 c 0,23,24
 264 9 264 9 285 21 c 0,25,26
 295 27 295 27 342.5 54.5 c 128,-1,27
 390 82 390 82 415 97 c 0,28,29
 419 99 419 99 423.5 94 c 128,-1,30
 428 89 428 89 430 83.5 c 128,-1,31
 432 78 432 78 430 75 c 0,32,33
 358 32 358 32 287 -7 c 0,34,35
 263 -20 263 -20 235 -4 c 0,36,37
 158 40 158 40 101 73 c 0,38,39
 72 90 72 90 72 124 c 0,40,41
 72 186 72 186 72 276 c 0,42,43
 72 311 72 311 104 330 c 0,44,45
 180 373 180 373 233 404 c 0,46,47
 264 423 264 423 297 404 c 0,48,49
 351 372 351 372 423 331 c 0,50,51
 456 312 456 312 456 274 c 0,52,53
 456 261 456 261 456 138 c 1,54,-1
 456 138 l 1,0,1
456 138 m 1024,55,-1
282 154 m 1,56,-1
 334 154 l 1,57,58
 335 145 335 145 336 132 c 1,59,-1
 281 132 l 1,60,-1
 281 87 l 1,61,-1
 253 87 l 1,62,63
 252 116 252 116 251 131 c 1,64,-1
 196 131 l 1,65,-1
 196 153 l 1,66,-1
 250 153 l 1,67,-1
 250 185 l 1,68,-1
 196 185 l 1,69,70
 196 194 196 194 195 207 c 1,71,-1
 244 207 l 1,72,73
 239 217 239 217 218 253 c 128,-1,74
 197 289 197 289 185 309 c 1,75,76
 199 313 199 313 209 310 c 128,-1,77
 219 307 219 307 226 294 c 0,78,79
 231 282 231 282 237.5 269.5 c 128,-1,80
 244 257 244 257 253.5 240 c 128,-1,81
 263 223 263 223 267 215 c 1,82,83
 271 223 271 223 280 239 c 128,-1,84
 289 255 289 255 295.5 267 c 128,-1,85
 302 279 302 279 307 291 c 0,86,87
 314 305 314 305 323 309 c 128,-1,88
 332 313 332 313 347 308 c 1,89,90
 315 253 315 253 289 209 c 1,91,-1
 334 209 l 1,92,93
 335 193 335 193 336 186 c 1,94,-1
 282 186 l 1,95,-1
 282 154 l 1,96,-1
 282 154 l 1,56,-1
282 154 m 1024,97,-1
456 138.5 m 128,-1,99
 456 133 456 133 452 129 c 128,-1,100
 448 125 448 125 442.5 125 c 128,-1,101
 437 125 437 125 433.5 129 c 128,-1,102
 430 133 430 133 430 138.5 c 128,-1,103
 430 144 430 144 433.5 148 c 128,-1,104
 437 152 437 152 442.5 152 c 128,-1,105
 448 152 448 152 452 148 c 128,-1,98
 456 144 456 144 456 138.5 c 128,-1,99
456 139 m 1024,106,-1
436 86 m 128,-1,108
 436 91 436 91 432 95 c 128,-1,109
 428 99 428 99 423 99 c 128,-1,110
 418 99 418 99 414 95 c 128,-1,111
 410 91 410 91 410 86 c 128,-1,112
 410 81 410 81 414 77 c 128,-1,113
 418 73 418 73 423 73 c 128,-1,114
 428 73 428 73 432 77 c 128,-1,107
 436 81 436 81 436 86 c 128,-1,108
436 86 m 1024,115,-1
430 185 m 1,116,-1
 456 185 l 1,117,-1
 456 138 l 1,118,-1
 430 138 l 1,119,-1
 430 185 l 1,116,-1
430 185 m 1024,120,-1
EndSplineSet
Validated: 37
EndChar

StartChar: uniE62A
Encoding: 58922 58922 41
Width: 512
GlyphClass: 2
Flags: W
LayerCount: 2
Fore
SplineSet
164 411 m 1,0,-1
 475 411 l 1,1,-1
 475 100 l 1,2,-1
 364 -11 l 1,3,-1
 364 -11 l 1,4,-1
 53 -11 l 1,5,-1
 53 300 l 1,6,-1
 164 411 l 1,0,-1
164 380 m 1,7,-1
 84 300 l 1,8,-1
 164 300 l 1,9,-1
 164 380 l 1,7,-1
349 300 m 1,10,-1
 438 389 l 1,11,-1
 186 389 l 1,12,-1
 186 300 l 1,13,-1
 349 300 l 1,10,-1
364 20 m 1,14,-1
 444 100 l 1,15,-1
 364 100 l 1,16,-1
 364 20 l 1,14,-1
453 122 m 1,17,-1
 453 373 l 1,18,-1
 364 284 l 1,19,-1
 364 122 l 1,20,-1
 453 122 l 1,17,-1
453 122 m 1024,21,-1
EndSplineSet
Validated: 5
EndChar

StartChar: uniE62B
Encoding: 58923 58923 42
Width: 512
GlyphClass: 2
Flags: W
LayerCount: 2
Fore
SplineSet
466 256 m 1,0,-1
 466 256 l 1,1,-1
 434 262 l 1,2,3
 427 253 427 253 418 246 c 1,4,-1
 425 215 l 1,5,-1
 401 205 l 1,6,-1
 384 232 l 1,7,8
 373 230 373 230 361 232 c 1,9,-1
 344 205 l 1,10,-1
 319 215 l 1,11,-1
 327 246 l 1,12,13
 317 253 317 253 310 263 c 1,14,-1
 279 256 l 1,15,-1
 269 281 l 1,16,-1
 296 297 l 1,17,18
 294 308 294 308 296 320 c 1,19,-1
 269 338 l 1,20,-1
 279 362 l 1,21,-1
 310 355 l 1,22,23
 318 366 318 366 327 371 c 1,24,-1
 320 403 l 1,25,-1
 345 413 l 1,26,-1
 362 386 l 1,27,28
 373 387 373 387 385 386 c 1,29,-1
 402 413 l 1,30,-1
 426 403 l 1,31,-1
 419 371 l 1,32,33
 430 362 430 362 435 355 c 1,34,-1
 466 362 l 1,35,-1
 477 337 l 1,36,-1
 449 320 l 1,37,38
 451 309 451 309 449 297 c 1,39,-1
 477 280 l 1,40,-1
 466 256 l 1,0,-1
359 275 m 1,41,-1
 359 275 l 1,42,43
 373 269 373 269 387 275 c 128,-1,44
 401 281 401 281 407 295 c 128,-1,45
 413 309 413 309 407.5 323.5 c 128,-1,46
 402 338 402 338 387 344 c 0,47,48
 373 349 373 349 358.5 343.5 c 128,-1,49
 344 338 344 338 338 323.5 c 128,-1,50
 332 309 332 309 338 295 c 128,-1,51
 344 281 344 281 359 275 c 1,41,-1
331 110 m 1,52,-1
 331 110 l 1,53,-1
 288 103 l 1,54,55
 285 88 285 88 277 75 c 1,56,-1
 302 41 l 1,57,-1
 277 16 l 1,58,-1
 243 41 l 1,59,60
 230 33 230 33 215 29 c 1,61,-1
 208 -13 l 1,62,-1
 172 -13 l 1,63,-1
 166 29 l 1,64,65
 149 33 149 33 138 41 c 1,66,-1
 104 17 l 1,67,-1
 79 42 l 1,68,-1
 104 76 l 1,69,70
 96 89 96 89 92 104 c 1,71,-1
 51 111 l 1,72,-1
 51 146 l 1,73,-1
 92 153 l 1,74,75
 97 169 97 169 104 181 c 1,76,-1
 80 215 l 1,77,-1
 105 239 l 1,78,-1
 139 215 l 1,79,80
 152 222 152 222 167 226 c 1,81,-1
 173 268 l 1,82,-1
 209 268 l 1,83,-1
 216 226 l 1,84,85
 232 222 232 222 244 215 c 1,86,-1
 278 239 l 1,87,-1
 302 215 l 1,88,-1
 278 180 l 1,89,90
 285 168 285 168 289 152 c 1,91,-1
 331 145 l 1,92,-1
 331 110 l 1,52,-1
191 79 m 1,93,-1
 191 79 l 1,94,95
 211 79 211 79 225.5 93.5 c 128,-1,96
 240 108 240 108 240 128 c 128,-1,97
 240 148 240 148 225.5 162.5 c 128,-1,98
 211 177 211 177 191 177 c 128,-1,99
 171 177 171 177 156.5 162.5 c 128,-1,100
 142 148 142 148 142 128 c 128,-1,101
 142 108 142 108 156.5 93.5 c 128,-1,102
 171 79 171 79 191 79 c 1,93,-1
191 79 m 1024,103,-1
EndSplineSet
Validated: 37
EndChar

StartChar: uniE62C
Encoding: 58924 58924 43
Width: 512
GlyphClass: 2
Flags: W
LayerCount: 2
Fore
SplineSet
471 73 m 1,0,1
 446 67 446 67 444.5 63.5 c 128,-1,2
 443 60 443 60 441 56 c 0,3,4
 443 53 443 53 448 49 c 128,-1,5
 453 45 453 45 457 42 c 2,6,-1
 461 40 l 1,7,-1
 419 -3 l 1,8,9
 403 14 403 14 399 15 c 0,10,11
 395 13 395 13 390 12 c 0,12,13
 389 11 389 11 387.5 5 c 128,-1,14
 386 -1 386 -1 386 -7 c 2,15,-1
 386 -13 l 1,16,-1
 343 -13 l 1,17,18
 343 -13 343 -13 343 -12 c 128,-1,19
 343 -11 343 -11 342.5 -8.5 c 128,-1,20
 342 -6 342 -6 342 -3.5 c 128,-1,21
 342 -1 342 -1 341 2 c 128,-1,22
 340 5 340 5 339.5 7 c 128,-1,23
 339 9 339 9 338.5 10.5 c 128,-1,24
 338 12 338 12 337 13 c 0,25,26
 334 14 334 14 331 15 c 0,27,28
 329 15 329 15 321.5 10.5 c 128,-1,29
 314 6 314 6 307 2 c 2,30,-1
 301 -2 l 1,31,-1
 269 40 l 1,32,33
 282 51 282 51 288 57 c 1,34,35
 286 61 286 61 285 64 c 0,36,37
 283 66 283 66 276 68 c 128,-1,38
 269 70 269 70 264 71 c 2,39,-1
 258 73 l 1,40,-1
 258 115 l 1,41,42
 277 118 277 118 284 121 c 0,43,44
 285 123 285 123 286 126 c 0,45,46
 285 128 285 128 281 133.5 c 128,-1,47
 277 139 277 139 273 143 c 2,48,-1
 269 147 l 1,49,-1
 300 190 l 1,50,51
 321 173 321 173 326 170 c 0,52,53
 329 172 329 172 333 173 c 0,54,55
 336 173 336 173 338.5 180 c 128,-1,56
 341 187 341 187 343 194 c 2,57,-1
 344 200 l 1,58,-1
 386 200 l 1,59,60
 394 173 394 173 396 173 c 0,61,62
 400 171 400 171 404 170 c 0,63,64
 406 171 406 171 412.5 176 c 128,-1,65
 419 181 419 181 424 185 c 2,66,-1
 429 189 l 1,67,-1
 461 147 l 1,68,69
 445 134 445 134 442 128 c 0,70,71
 443 125 443 125 443 122 c 0,72,73
 444 121 444 121 451 119.5 c 128,-1,74
 458 118 458 118 465 116 c 2,75,-1
 472 115 l 1,76,-1
 471 73 l 1,0,1
364 41 m 128,-1,78
 386 41 386 41 401.5 56.5 c 128,-1,79
 417 72 417 72 417 94 c 128,-1,80
 417 116 417 116 401.5 131.5 c 128,-1,81
 386 147 386 147 364 147 c 128,-1,82
 342 147 342 147 326.5 131.5 c 128,-1,83
 311 116 311 116 311 94 c 128,-1,84
 311 72 311 72 326.5 56.5 c 128,-1,77
 342 41 342 41 364 41 c 128,-1,78
229 214 m 1,85,86
 193 214 193 214 164 243.5 c 128,-1,87
 135 273 135 273 135 311 c 256,88,89
 135 349 135 349 165 381.5 c 128,-1,90
 195 414 195 414 231 414 c 128,-1,91
 267 414 267 414 297 382 c 128,-1,92
 327 350 327 350 327 312 c 0,93,94
 327 275 327 275 296.5 244.5 c 128,-1,95
 266 214 266 214 229 214 c 1,96,-1
 229 214 l 1,85,86
250 193 m 1,97,98
 263 193 263 193 266 189.5 c 128,-1,99
 269 186 269 186 265 177.5 c 128,-1,100
 261 169 261 169 254.5 158.5 c 128,-1,101
 248 148 248 148 242.5 130 c 128,-1,102
 237 112 237 112 237 94 c 0,103,104
 237 86 237 86 238.5 76.5 c 128,-1,105
 240 67 240 67 241.5 61 c 128,-1,106
 243 55 243 55 243 49.5 c 128,-1,107
 243 44 243 44 239.5 41.5 c 128,-1,108
 236 39 236 39 227 39 c 0,109,110
 156 39 156 39 104 46.5 c 128,-1,111
 52 54 52 54 57 67 c 0,112,113
 69 105 69 105 81 143 c 0,114,115
 89 169 89 169 110.5 181 c 128,-1,116
 132 193 132 193 153 193 c 2,117,-1
 250 193 l 1,118,-1
 250 193 l 1,97,98
250 193 m 1024,119,-1
EndSplineSet
Validated: 37
EndChar

StartChar: uniE62D
Encoding: 58925 58925 44
Width: 512
GlyphClass: 2
Flags: W
LayerCount: 2
Fore
SplineSet
367 284 m 128,-1,1
 367 238 367 238 337 205.5 c 128,-1,2
 307 173 307 173 264 173 c 128,-1,3
 221 173 221 173 191 205.5 c 128,-1,4
 161 238 161 238 161 284 c 128,-1,5
 161 330 161 330 191 362.5 c 128,-1,6
 221 395 221 395 264 395 c 128,-1,7
 307 395 307 395 337 362.5 c 128,-1,0
 367 330 367 330 367 284 c 128,-1,1
367 284 m 1024,8,-1
50 5 m 1,9,10
 50 7 50 7 51.5 10.5 c 128,-1,11
 53 14 53 14 57.5 25 c 128,-1,12
 62 36 62 36 68 47 c 128,-1,13
 74 58 74 58 85.5 73 c 128,-1,14
 97 88 97 88 110 101 c 128,-1,15
 123 114 123 114 143 128 c 128,-1,16
 163 142 163 142 185 153 c 1,17,-1
 346 151 l 2,18,19
 350 150 350 150 357 146.5 c 128,-1,20
 364 143 364 143 383.5 130 c 128,-1,21
 403 117 403 117 419.5 101.5 c 128,-1,22
 436 86 436 86 453 60 c 128,-1,23
 470 34 470 34 478 5 c 1,24,-1
 50 5 l 1,9,10
50 5 m 1024,25,-1
EndSplineSet
Validated: 1
EndChar

StartChar: uniE62E
Encoding: 58926 58926 45
Width: 512
GlyphClass: 2
Flags: W
LayerCount: 2
Fore
SplineSet
423 328.5 m 2,0,1
 423 328 423 328 423 328 c 1,2,-1
 423 1 l 2,3,4
 423 -4 423 -4 419 -8 c 128,-1,5
 415 -12 415 -12 410 -12 c 2,6,-1
 118 -12 l 2,7,8
 113 -12 113 -12 109 -8 c 128,-1,9
 105 -4 105 -4 105 1 c 2,10,-1
 105 399 l 2,11,12
 105 405 105 405 109 408.5 c 128,-1,13
 113 412 113 412 118 412 c 2,14,-1
 337 412 l 1,15,16
 337 412 337 412 337 412 c 1,17,18
 338 412 338 412 338 412 c 2,19,20
 343 412 343 412 346 408 c 2,21,-1
 419 337 l 1,22,23
 419 337 419 337 419 337 c 1,24,25
 420 336 420 336 420 336 c 129,-1,26
 420 336 420 336 420 336 c 129,-1,27
 420 336 420 336 420 335 c 1,28,29
 421 335 421 335 421 335 c 1,30,-1
 421 335 l 1,31,32
 421 334 421 334 422 333 c 0,33,34
 423 331 423 331 423 329 c 1,35,-1
 423 329 l 1,36,-1
 423 328.5 l 2,0,1
350 368 m 1,37,-1
 350 341 l 1,38,-1
 377 341 l 1,39,-1
 350 368 l 1,37,-1
396 15 m 1,40,-1
 396 314 l 1,41,-1
 337 314 l 2,42,43
 331 314 331 314 327.5 318 c 128,-1,44
 324 322 324 322 324 328 c 2,45,-1
 324 386 l 1,46,-1
 131 386 l 1,47,-1
 131 15 l 1,48,-1
 396 15 l 1,49,-1
 396 15 l 1,40,-1
359 198 m 2,50,51
 365 198 365 198 368.5 194 c 128,-1,52
 372 190 372 190 372 184.5 c 128,-1,53
 372 179 372 179 368.5 175 c 128,-1,54
 365 171 365 171 359 171 c 2,55,-1
 176 171 l 2,56,57
 170 171 170 171 166 175 c 128,-1,58
 162 179 162 179 162 184.5 c 128,-1,59
 162 190 162 190 166 194 c 128,-1,60
 170 198 170 198 176 198 c 2,61,-1
 359 198 l 2,50,51
162 240.5 m 128,-1,63
 162 246 162 246 166 250 c 128,-1,64
 170 254 170 254 176 254 c 2,65,-1
 359 254 l 2,66,67
 365 254 365 254 368.5 250 c 128,-1,68
 372 246 372 246 372 240.5 c 128,-1,69
 372 235 372 235 368.5 231 c 128,-1,70
 365 227 365 227 359 227 c 2,71,-1
 176 227 l 2,72,73
 170 227 170 227 166 231 c 128,-1,62
 162 235 162 235 162 240.5 c 128,-1,63
359 142 m 2,74,75
 365 142 365 142 368.5 138.5 c 128,-1,76
 372 135 372 135 372 129.5 c 128,-1,77
 372 124 372 124 368.5 120 c 128,-1,78
 365 116 365 116 359 116 c 2,79,-1
 176 116 l 2,80,81
 170 116 170 116 166 120 c 128,-1,82
 162 124 162 124 162 129.5 c 128,-1,83
 162 135 162 135 166 138.5 c 128,-1,84
 170 142 170 142 176 142 c 2,85,-1
 359 142 l 2,74,75
359 87 m 2,86,87
 365 87 365 87 368.5 83 c 128,-1,88
 372 79 372 79 372 73.5 c 128,-1,89
 372 68 372 68 368.5 64 c 128,-1,90
 365 60 365 60 359 60 c 2,91,-1
 176 60 l 2,92,93
 170 60 170 60 166 64 c 128,-1,94
 162 68 162 68 162 73.5 c 128,-1,95
 162 79 162 79 166 83 c 128,-1,96
 170 87 170 87 176 87 c 2,97,-1
 359 87 l 2,86,87
359 87 m 1024,98,-1
EndSplineSet
Validated: 524293
EndChar

StartChar: uniE62F
Encoding: 58927 58927 46
Width: 512
GlyphClass: 2
Flags: W
LayerCount: 2
Fore
SplineSet
436 104 m 2,0,1
 444 95 444 95 444 82 c 256,2,3
 444 69 444 69 434.5 59.5 c 128,-1,4
 425 50 425 50 411 50 c 2,5,-1
 340 50 l 1,6,-1
 337 39 l 2,7,8
 331 14 331 14 311 -1.5 c 128,-1,9
 291 -17 291 -17 265 -17 c 128,-1,10
 239 -17 239 -17 218.5 -1.5 c 128,-1,11
 198 14 198 14 192 39 c 2,12,-1
 189 50 l 1,13,-1
 119 50 l 2,14,15
 110 50 110 50 101.5 54 c 128,-1,16
 93 58 93 58 89 65 c 0,17,18
 78 82 78 82 88 99 c 2,19,-1
 121 152 l 1,20,-1
 121 243 l 2,21,22
 121 283 121 283 148 318 c 128,-1,23
 175 353 175 353 217 368 c 1,24,-1
 217 374 l 2,25,26
 218 392 218 392 232 405 c 128,-1,27
 246 418 246 418 265 418 c 128,-1,28
 284 418 284 418 298 405 c 128,-1,29
 312 392 312 392 313 373 c 2,30,-1
 313 368 l 1,31,32
 354 353 354 353 380.5 318 c 128,-1,33
 407 283 407 283 407 243 c 2,34,-1
 407 152 l 1,35,-1
 436 104 l 2,0,1
265 13 m 128,-1,37
 281 13 281 13 293 21 c 128,-1,38
 305 29 305 29 308 43 c 1,39,-1
 221 43 l 1,40,41
 225 29 225 29 237 21 c 128,-1,36
 249 13 249 13 265 13 c 128,-1,37
263 388 m 0,42,43
 252 388 252 388 250 373 c 1,44,-1
 278 373 l 1,45,46
 275 388 275 388 263 388 c 0,42,43
411 80 m 1,47,48
 414 80 414 80 414 83 c 0,49,50
 414 85 414 85 413 85.5 c 128,-1,51
 412 86 412 86 412 87 c 2,52,-1
 378 142 l 2,53,54
 377 144 377 144 377 147 c 2,55,-1
 377 243 l 2,56,57
 377 271 377 271 359 296.5 c 128,-1,58
 341 322 341 322 312 336 c 1,59,-1
 277 342 l 2,60,61
 276 342 276 342 275 343 c 2,62,-1
 274 342 l 1,63,-1
 270 343 l 1,64,-1
 269 343 l 2,65,66
 266 344 266 344 264.5 344 c 128,-1,67
 263 344 263 344 260 343 c 2,68,-1
 259 343 l 1,69,-1
 255 342 l 1,70,-1
 254 343 l 2,71,72
 253 342 253 342 252 342 c 2,73,-1
 217 336 l 1,74,75
 189 323 189 323 170 297 c 128,-1,76
 151 271 151 271 151 243 c 2,77,-1
 151 147 l 2,78,79
 151 144 151 144 150 142 c 2,80,-1
 116 85 l 2,81,82
 115 83 115 83 116 81.5 c 128,-1,83
 117 80 117 80 119 80 c 2,84,-1
 411 80 l 1,85,-1
 411 80 l 1,47,48
411 80 m 1024,86,-1
EndSplineSet
Validated: 37
EndChar

StartChar: uniE630
Encoding: 58928 58928 47
Width: 512
GlyphClass: 2
Flags: W
LayerCount: 2
Fore
SplineSet
451 395 m 1,0,1
 476 395 476 395 494 377 c 128,-1,2
 512 359 512 359 512 334 c 2,3,-1
 512 50 l 2,4,5
 512 25 512 25 494 7 c 128,-1,6
 476 -11 476 -11 451 -11 c 2,7,-1
 61 -11 l 2,8,9
 36 -11 36 -11 18 7 c 128,-1,10
 0 25 0 25 0 50 c 2,11,-1
 0 334 l 2,12,13
 0 359 0 359 18 377 c 128,-1,14
 36 395 36 395 61 395 c 2,15,-1
 451 395 l 1,16,-1
 451 395 l 1,0,1
435 364 m 1,17,-1
 76 364 l 1,18,-1
 256 218 l 1,19,-1
 435 364 l 1,17,-1
481 50 m 1,20,-1
 481 334 l 2,21,22
 481 347 481 347 472 356 c 1,23,-1
 256 181 l 1,24,-1
 40 356 l 1,25,26
 31 347 31 347 31 334 c 2,27,-1
 31 50 l 2,28,29
 31 38 31 38 40 29 c 128,-1,30
 49 20 49 20 61 20 c 2,31,-1
 451 20 l 2,32,33
 463 20 463 20 472 29 c 128,-1,34
 481 38 481 38 481 50 c 1,35,-1
 481 50 l 1,20,-1
EndSplineSet
Validated: 5
EndChar

StartChar: uniE631
Encoding: 58929 58929 48
Width: 512
GlyphClass: 2
Flags: W
LayerCount: 2
Fore
SplineSet
95 -3 m 2,0,1
 97 -4 97 -4 98 -4 c 2,2,-1
 95 -3 l 2,0,1
393 -3 m 2,3,-1
 390 -4 l 2,4,5
 392 -4 392 -4 393 -3 c 2,3,-1
464 70 m 1,6,7
 474 70 474 70 481.5 63 c 128,-1,8
 489 56 489 56 489 46 c 2,9,-1
 489 21 l 1,10,-1
 489 -3 l 2,11,12
 489 -24 489 -24 474.5 -38 c 128,-1,13
 460 -52 460 -52 440 -52 c 2,14,-1
 414 -52 l 1,15,-1
 75 -53 l 1,16,-1
 49 -52 l 2,17,18
 30 -52 30 -52 16 -39.5 c 128,-1,19
 2 -27 2 -27 0 -8 c 2,20,-1
 0 388 l 2,21,22
 0 407 0 407 13 421 c 128,-1,23
 26 435 26 435 44 436 c 2,24,-1
 441 437 l 2,25,26
 461 436 461 436 475 422 c 128,-1,27
 489 408 489 408 489 388 c 2,28,-1
 489 363 l 1,29,-1
 489 338 l 2,30,31
 489 328 489 328 481.5 321 c 128,-1,32
 474 314 474 314 464 314 c 128,-1,33
 454 314 454 314 447 321 c 128,-1,34
 440 328 440 328 440 338 c 2,35,-1
 440 347 l 2,36,37
 439 370 439 370 430 378.5 c 128,-1,38
 421 387 421 387 396 388 c 2,39,-1
 89 388 l 2,40,41
 64 386 64 386 56.5 376.5 c 128,-1,42
 49 367 49 367 49 339 c 2,43,-1
 49 361 l 1,44,-1
 49 33 l 2,45,46
 50 12 50 12 59.5 4.5 c 128,-1,47
 69 -3 69 -3 95 -3 c 2,48,-1
 49 -3 l 1,49,-1
 49 -4 l 1,50,-1
 440 -4 l 1,51,-1
 440 28 l 1,52,-1
 440 -3 l 1,53,-1
 393 -3 l 2,54,55
 420 -3 420 -3 429.5 5 c 128,-1,56
 439 13 439 13 440 37 c 2,57,-1
 440 46 l 2,58,59
 440 56 440 56 447 63 c 128,-1,60
 454 70 454 70 464 70 c 1,61,-1
 464 70 l 1,6,7
440 388 m 1,62,-1
 399 388 l 1,63,-1
 440 387 l 1,64,-1
 440 356 l 1,65,-1
 440 388 l 1,62,-1
49 387 m 1,66,-1
 64 388 l 1,67,-1
 49 387 l 1,68,-1
 49 387 l 1,66,-1
505 210 m 0,69,70
 512 203 512 203 512 192 c 0,71,72
 512 182 512 182 505 175 c 0,73,74
 503 172 503 172 500 171 c 2,75,-1
 406 77 l 2,76,77
 399 69 399 69 389 69 c 128,-1,78
 379 69 379 69 372 76.5 c 128,-1,79
 365 84 365 84 365 94 c 128,-1,80
 365 104 365 104 372 111 c 2,81,-1
 428 167 l 1,82,-1
 171 168 l 2,83,84
 160 168 160 168 153 175 c 128,-1,85
 146 182 146 182 146 192 c 128,-1,86
 146 202 146 202 153 209.5 c 128,-1,87
 160 217 160 217 171 217 c 2,88,-1
 429 216 l 1,89,-1
 372 274 l 2,90,91
 365 281 365 281 365 291 c 128,-1,92
 365 301 365 301 372 308.5 c 128,-1,93
 379 316 379 316 389 316 c 128,-1,94
 399 316 399 316 406 308 c 2,95,-1
 500 214 l 2,96,97
 503 212 503 212 505 210 c 0,69,70
EndSplineSet
Validated: 5
EndChar

StartChar: uniE632
Encoding: 58930 58930 49
Width: 512
GlyphClass: 2
Flags: W
LayerCount: 2
Fore
SplineSet
507 280 m 2,0,1
 513 274 513 274 512 264.5 c 128,-1,2
 511 255 511 255 504 249 c 2,3,-1
 475 220 l 1,4,-1
 394 300 l 1,5,-1
 424 329 l 2,6,7
 430 336 430 336 439 336.5 c 128,-1,8
 448 337 448 337 454 332 c 2,9,-1
 507 280 l 2,0,1
243 152 m 1,10,-1
 380 287 l 1,11,-1
 461 207 l 1,12,-1
 268 16 l 2,13,14
 265 13 265 13 261 12 c 0,15,16
 260 12 260 12 260 12 c 1,17,-1
 159 -20 l 2,18,19
 154 -21 154 -21 151 -18 c 256,20,21
 148 -15 148 -15 150 -11 c 2,22,-1
 182 89 l 1,23,24
 182 89 182 89 182 90 c 0,25,26
 184 96 184 96 187 97 c 2,27,-1
 224 131 l 1,28,-1
 101 131 l 2,29,30
 97 131 97 131 94 134.5 c 128,-1,31
 91 138 91 138 91 142 c 256,32,33
 91 146 91 146 94 149 c 128,-1,34
 97 152 97 152 101 152 c 2,35,-1
 243 152 l 1,36,-1
 243 152 l 1,10,-1
201 9 m 1,37,-1
 243 23 l 1,38,-1
 193 72 l 1,39,-1
 180 30 l 1,40,-1
 201 9 l 1,37,-1
377 245 m 2,41,42
 382 249 382 249 377 255 c 0,43,44
 375 257 375 257 372 257 c 128,-1,45
 369 257 369 257 367 255 c 2,46,-1
 216 107 l 2,47,48
 213 105 213 105 213 101.5 c 128,-1,49
 213 98 213 98 216 96 c 0,50,51
 217 94 217 94 220.5 94 c 128,-1,52
 224 94 224 94 226 96 c 2,53,-1
 377 245 l 2,41,42
366 -28 m 1,54,-1
 366 84 l 1,55,-1
 396 112 l 1,56,-1
 396 -27 l 2,57,58
 396 -43 396 -43 385.5 -53.5 c 128,-1,59
 375 -64 375 -64 358 -64 c 2,60,-1
 41 -64 l 2,61,62
 24 -64 24 -64 12 -53.5 c 128,-1,63
 0 -43 0 -43 0 -27 c 2,64,-1
 0 377 l 2,65,66
 0 393 0 393 11 403 c 128,-1,67
 22 413 22 413 43 413 c 2,68,-1
 77 413 l 1,69,-1
 77 438 l 2,70,71
 77 442 77 442 81 445 c 128,-1,72
 85 448 85 448 89 448 c 256,73,74
 93 448 93 448 96.5 445 c 128,-1,75
 100 442 100 442 100 438 c 2,76,-1
 100 413 l 1,77,-1
 153 413 l 1,78,-1
 153 438 l 2,79,80
 153 442 153 442 156.5 445 c 128,-1,81
 160 448 160 448 164 448 c 0,82,83
 169 448 169 448 172.5 445 c 128,-1,84
 176 442 176 442 176 438 c 2,85,-1
 176 413 l 1,86,-1
 224 413 l 1,87,-1
 224 438 l 2,88,89
 224 442 224 442 228 445 c 128,-1,90
 232 448 232 448 235 448 c 0,91,92
 240 448 240 448 243.5 445 c 128,-1,93
 247 442 247 442 247 438 c 2,94,-1
 247 413 l 1,95,-1
 295 413 l 1,96,-1
 295 438 l 2,97,98
 295 442 295 442 299 445 c 128,-1,99
 303 448 303 448 307 448 c 256,100,101
 311 448 311 448 314.5 445 c 128,-1,102
 318 442 318 442 318 438 c 2,103,-1
 318 413 l 1,104,-1
 359 413 l 2,105,106
 375 413 375 413 386 403 c 128,-1,107
 397 393 397 393 397 377 c 2,108,-1
 397 339 l 1,109,-1
 367 310 l 1,110,-1
 367 377 l 2,111,112
 367 385 367 385 359 385 c 2,113,-1
 319 385 l 1,114,-1
 319 371 l 2,115,116
 319 367 319 367 315 364.5 c 128,-1,117
 311 362 311 362 307 362 c 256,118,119
 303 362 303 362 299.5 364.5 c 128,-1,120
 296 367 296 367 296 371 c 2,121,-1
 296 385 l 1,122,-1
 247 385 l 1,123,-1
 247 371 l 2,124,125
 247 367 247 367 243.5 364.5 c 128,-1,126
 240 362 240 362 236 362 c 256,127,128
 232 362 232 362 228 364.5 c 128,-1,129
 224 367 224 367 224 371 c 2,130,-1
 224 385 l 1,131,-1
 176 385 l 1,132,-1
 176 371 l 2,133,134
 176 367 176 367 172.5 364.5 c 128,-1,135
 169 362 169 362 165 362 c 256,136,137
 161 362 161 362 157 364.5 c 128,-1,138
 153 367 153 367 153 371 c 2,139,-1
 153 385 l 1,140,-1
 101 385 l 1,141,-1
 101 371 l 2,142,143
 101 367 101 367 97 364.5 c 128,-1,144
 93 362 93 362 89 362 c 256,145,146
 85 362 85 362 81.5 364.5 c 128,-1,147
 78 367 78 367 78 371 c 2,148,-1
 78 385 l 1,149,-1
 43 385 l 2,150,151
 42 385 42 385 39.5 385 c 128,-1,152
 37 385 37 385 36 385 c 128,-1,153
 35 385 35 385 33.5 384.5 c 128,-1,154
 32 384 32 384 31.5 383 c 128,-1,155
 31 382 31 382 30.5 380.5 c 128,-1,156
 30 379 30 379 30 377 c 2,157,-1
 30 -28 l 2,158,159
 30 -35 30 -35 40 -35 c 2,160,-1
 358 -35 l 2,161,162
 366 -35 366 -35 366 -28 c 1,163,-1
 366 -28 l 1,54,-1
292 304 m 2,164,165
 295 304 295 304 298 300.5 c 128,-1,166
 301 297 301 297 301 293 c 128,-1,167
 301 289 301 289 298 285.5 c 128,-1,168
 295 282 295 282 292 282 c 2,169,-1
 100 282 l 2,170,171
 97 282 97 282 94 285.5 c 128,-1,172
 91 289 91 289 91 293 c 256,173,174
 91 297 91 297 94 300.5 c 128,-1,175
 97 304 97 304 100 304 c 2,176,-1
 292 304 l 2,164,165
292 230 m 2,177,178
 295 230 295 230 298 226.5 c 128,-1,179
 301 223 301 223 301 219.5 c 128,-1,180
 301 216 301 216 298 212 c 128,-1,181
 295 208 295 208 292 208 c 2,182,-1
 100 208 l 2,183,184
 97 208 97 208 94 211.5 c 128,-1,185
 91 215 91 215 91 219 c 256,186,187
 91 223 91 223 94 226.5 c 128,-1,188
 97 230 97 230 100 230 c 2,189,-1
 292 230 l 2,177,178
EndSplineSet
Validated: 37
EndChar

StartChar: uniE633
Encoding: 58931 58931 50
Width: 512
GlyphClass: 2
Flags: W
LayerCount: 2
Fore
SplineSet
55 273 m 1,0,-1
 55 292 l 1,1,-1
 200 292 l 1,2,-1
 200 273 l 1,3,-1
 55 273 l 1,0,-1
55 201 m 1,4,-1
 55 219 l 1,5,-1
 218 219 l 1,6,-1
 218 201 l 1,7,-1
 55 201 l 1,4,-1
55 129 m 1,8,-1
 55 147 l 1,9,-1
 200 147 l 1,10,-1
 200 129 l 1,11,-1
 55 129 l 1,8,-1
55 56 m 1,12,-1
 55 74 l 1,13,-1
 200 74 l 1,14,-1
 200 56 l 1,15,-1
 55 56 l 1,12,-1
275 -16 m 1,16,17
 297 -40 297 -40 328 -52 c 1,18,-1
 1 -52 l 1,19,-1
 1 436 l 1,20,-1
 254 436 l 1,21,-1
 345 346 l 1,22,-1
 345 225 l 1,23,24
 326 220 326 220 308 210 c 1,25,-1
 308 310 l 1,26,-1
 218 310 l 1,27,-1
 218 400 l 1,28,-1
 37 400 l 1,29,-1
 37 -16 l 1,30,-1
 275 -16 l 1,31,-1
 275 -16 l 1,16,17
438 35 m 1,32,33
 442 35 442 35 444 32.5 c 128,-1,34
 446 30 446 30 446 26.5 c 128,-1,35
 446 23 446 23 444 21 c 128,-1,36
 442 19 442 19 438.5 19 c 128,-1,37
 435 19 435 19 432.5 21 c 128,-1,38
 430 23 430 23 430 26.5 c 128,-1,39
 430 30 430 30 432.5 32.5 c 128,-1,40
 435 35 435 35 438 35 c 1,41,-1
 438 35 l 1,32,33
381.5 213 m 128,-1,43
 435 213 435 213 473 175 c 128,-1,44
 511 137 511 137 511 83.5 c 128,-1,45
 511 30 511 30 473 -8 c 128,-1,46
 435 -46 435 -46 381.5 -46 c 128,-1,47
 328 -46 328 -46 289.5 -8 c 128,-1,48
 251 30 251 30 251 83.5 c 128,-1,49
 251 137 251 137 289.5 175 c 128,-1,42
 328 213 328 213 381.5 213 c 128,-1,43
438 2 m 1,50,51
 448 2 448 2 455.5 9.5 c 128,-1,52
 463 17 463 17 463 27 c 0,53,54
 463 35 463 35 458 41 c 128,-1,55
 453 47 453 47 445 50 c 1,56,-1
 446 51 l 1,57,-1
 395 102 l 1,58,59
 399 114 399 114 396 127.5 c 128,-1,60
 393 141 393 141 383 150 c 0,61,62
 374 160 374 160 360 163 c 128,-1,63
 346 166 346 166 334 162 c 1,64,-1
 365 131 l 1,65,-1
 359 106 l 1,66,-1
 334 100 l 1,67,-1
 303 131 l 1,68,69
 299 119 299 119 302 105 c 128,-1,70
 305 91 305 91 315 81 c 0,71,72
 324 72 324 72 337.5 69 c 128,-1,73
 351 66 351 66 363 69 c 1,74,-1
 414 19 l 1,75,-1
 415 20 l 1,76,77
 417 12 417 12 423.5 7 c 128,-1,78
 430 2 430 2 438 2 c 1,79,-1
 438 2 l 1,50,51
EndSplineSet
Validated: 37
EndChar

StartChar: uniE720
Encoding: 59168 59168 51
Width: 512
GlyphClass: 2
Flags: W
LayerCount: 2
Fore
SplineSet
486 412 m 2,0,1
 492 416 492 416 497.5 416 c 128,-1,2
 503 416 503 416 507.5 411.5 c 128,-1,3
 512 407 512 407 512 400 c 2,4,-1
 512 -16 l 2,5,6
 512 -24 512 -24 506 -29 c 0,7,8
 496 -36 496 -36 486 -28 c 2,9,-1
 276 180 l 2,10,11
 274 182 274 182 273 184.5 c 128,-1,12
 272 187 272 187 272 190 c 2,13,-1
 272 -16 l 2,14,15
 272 -24 272 -24 266 -29 c 0,16,17
 256 -36 256 -36 246 -28 c 2,18,-1
 37 180 l 2,19,20
 32 186 32 186 32 192.5 c 128,-1,21
 32 199 32 199 37 204 c 2,22,-1
 246 412 l 2,23,24
 254 419 254 419 263 414.5 c 128,-1,25
 272 410 272 410 272 400 c 2,26,-1
 272 194 l 2,27,28
 272 197 272 197 273.5 199.5 c 128,-1,29
 275 202 275 202 276 204 c 2,30,-1
 486 412 l 2,0,1
16 416 m 128,-1,32
 22 416 22 416 27 411 c 128,-1,33
 32 406 32 406 32 400 c 2,34,-1
 32 -16 l 2,35,36
 32 -22 32 -22 27 -27 c 128,-1,37
 22 -32 22 -32 16 -32 c 128,-1,38
 10 -32 10 -32 5 -27 c 128,-1,39
 0 -22 0 -22 0 -16 c 2,40,-1
 0 400 l 2,41,42
 0 406 0 406 5 411 c 128,-1,31
 10 416 10 416 16 416 c 128,-1,32
EndSplineSet
Validated: 37
EndChar

StartChar: uniE721
Encoding: 59169 59169 52
Width: 512
GlyphClass: 2
Flags: W
LayerCount: 2
Fore
SplineSet
26 412 m 2,0,-1
 236 204 l 2,1,2
 238 202 238 202 239 199.5 c 128,-1,3
 240 197 240 197 240 194 c 2,4,-1
 240 400 l 2,5,6
 240 407 240 407 244.5 411.5 c 128,-1,7
 249 416 249 416 254.5 416 c 128,-1,8
 260 416 260 416 266 412 c 2,9,-1
 476 204 l 2,10,11
 478 200 478 200 479 196 c 128,-1,12
 480 192 480 192 479 188 c 128,-1,13
 478 184 478 184 476 180 c 2,14,-1
 266 -28 l 2,15,16
 256 -36 256 -36 246 -29 c 0,17,18
 240 -24 240 -24 240 -16 c 2,19,-1
 240 190 l 2,20,21
 240 187 240 187 239 184.5 c 128,-1,22
 238 182 238 182 236 180 c 2,23,-1
 26 -28 l 2,24,25
 24 -30 24 -30 22 -31 c 128,-1,26
 20 -32 20 -32 18 -32 c 128,-1,27
 16 -32 16 -32 13.5 -32 c 128,-1,28
 11 -32 11 -32 9 -31 c 128,-1,29
 7 -30 7 -30 5.5 -28.5 c 128,-1,30
 4 -27 4 -27 3 -25.5 c 128,-1,31
 2 -24 2 -24 1 -21 c 128,-1,32
 0 -18 0 -18 0 -16 c 2,33,-1
 0 400 l 2,34,35
 0 410 0 410 9 414.5 c 128,-1,36
 18 419 18 419 26 412 c 2,0,-1
496 416 m 128,-1,38
 502 416 502 416 507 411 c 128,-1,39
 512 406 512 406 512 400 c 2,40,-1
 512 -16 l 2,41,42
 512 -22 512 -22 507 -27 c 128,-1,43
 502 -32 502 -32 496 -32 c 128,-1,44
 490 -32 490 -32 485 -27 c 128,-1,45
 480 -22 480 -22 480 -16 c 2,46,-1
 480 400 l 2,47,48
 480 406 480 406 485 411 c 128,-1,37
 490 416 490 416 496 416 c 128,-1,38
EndSplineSet
Validated: 33
EndChar

StartChar: uniE722
Encoding: 59170 59170 53
Width: 512
GlyphClass: 2
Flags: W
LayerCount: 2
Fore
SplineSet
112.5 448 m 128,-1,1
 119 448 119 448 123.5 443 c 128,-1,2
 128 438 128 438 128 430 c 2,3,-1
 128 192 l 2,4,5
 128 194 128 194 129 196 c 128,-1,6
 130 198 130 198 130.5 199 c 128,-1,7
 131 200 131 200 132 202 c 128,-1,8
 133 204 133 204 134 205 c 2,9,-1
 414 443 l 2,10,11
 423 451 423 451 435.5 446.5 c 128,-1,12
 448 442 448 442 448 430 c 2,13,-1
 448 -46 l 2,14,15
 448 -58 448 -58 435.5 -62.5 c 128,-1,16
 423 -67 423 -67 414 -59 c 2,17,-1
 134 179 l 2,18,19
 128 184 128 184 128 192 c 2,20,-1
 128 -46 l 2,21,22
 128 -50 128 -50 126 -54.5 c 128,-1,23
 124 -59 124 -59 120.5 -61.5 c 128,-1,24
 117 -64 117 -64 112 -64 c 0,25,26
 106 -64 106 -64 101 -59 c 128,-1,27
 96 -54 96 -54 96 -46 c 2,28,-1
 96 430 l 2,29,30
 96 438 96 438 101 443 c 128,-1,0
 106 448 106 448 112.5 448 c 128,-1,1
EndSplineSet
Validated: 37
EndChar

StartChar: uniE723
Encoding: 59171 59171 54
Width: 512
GlyphClass: 2
Flags: W
LayerCount: 2
Fore
SplineSet
431.5 448 m 128,-1,1
 438 448 438 448 443 443 c 128,-1,2
 448 438 448 438 448 430 c 2,3,-1
 448 -46 l 2,4,5
 448 -54 448 -54 443 -59 c 128,-1,6
 438 -64 438 -64 431.5 -64 c 128,-1,7
 425 -64 425 -64 420.5 -59 c 128,-1,8
 416 -54 416 -54 416 -46 c 2,9,-1
 416 192 l 2,10,11
 416 184 416 184 410 179 c 2,12,-1
 130 -59 l 2,13,14
 121 -67 121 -67 108.5 -62.5 c 128,-1,15
 96 -58 96 -58 96 -46 c 2,16,-1
 96 430 l 2,17,18
 96 442 96 442 108.5 446.5 c 128,-1,19
 121 451 121 451 130 443 c 2,20,-1
 410 205 l 2,21,22
 416 200 416 200 416 192 c 2,23,-1
 416 430 l 2,24,25
 416 438 416 438 420.5 443 c 128,-1,0
 425 448 425 448 431.5 448 c 128,-1,1
EndSplineSet
Validated: 37
EndChar

StartChar: uniE724
Encoding: 59172 59172 55
Width: 512
GlyphClass: 2
Flags: W
LayerCount: 2
Fore
SplineSet
256 448 m 128,-1,1
 326 448 326 448 385 414 c 128,-1,2
 444 380 444 380 478 321 c 128,-1,3
 512 262 512 262 512 192 c 128,-1,4
 512 122 512 122 478 63 c 128,-1,5
 444 4 444 4 385 -30 c 128,-1,6
 326 -64 326 -64 256 -64 c 128,-1,7
 186 -64 186 -64 127 -30 c 128,-1,8
 68 4 68 4 34 63 c 128,-1,9
 0 122 0 122 0 192 c 128,-1,10
 0 262 0 262 34 321 c 128,-1,11
 68 380 68 380 127 414 c 128,-1,0
 186 448 186 448 256 448 c 128,-1,1
364 184 m 2,12,13
 366 188 366 188 366 192 c 128,-1,14
 366 196 366 196 364 200 c 2,15,-1
 211 342 l 2,16,17
 206 348 206 348 199 345 c 128,-1,18
 192 342 192 342 192 335 c 2,19,-1
 192 49 l 2,20,21
 192 46 192 46 194 43 c 128,-1,22
 196 40 196 40 199 39 c 128,-1,23
 202 38 202 38 205 38.5 c 128,-1,24
 208 39 208 39 211 42 c 2,25,-1
 364 184 l 2,12,13
EndSplineSet
Validated: 1
EndChar

StartChar: uniE725
Encoding: 59173 59173 56
Width: 512
GlyphClass: 2
Flags: W
LayerCount: 2
Fore
SplineSet
256 448 m 128,-1,1
 326 448 326 448 385 414 c 128,-1,2
 444 380 444 380 478 321 c 128,-1,3
 512 262 512 262 512 192 c 128,-1,4
 512 122 512 122 478 63 c 128,-1,5
 444 4 444 4 385 -30 c 128,-1,6
 326 -64 326 -64 256 -64 c 128,-1,7
 186 -64 186 -64 127 -30 c 128,-1,8
 68 4 68 4 34 63 c 128,-1,9
 0 122 0 122 0 192 c 128,-1,10
 0 262 0 262 34 321 c 128,-1,11
 68 380 68 380 127 414 c 128,-1,0
 186 448 186 448 256 448 c 128,-1,1
192 80 m 2,12,-1
 192 304 l 2,13,14
 192 310 192 310 187 315 c 128,-1,15
 182 320 182 320 176 320 c 1,16,-1
 176 320 l 1,17,18
 172 320 172 320 168 318 c 128,-1,19
 164 316 164 316 162 312 c 128,-1,20
 160 308 160 308 160 304 c 2,21,-1
 160 80 l 2,22,23
 160 74 160 74 164.5 69 c 128,-1,24
 169 64 169 64 176 64 c 1,25,-1
 176 64 l 1,26,27
 182 64 182 64 187 69 c 128,-1,28
 192 74 192 74 192 80 c 2,12,-1
352 80 m 2,29,-1
 352 304 l 2,30,31
 352 308 352 308 351 310.5 c 128,-1,32
 350 313 350 313 348 315.5 c 128,-1,33
 346 318 346 318 343 319 c 128,-1,34
 340 320 340 320 336 320 c 1,35,-1
 336 320 l 1,36,37
 333 320 333 320 330 319 c 128,-1,38
 327 318 327 318 325 315.5 c 128,-1,39
 323 313 323 313 321.5 310.5 c 128,-1,40
 320 308 320 308 320 304 c 2,41,-1
 320 80 l 2,42,43
 320 76 320 76 322 72 c 128,-1,44
 324 68 324 68 328 66 c 128,-1,45
 332 64 332 64 336 64 c 1,46,-1
 336 64 l 1,47,48
 343 64 343 64 347.5 69 c 128,-1,49
 352 74 352 74 352 80 c 2,29,-1
EndSplineSet
Validated: 5
EndChar

StartChar: uniE726
Encoding: 59174 59174 57
Width: 512
GlyphClass: 2
Flags: W
LayerCount: 2
Fore
SplineSet
256.5 445 m 128,-1,1
 308 445 308 445 355 425 c 128,-1,2
 402 405 402 405 436 371.5 c 128,-1,3
 470 338 470 338 490.5 291.5 c 128,-1,4
 511 245 511 245 511 193.5 c 128,-1,5
 511 142 511 142 490.5 95.5 c 128,-1,6
 470 49 470 49 436 15 c 128,-1,7
 402 -19 402 -19 355 -39 c 128,-1,8
 308 -59 308 -59 256.5 -59 c 128,-1,9
 205 -59 205 -59 157.5 -39 c 128,-1,10
 110 -19 110 -19 76 15 c 128,-1,11
 42 49 42 49 22 95.5 c 128,-1,12
 2 142 2 142 2 193.5 c 128,-1,13
 2 245 2 245 22 291.5 c 128,-1,14
 42 338 42 338 76 371.5 c 128,-1,15
 110 405 110 405 157.5 425 c 128,-1,0
 205 445 205 445 256.5 445 c 128,-1,1
354 97 m 1,16,-1
 354 290 l 1,17,-1
 159 290 l 1,18,-1
 159 97 l 1,19,-1
 354 97 l 1,16,-1
EndSplineSet
Validated: 1
EndChar

StartChar: uniE727
Encoding: 59175 59175 58
Width: 512
GlyphClass: 2
Flags: W
LayerCount: 2
Fore
SplineSet
80 94 m 1,0,-1
 248 279 l 1,1,-1
 415 94 l 1,2,-1
 80 94 l 1,0,-1
EndSplineSet
Validated: 1
EndChar

StartChar: uniE728
Encoding: 59176 59176 59
Width: 512
GlyphClass: 2
Flags: W
LayerCount: 2
Fore
SplineSet
96 288 m 1,0,-1
 416 288 l 1,1,-1
 256 96 l 1,2,-1
 96 288 l 1,0,-1
EndSplineSet
Validated: 1
EndChar

StartChar: uniE900
Encoding: 59648 59648 60
Width: 512
GlyphClass: 2
Flags: W
LayerCount: 2
Fore
SplineSet
273 444 m 1024,0,-1
486 405 m 1,1,-1
 486 144 l 2,2,3
 486 120 486 120 474.5 97 c 128,-1,4
 463 74 463 74 444.5 52 c 128,-1,5
 426 30 426 30 402 10.5 c 128,-1,6
 378 -9 378 -9 353 -24 c 0,7,8
 329 -40 329 -40 305.5 -50 c 128,-1,9
 282 -60 282 -60 265 -63 c 2,10,-1
 259 -64 l 1,11,-1
 254 -63 l 2,12,13
 236 -60 236 -60 212.5 -49.5 c 128,-1,14
 189 -39 189 -39 163 -24 c 0,15,16
 138 -9 138 -9 113 10.5 c 128,-1,17
 88 30 88 30 69 52 c 128,-1,18
 50 74 50 74 38 97 c 128,-1,19
 26 120 26 120 26 144 c 2,20,-1
 26 405 l 1,21,-1
 45 408 l 1,22,-1
 256 448 l 1,23,-1
 472 408 l 1,24,-1
 486 405 l 1,25,-1
 486 405 l 1,26,-1
 486 405 l 1,1,-1
257 411 m 1,27,-1
 254 411 l 1,28,-1
 72 379 l 1,29,-1
 72 215 l 1,30,-1
 257 215 l 1,31,-1
 257 411 l 1,32,-1
 257 411 l 1,33,-1
 257 411 l 1,27,-1
440 215 m 1,34,-1
 257 215 l 1,35,-1
 257 -20 l 1,36,37
 274 -16 274 -16 295 -7.5 c 128,-1,38
 316 1 316 1 336 12.5 c 128,-1,39
 356 24 356 24 375 38.5 c 128,-1,40
 394 53 394 53 408 69 c 0,41,42
 423 85 423 85 431.5 103 c 128,-1,43
 440 121 440 121 440 139 c 2,44,-1
 440 215 l 1,45,-1
 440 215 l 1,34,-1
440 215 m 1024,46,-1
EndSplineSet
Validated: 5
EndChar

StartChar: uniE901
Encoding: 59649 59649 61
Width: 512
GlyphClass: 2
Flags: W
LayerCount: 2
Fore
SplineSet
273 444 m 1024,0,-1
489 -5 m 1,1,2
 498 -5 498 -5 505 -11.5 c 128,-1,3
 512 -18 512 -18 512 -27 c 2,4,-1
 512 -37 l 2,5,6
 512 -46 512 -46 505 -52.5 c 128,-1,7
 498 -59 498 -59 489 -59 c 2,8,-1
 23 -59 l 2,9,10
 14 -59 14 -59 7.5 -52.5 c 128,-1,11
 1 -46 1 -46 1 -37 c 2,12,-1
 1 -27 l 2,13,14
 1 -18 1 -18 7.5 -11.5 c 128,-1,15
 14 -5 14 -5 23 -5 c 2,16,-1
 489 -5 l 1,17,-1
 489 -5 l 1,1,2
489 -5 m 1024,18,-1
436 14 m 2,19,20
 427 14 427 14 420.5 20.5 c 128,-1,21
 414 27 414 27 414 36 c 2,22,-1
 414 146 l 2,23,24
 414 155 414 155 420.5 161.5 c 128,-1,25
 427 168 427 168 436 168 c 2,26,-1
 445 168 l 2,27,28
 454 168 454 168 460.5 161.5 c 128,-1,29
 467 155 467 155 467 146 c 2,30,-1
 467 36 l 2,31,32
 467 27 467 27 460.5 20.5 c 128,-1,33
 454 14 454 14 445 14 c 2,34,-1
 436 14 l 2,19,20
436 14 m 1024,35,-1
69 13 m 2,36,37
 60 13 60 13 53.5 19.5 c 128,-1,38
 47 26 47 26 47 36 c 2,39,-1
 47 221 l 2,40,41
 47 230 47 230 53.5 236.5 c 128,-1,42
 60 243 60 243 69 243 c 2,43,-1
 78 243 l 2,44,45
 87 243 87 243 93.5 236.5 c 128,-1,46
 100 230 100 230 100 221 c 2,47,-1
 100 36 l 2,48,49
 100 26 100 26 93.5 19.5 c 128,-1,50
 87 13 87 13 78 13 c 2,51,-1
 69 13 l 2,36,37
69 13 m 1024,52,-1
194 13 m 1,53,54
 185 13 185 13 178.5 19.5 c 128,-1,55
 172 26 172 26 172 36 c 2,56,-1
 172 425 l 2,57,58
 172 434 172 434 178.5 440.5 c 128,-1,59
 185 447 185 447 194 447 c 2,60,-1
 203 447 l 2,61,62
 212 447 212 447 218.5 440.5 c 128,-1,63
 225 434 225 434 225 425 c 2,64,-1
 225 36 l 2,65,66
 225 26 225 26 218.5 19.5 c 128,-1,67
 212 13 212 13 203 13 c 2,68,-1
 194 13 l 1,69,-1
 194 13 l 1,53,54
194 13 m 1024,70,-1
314 14 m 1,71,72
 305 14 305 14 298.5 20.5 c 128,-1,73
 292 27 292 27 292 36 c 2,74,-1
 292 323 l 2,75,76
 292 332 292 332 298.5 338.5 c 128,-1,77
 305 345 305 345 314 345 c 2,78,-1
 323 345 l 2,79,80
 332 345 332 345 338.5 338.5 c 128,-1,81
 345 332 345 332 345 323 c 2,82,-1
 345 36 l 2,83,84
 345 27 345 27 338.5 20.5 c 128,-1,85
 332 14 332 14 323 14 c 2,86,-1
 314 14 l 1,87,-1
 314 14 l 1,71,72
314 14 m 1024,88,-1
EndSplineSet
Validated: 5
EndChar

StartChar: uniE902
Encoding: 59650 59650 62
Width: 512
GlyphClass: 2
Flags: W
LayerCount: 2
Fore
SplineSet
273 444 m 1024,0,-1
458 316 m 1,1,-1
 426 347 l 1,2,-1
 263 183 l 1,3,-1
 209 238 l 1,4,-1
 61 87 l 1,5,-1
 25 122 l 1,6,-1
 209 309 l 1,7,-1
 263 254 l 1,8,-1
 391 382 l 1,9,-1
 357 416 l 1,10,-1
 490 448 l 1,11,-1
 458 316 l 1,1,-1
458 316 m 1024,12,-1
64 58 m 1,13,-1
 131 58 l 1,14,-1
 131 -64 l 1,15,-1
 64 -64 l 1,16,-1
 64 58 l 1,13,-1
64 58 m 1024,17,-1
175 119 m 1,18,-1
 242 119 l 1,19,-1
 242 -64 l 1,20,-1
 175 -64 l 1,21,-1
 175 119 l 1,18,-1
175 119 m 1024,22,-1
290 180 m 1,23,-1
 357 180 l 1,24,-1
 357 -64 l 1,25,-1
 290 -64 l 1,26,-1
 290 180 l 1,23,-1
290 180 m 1024,27,-1
402 240 m 1,28,-1
 469 240 l 1,29,-1
 469 -64 l 1,30,-1
 402 -64 l 1,31,-1
 402 240 l 1,28,-1
402 240 m 1024,32,-1
EndSplineSet
Validated: 1
EndChar

StartChar: uniE903
Encoding: 59651 59651 63
Width: 512
GlyphClass: 2
Flags: W
LayerCount: 2
Fore
SplineSet
273 444 m 1024,0,-1
180 79 m 1,1,2
 180 101 180 101 193.5 119 c 128,-1,3
 207 137 207 137 228 145 c 1,4,-1
 228 286 l 1,5,-1
 284 286 l 1,6,-1
 284 145 l 1,7,8
 305 137 305 137 318.5 119 c 128,-1,9
 332 101 332 101 332 79 c 0,10,11
 332 50 332 50 310 29 c 128,-1,12
 288 8 288 8 256 8 c 128,-1,13
 224 8 224 8 202 29 c 128,-1,14
 180 50 180 50 180 79 c 1,15,-1
 180 79 l 1,1,2
104 79 m 1,16,17
 104 114 104 114 120.5 144 c 128,-1,18
 137 174 137 174 166 194 c 1,19,-1
 166 367 l 2,20,21
 166 400 166 400 192.5 423.5 c 128,-1,22
 219 447 219 447 256 447 c 128,-1,23
 293 447 293 447 319.5 423.5 c 128,-1,24
 346 400 346 400 346 367 c 2,25,-1
 346 194 l 1,26,27
 375 174 375 174 391.5 144 c 128,-1,28
 408 114 408 114 408 79 c 0,29,30
 408 20 408 20 363.5 -21.5 c 128,-1,31
 319 -63 319 -63 256 -63 c 128,-1,32
 193 -63 193 -63 148.5 -21.5 c 128,-1,33
 104 20 104 20 104 79 c 1,34,-1
 104 79 l 1,16,17
305 214 m 1,35,-1
 305 337 l 2,36,37
 305 361 305 361 290.5 378 c 128,-1,38
 276 395 276 395 256 395 c 128,-1,39
 236 395 236 395 221.5 378 c 128,-1,40
 207 361 207 361 207 337 c 2,41,-1
 207 214 l 1,42,-1
 207 172 l 1,43,44
 183 161 183 161 166 139 c 0,45,46
 145 112 145 112 145 79 c 0,47,48
 145 36 145 36 177.5 6 c 128,-1,49
 210 -24 210 -24 256 -24 c 128,-1,50
 302 -24 302 -24 334.5 6 c 128,-1,51
 367 36 367 36 367 79 c 0,52,53
 367 112 367 112 346 139 c 0,54,55
 330 160 330 160 305 172 c 1,56,-1
 305 214 l 1,57,-1
 305 214 l 1,35,-1
305 214 m 1024,58,-1
EndSplineSet
Validated: 5
EndChar

StartChar: uniE904
Encoding: 59652 59652 64
Width: 512
GlyphClass: 2
Flags: W
LayerCount: 2
Fore
SplineSet
273 444 m 1024,0,-1
228 398 m 1024,1,-1
266 211 m 1024,2,-1
231 173 m 1,3,4
 251 153 251 153 386 18 c 2,5,6
 386 18 386 18 388 16 c 0,7,8
 359 -14 359 -14 319 -32 c 128,-1,9
 279 -50 279 -50 233 -51.5 c 128,-1,10
 187 -53 187 -53 141 -34 c 0,11,12
 90 -12 90 -12 56 28.5 c 128,-1,13
 22 69 22 69 9.5 119.5 c 128,-1,14
 -3 170 -3 170 8 221 c 0,15,16
 20 274 20 274 54 315.5 c 128,-1,17
 88 357 88 357 133.5 378 c 128,-1,18
 179 399 179 399 228 398 c 1,19,-1
 228 394 l 2,20,21
 228 233 228 233 228 179 c 0,22,23
 228 175 228 175 231 173 c 1,24,-1
 231 173 l 1,3,4
266 435 m 1,25,26
 297 437 297 437 329.5 427.5 c 128,-1,27
 362 418 362 418 390.5 398 c 128,-1,28
 419 378 419 378 441.5 351 c 128,-1,29
 464 324 464 324 477 287.5 c 128,-1,30
 490 251 490 251 490 211 c 1,31,-1
 266 211 l 1,32,-1
 266 435 l 1,25,26
509 173 m 1,33,34
 510 137 510 137 494 93.5 c 128,-1,35
 478 50 478 50 443 15 c 1,36,37
 340 117 340 117 283 173 c 1,38,-1
 509 173 l 1,33,34
443 15 m 1024,39,-1
EndSplineSet
Validated: 37
EndChar

StartChar: uniE905
Encoding: 59653 59653 65
Width: 512
GlyphClass: 2
Flags: W
LayerCount: 2
Fore
SplineSet
273 444 m 1024,0,-1
228 398 m 1024,1,-1
266 211 m 1024,2,-1
443 15 m 1024,3,-1
28 192 m 2,4,5
 23 192 23 192 19.5 195 c 128,-1,6
 16 198 16 198 16 203 c 2,7,-1
 16 209 l 2,8,9
 16 214 16 214 19.5 217 c 128,-1,10
 23 220 23 220 28 220 c 2,11,-1
 485 220 l 2,12,13
 490 220 490 220 493.5 217 c 128,-1,14
 497 214 497 214 497 209 c 2,15,-1
 497 203 l 2,16,17
 497 198 497 198 493.5 195 c 128,-1,18
 490 192 490 192 485 192 c 2,19,-1
 28 192 l 2,4,5
10 -61 m 1,20,-1
 197 179 l 1,21,-1
 227 179 l 1,22,-1
 72 -61 l 1,23,-1
 10 -61 l 1,24,-1
 10 -61 l 1,20,-1
315 179 m 1,25,-1
 502 -61 l 1,26,-1
 440 -61 l 1,27,-1
 285 179 l 1,28,-1
 315 179 l 1,25,-1
251 179 m 1,29,-1
 262 179 l 1,30,-1
 274 -3 l 1,31,-1
 239 -3 l 1,32,-1
 251 179 l 1,29,-1
90 284 m 2,33,34
 81 284 81 284 74 290.5 c 128,-1,35
 67 297 67 297 67 307 c 2,36,-1
 67 422 l 2,37,38
 67 432 67 432 74 438.5 c 128,-1,39
 81 445 81 445 90 445 c 2,40,-1
 421 445 l 2,41,42
 431 445 431 445 437.5 438.5 c 128,-1,43
 444 432 444 432 444 422 c 2,44,-1
 444 307 l 2,45,46
 444 297 444 297 437.5 290.5 c 128,-1,47
 431 284 431 284 421 284 c 2,48,-1
 285 284 l 1,49,-1
 285 229 l 1,50,-1
 227 229 l 1,51,-1
 227 284 l 1,52,-1
 90 284 l 2,33,34
256 427 m 128,-1,54
 231 427 231 427 213 409 c 128,-1,55
 195 391 195 391 195 366 c 128,-1,56
 195 341 195 341 213 323 c 128,-1,57
 231 305 231 305 256 305 c 128,-1,58
 281 305 281 305 299 323 c 128,-1,59
 317 341 317 341 317 366 c 128,-1,60
 317 391 317 391 299 409 c 128,-1,53
 281 427 281 427 256 427 c 128,-1,54
EndSplineSet
Validated: 5
EndChar

StartChar: uniE906
Encoding: 59654 59654 66
Width: 512
GlyphClass: 2
Flags: W
LayerCount: 2
Fore
SplineSet
306 445 m 1,0,-1
 227 255 l 1,1,-1
 414 283 l 1,2,-1
 220 -61 l 1,3,-1
 249 164 l 1,4,-1
 98 143 l 1,5,-1
 156 410 l 1,6,-1
 306 445 l 1,0,-1
EndSplineSet
Validated: 1
EndChar

StartChar: uniE907
Encoding: 59655 59655 67
Width: 512
GlyphClass: 2
Flags: W
LayerCount: 2
Fore
SplineSet
303 361 m 1,0,-1
 511 13 l 1,1,-1
 1 13 l 1,2,-1
 140 269 l 1,3,-1
 244 130 l 1,4,-1
 281 157 l 1,5,-1
 216 245 l 1,6,-1
 303 361 l 1,0,-1
EndSplineSet
Validated: 1
EndChar

StartChar: uniE908
Encoding: 59656 59656 68
Width: 512
GlyphClass: 2
Flags: W
LayerCount: 2
Fore
SplineSet
503 223 m 1024,0,-1
342 190 m 1,1,2
 337 190 337 190 329 188 c 128,-1,3
 321 186 321 186 310.5 182.5 c 128,-1,4
 300 179 300 179 294 178 c 1,5,-1
 311 126 l 1,6,7
 326 132 326 132 336 132 c 0,8,9
 348 133 348 133 365.5 124.5 c 128,-1,10
 383 116 383 116 390 116 c 128,-1,11
 397 116 397 116 421 124 c 128,-1,12
 445 132 445 132 459 132 c 0,13,14
 472 132 472 132 488.5 124.5 c 128,-1,15
 505 117 505 117 511 119 c 1,16,17
 511 115 511 115 511 106 c 128,-1,18
 511 97 511 97 511 90 c 2,19,-1
 511 82 l 1,20,21
 506 84 506 84 499.5 87.5 c 128,-1,22
 493 91 493 91 479 95.5 c 128,-1,23
 465 100 465 100 459.5 100 c 128,-1,24
 454 100 454 100 431 91 c 128,-1,25
 408 82 408 82 399 82 c 256,26,27
 390 82 390 82 369.5 87.5 c 128,-1,28
 349 93 349 93 342 93 c 0,29,30
 336 93 336 93 323 90 c 1,31,-1
 340 35 l 1,32,33
 351 35 351 35 367 27 c 128,-1,34
 383 19 383 19 390 19 c 128,-1,35
 397 19 397 19 421 27 c 128,-1,36
 445 35 445 35 459 35 c 0,37,38
 472 36 472 36 488.5 28 c 128,-1,39
 505 20 505 20 511 22 c 1,40,41
 511 18 511 18 511 9 c 128,-1,42
 511 0 511 0 511 -7 c 2,43,-1
 511 -14 l 1,44,45
 506 -12 506 -12 499.5 -9 c 128,-1,46
 493 -6 493 -6 479 -1 c 128,-1,47
 465 4 465 4 459.5 3.5 c 128,-1,48
 454 3 454 3 431 -5.5 c 128,-1,49
 408 -14 408 -14 399 -14 c 0,50,51
 393 -14 393 -14 385.5 -12.5 c 128,-1,52
 378 -11 378 -11 368 -8.5 c 128,-1,53
 358 -6 358 -6 354 -5 c 2,54,-1
 363 -39 l 1,55,-1
 0 -39 l 1,56,-1
 1 423 l 1,57,-1
 217 423 l 1,58,-1
 249 318 l 1,59,60
 271 310 271 310 276 309 c 0,61,62
 282 309 282 309 303.5 317 c 128,-1,63
 325 325 325 325 336 326 c 0,64,65
 348 326 348 326 365.5 317.5 c 128,-1,66
 383 309 383 309 390 309 c 256,67,68
 397 309 397 309 421 317.5 c 128,-1,69
 445 326 445 326 459 326 c 0,70,71
 472 326 472 326 488.5 318.5 c 128,-1,72
 505 311 505 311 511 312 c 1,73,74
 511 309 511 309 511 300 c 128,-1,75
 511 291 511 291 511 283 c 2,76,-1
 511 276 l 1,77,78
 506 278 506 278 499.5 281 c 128,-1,79
 493 284 493 284 479 289 c 128,-1,80
 465 294 465 294 459.5 294 c 128,-1,81
 454 294 454 294 431 285 c 128,-1,82
 408 276 408 276 399 276 c 256,83,84
 390 276 390 276 369.5 281.5 c 128,-1,85
 349 287 349 287 341.5 287 c 128,-1,86
 334 287 334 287 311 279.5 c 128,-1,87
 288 272 288 272 280 272 c 0,88,89
 273 273 273 273 262 277 c 1,90,-1
 283 213 l 1,91,92
 287 214 287 214 306.5 221 c 128,-1,93
 326 228 326 228 336 229 c 0,94,95
 348 230 348 230 365.5 221 c 128,-1,96
 383 212 383 212 390 212 c 128,-1,97
 397 212 397 212 421 220.5 c 128,-1,98
 445 229 445 229 459 229 c 0,99,100
 472 229 472 229 488.5 221.5 c 128,-1,101
 505 214 505 214 511 215 c 1,102,103
 511 212 511 212 511 203 c 128,-1,104
 511 194 511 194 511 186 c 2,105,-1
 511 179 l 1,106,107
 506 181 506 181 499.5 184 c 128,-1,108
 493 187 493 187 479 192 c 128,-1,109
 465 197 465 197 459.5 197 c 128,-1,110
 454 197 454 197 431 188 c 128,-1,111
 408 179 408 179 399 179 c 256,112,113
 390 179 390 179 369.5 184.5 c 128,-1,114
 349 190 349 190 342 190 c 1,115,-1
 342 190 l 1,1,2
EndSplineSet
Validated: 37
EndChar

StartChar: uniE909
Encoding: 59657 59657 69
Width: 512
GlyphClass: 2
Flags: W
LayerCount: 2
Fore
SplineSet
416 235 m 1,0,1
 448 186 448 186 448 128 c 0,2,3
 448 76 448 76 422.5 32 c 128,-1,4
 397 -12 397 -12 352.5 -38 c 128,-1,5
 308 -64 308 -64 256 -64 c 128,-1,6
 204 -64 204 -64 159.5 -38 c 128,-1,7
 115 -12 115 -12 89.5 32 c 128,-1,8
 64 76 64 76 64 128 c 0,9,10
 64 198 64 198 108 251 c 2,11,-1
 256 448 l 1,12,-1
 403 252 l 2,13,14
 410 244 410 244 416 235 c 1,15,-1
 416 235 l 1,0,1
235 -7 m 1,16,-1
 350 197 l 1,17,-1
 239 181 l 1,18,-1
 286 293 l 1,19,-1
 196 272 l 1,20,-1
 162 114 l 1,21,-1
 252 126 l 1,22,-1
 235 -7 l 1,16,-1
EndSplineSet
Validated: 1
EndChar

StartChar: uniE90A
Encoding: 59658 59658 70
Width: 512
GlyphClass: 2
Flags: W
LayerCount: 2
Fore
SplineSet
256 448 m 128,-1,1
 308 448 308 448 355.5 427.5 c 128,-1,2
 403 407 403 407 437 373 c 128,-1,3
 471 339 471 339 491.5 291.5 c 128,-1,4
 512 244 512 244 512 192 c 128,-1,5
 512 140 512 140 491.5 92.5 c 128,-1,6
 471 45 471 45 437 11 c 128,-1,7
 403 -23 403 -23 355.5 -43.5 c 128,-1,8
 308 -64 308 -64 256 -64 c 128,-1,9
 204 -64 204 -64 156.5 -43.5 c 128,-1,10
 109 -23 109 -23 75 11 c 128,-1,11
 41 45 41 45 20.5 92.5 c 128,-1,12
 0 140 0 140 0 192 c 128,-1,13
 0 244 0 244 20.5 291.5 c 128,-1,14
 41 339 41 339 75 373 c 128,-1,15
 109 407 109 407 156.5 427.5 c 128,-1,0
 204 448 204 448 256 448 c 128,-1,1
145 161 m 0,16,17
 154 170 154 170 154 183 c 256,18,19
 154 196 154 196 145 205 c 0,20,21
 136 213 136 213 122 213 c 0,22,23
 109 213 109 213 101 205 c 0,24,25
 92 197 92 197 92 183 c 128,-1,26
 92 169 92 169 101 161 c 256,27,28
 110 153 110 153 122.5 153 c 128,-1,29
 135 153 135 153 145 161 c 0,16,17
279 161 m 0,30,31
 287 170 287 170 287 183 c 256,32,33
 287 196 287 196 279 205 c 0,34,35
 270 213 270 213 256 213 c 0,36,37
 243 213 243 213 235 205 c 0,38,39
 225 197 225 197 225 183 c 128,-1,40
 225 169 225 169 235 161 c 0,41,42
 243 153 243 153 256 153 c 128,-1,43
 269 153 269 153 279 161 c 0,30,31
412 161 m 0,44,45
 421 170 421 170 421 183 c 256,46,47
 421 196 421 196 412 205 c 0,48,49
 403 213 403 213 390 213 c 256,50,51
 377 213 377 213 368 204.5 c 128,-1,52
 359 196 359 196 359 183 c 128,-1,53
 359 170 359 170 368 161 c 0,54,55
 377 153 377 153 390 153 c 256,56,57
 403 153 403 153 412 161 c 0,44,45
EndSplineSet
Validated: 1
EndChar

StartChar: uniE90B
Encoding: 59659 59659 71
Width: 512
GlyphClass: 2
Flags: W
LayerCount: 2
Fore
SplineSet
338 25 m 1,0,1
 341 27 341 27 346.5 30.5 c 128,-1,2
 352 34 352 34 370.5 41 c 128,-1,3
 389 48 389 48 408 49.5 c 128,-1,4
 427 51 427 51 455.5 44 c 128,-1,5
 484 37 484 37 512 18 c 1,6,-1
 512 -38 l 1,7,-1
 0 -38 l 1,8,-1
 0 25 l 2,9,10
 3 27 3 27 7.5 30 c 128,-1,11
 12 33 12 33 29 40 c 128,-1,12
 46 47 46 47 65 49.5 c 128,-1,13
 84 52 84 52 114.5 48.5 c 128,-1,14
 145 45 145 45 177 33 c 0,15,16
 181 31 181 31 187.5 28 c 128,-1,17
 194 25 194 25 213 18.5 c 128,-1,18
 232 12 232 12 251 10 c 1,19,-1
 251 114 l 1,20,-1
 153 114 l 2,21,22
 144 114 144 114 139.5 122.5 c 128,-1,23
 135 131 135 131 140 139 c 2,24,25
 140 139 140 139 145.5 146.5 c 128,-1,26
 151 154 151 154 161 168 c 128,-1,27
 171 182 171 182 180 194 c 1,28,-1
 153 194 l 2,29,30
 144 194 144 194 139.5 202 c 128,-1,31
 135 210 135 210 139 218 c 2,32,-1
 252 414 l 2,33,34
 257 422 257 422 266 422 c 128,-1,35
 275 422 275 422 280 414 c 2,36,-1
 393 218 l 2,37,38
 397 210 397 210 392.5 202 c 128,-1,39
 388 194 388 194 379 194 c 2,40,-1
 352 194 l 1,41,42
 366 174 366 174 376 161 c 0,43,44
 377 159 377 159 378.5 157 c 128,-1,45
 380 155 380 155 384 148.5 c 128,-1,46
 388 142 388 142 390 136.5 c 128,-1,47
 392 131 392 131 392 125 c 128,-1,48
 392 119 392 119 387 116 c 0,49,50
 384 114 384 114 379 114 c 2,51,-1
 283 114 l 1,52,-1
 283 9 l 1,53,54
 313 11 313 11 338 25 c 1,55,-1
 338 25 l 1,0,1
EndSplineSet
Validated: 33
EndChar

StartChar: uniE90C
Encoding: 59660 59660 72
Width: 512
GlyphClass: 2
Flags: W
LayerCount: 2
Fore
SplineSet
442 74 m 1,0,1
 417 20 417 20 358 -23 c 1,2,-1
 315 16 l 1,3,4
 395 69 395 69 426 139 c 1,5,-1
 442 74 l 1,0,1
452 33 m 1,6,-1
 461 0 l 2,7,8
 464 -14 464 -14 458.5 -26.5 c 128,-1,9
 453 -39 453 -39 441 -47 c 2,10,-1
 433 -51 l 2,11,12
 422 -58 422 -58 408 -57 c 128,-1,13
 394 -56 394 -56 384 -46 c 2,14,-1
 379 -42 l 1,15,16
 425 -8 425 -8 452 33 c 1,17,-1
 452 33 l 1,6,-1
413 191 m 1,18,19
 411 175 411 175 404 159 c 128,-1,20
 397 143 397 143 384.5 122 c 128,-1,21
 372 101 372 101 348 78.5 c 128,-1,22
 324 56 324 56 293 36 c 1,23,-1
 253 73 l 1,24,25
 288 93 288 93 315 116.5 c 128,-1,26
 342 140 342 140 358 162.5 c 128,-1,27
 374 185 374 185 383 204 c 128,-1,28
 392 223 392 223 397 242 c 1,29,30
 375 214 375 214 343 190 c 1,31,32
 306 135 306 135 231 93 c 1,33,-1
 197 123 l 1,34,35
 161 117 161 117 133 123.5 c 128,-1,36
 105 130 105 130 94 148 c 0,37,38
 79 173 79 173 57 210 c 1,39,40
 71 206 71 206 90 206 c 0,41,42
 123 206 123 206 165.5 220 c 128,-1,43
 208 234 208 234 251 260 c 0,44,45
 306 293 306 293 345.5 335.5 c 128,-1,46
 385 378 385 378 387 413 c 1,47,48
 392 405 392 405 400 391.5 c 128,-1,49
 408 378 408 378 416.5 364 c 128,-1,50
 425 350 425 350 427 347 c 0,51,52
 438 327 438 327 430.5 300.5 c 128,-1,53
 423 274 423 274 400 245 c 1,54,-1
 413 191 l 1,18,19
100 234 m 2,55,56
 95 234 95 234 90 234 c 0,57,58
 61 234 61 234 53 247 c 0,59,60
 48 256 48 256 53 271.5 c 128,-1,61
 58 287 58 287 72 306 c 0,62,63
 107 352 107 352 173 391 c 0,64,65
 222 421 222 421 269 433 c 1,66,-1
 100 234 l 2,55,56
236 284 m 1,67,68
 190 256 190 256 145 243 c 1,69,-1
 313 441 l 2,70,71
 316 441 316 441 319 441 c 0,72,73
 349 441 349 441 356 428 c 0,74,75
 368 408 368 408 333.5 365 c 128,-1,76
 299 322 299 322 236 284 c 1,77,-1
 236 284 l 1,67,68
EndSplineSet
Validated: 37
EndChar

StartChar: uniE90D
Encoding: 59661 59661 73
Width: 512
GlyphClass: 2
Flags: W
LayerCount: 2
Fore
SplineSet
433 85 m 1,0,1
 459 78 459 78 477 65 c 128,-1,2
 495 52 495 52 501.5 39 c 128,-1,3
 508 26 508 26 510.5 14 c 128,-1,4
 513 2 513 2 512.5 -5 c 128,-1,5
 512 -12 512 -12 512 -13 c 2,6,-1
 0 -13 l 1,7,-1
 0 365 l 1,8,-1
 0 397 l 1,9,-1
 8 396 l 1,10,11
 32 398 32 398 59 388 c 128,-1,12
 86 378 86 378 108 361 c 128,-1,13
 130 344 130 344 153.5 321.5 c 128,-1,14
 177 299 177 299 193.5 279.5 c 128,-1,15
 210 260 210 260 226 242 c 128,-1,16
 242 224 242 224 249 218 c 256,17,18
 256 212 256 212 276.5 193 c 128,-1,19
 297 174 297 174 318.5 155 c 128,-1,20
 340 136 340 136 360 122 c 1,21,-1
 360 220 l 1,22,23
 336 228 336 228 320.5 252 c 128,-1,24
 305 276 305 276 305 307 c 0,25,26
 305 344 305 344 327 370.5 c 128,-1,27
 349 397 349 397 380.5 397 c 128,-1,28
 412 397 412 397 434.5 370.5 c 128,-1,29
 457 344 457 344 457 307 c 0,30,31
 457 276 457 276 441.5 252 c 128,-1,32
 426 228 426 228 402 220 c 1,33,-1
 402 96 l 1,34,35
 419 87 419 87 433 85 c 1,36,-1
 433 85 l 1,0,1
EndSplineSet
Validated: 33
EndChar

StartChar: uniE90E
Encoding: 59662 59662 74
Width: 512
GlyphClass: 2
Flags: W
LayerCount: 2
Fore
SplineSet
309.5 365 m 128,-1,1
 307 370 307 370 305.5 375.5 c 128,-1,2
 304 381 304 381 304 384 c 2,3,-1
 304 448 l 1,4,-1
 305 448 l 2,5,6
 309 448 309 448 313.5 446.5 c 128,-1,7
 318 445 318 445 324 441.5 c 128,-1,8
 330 438 330 438 338.5 431 c 128,-1,9
 347 424 347 424 359 413 c 0,10,11
 373 401 373 401 381 392 c 256,12,13
 389 383 389 383 393.5 377.5 c 128,-1,14
 398 372 398 372 399 368 c 256,15,16
 400 364 400 364 400 360 c 2,17,-1
 400 353 l 1,18,-1
 325 353 l 2,19,20
 319 353 319 353 315.5 356.5 c 128,-1,0
 312 360 312 360 309.5 365 c 128,-1,1
487.5 92.5 m 128,-1,22
 496 72 496 72 496 48.5 c 128,-1,23
 496 25 496 25 487.5 4.5 c 128,-1,24
 479 -16 479 -16 463.5 -31 c 128,-1,25
 448 -46 448 -46 427.5 -55 c 128,-1,26
 407 -64 407 -64 384 -64 c 256,27,28
 361 -64 361 -64 340.5 -55 c 128,-1,29
 320 -46 320 -46 304.5 -31 c 128,-1,30
 289 -16 289 -16 280 4.5 c 128,-1,31
 271 25 271 25 271 48.5 c 128,-1,32
 271 72 271 72 280 92.5 c 128,-1,33
 289 113 289 113 304.5 128.5 c 128,-1,34
 320 144 320 144 340.5 152.5 c 128,-1,35
 361 161 361 161 384 161 c 256,36,37
 407 161 407 161 427.5 152.5 c 128,-1,38
 448 144 448 144 463.5 128.5 c 128,-1,21
 479 113 479 113 487.5 92.5 c 128,-1,22
456 36 m 1,39,40
 459 41 459 41 459 48 c 128,-1,41
 459 55 459 55 455.5 60.5 c 128,-1,42
 452 66 452 66 448 66 c 2,43,-1
 399 66 l 1,44,-1
 399 110 l 2,45,46
 399 115 399 115 394.5 118 c 128,-1,47
 390 121 390 121 382.5 121 c 128,-1,48
 375 121 375 121 371 118 c 128,-1,49
 367 115 367 115 367 110 c 2,50,-1
 367 54 l 2,51,52
 366 50 366 50 366 48 c 0,53,54
 366 41 366 41 370 36 c 128,-1,55
 374 31 374 31 378 31 c 2,56,-1
 448 31 l 2,57,58
 452 31 452 31 456 36 c 1,59,-1
 456 36 l 1,39,40
238 64 m 1024,60,-1
238 49 m 2,61,62
 238 26 238 26 244.5 5.5 c 128,-1,63
 251 -15 251 -15 263 -33 c 1,64,-1
 82 -33 l 2,65,66
 72 -33 72 -33 60.5 -27 c 128,-1,67
 49 -21 49 -21 39 -12 c 128,-1,68
 29 -3 29 -3 22.5 9 c 128,-1,69
 16 21 16 21 16 33 c 2,70,-1
 16 382 l 2,71,72
 16 392 16 392 21 404 c 128,-1,73
 26 416 26 416 34 425.5 c 128,-1,74
 42 435 42 435 53 441.5 c 128,-1,75
 64 448 64 448 76 448 c 2,76,-1
 271 448 l 1,77,-1
 271 384 l 2,78,79
 271 374 271 374 274.5 363 c 128,-1,80
 278 352 278 352 284.5 342 c 128,-1,81
 291 332 291 332 301 326 c 128,-1,82
 311 320 311 320 325 320 c 2,83,-1
 400 320 l 1,84,-1
 400 193 l 1,85,86
 396 194 396 194 391 194 c 2,87,-1
 382 194 l 2,88,89
 343 194 343 194 311.5 176 c 128,-1,90
 280 158 280 158 261 128 c 1,91,-1
 112 128 l 2,92,93
 99 128 99 128 89.5 118.5 c 128,-1,94
 80 109 80 109 80 96 c 128,-1,95
 80 83 80 83 89.5 73.5 c 128,-1,96
 99 64 99 64 112 64 c 2,97,-1
 238 64 l 1,98,99
 238 60 238 60 238 57 c 2,100,-1
 238 49 l 2,61,62
89 247 m 1,101,102
 80 237 80 237 80 224 c 128,-1,103
 80 211 80 211 89.5 201.5 c 128,-1,104
 99 192 99 192 112 192 c 2,105,-1
 304 192 l 2,106,107
 317 192 317 192 326 201.5 c 128,-1,108
 335 211 335 211 335 224 c 128,-1,109
 335 237 335 237 326 246.5 c 128,-1,110
 317 256 317 256 304 256 c 2,111,-1
 112 256 l 2,112,113
 99 256 99 256 89 247 c 1,114,-1
 89 247 l 1,101,102
EndSplineSet
Validated: 1
EndChar

StartChar: uniE90F
Encoding: 59663 59663 75
Width: 512
GlyphClass: 2
Flags: W
LayerCount: 2
Fore
SplineSet
256 157 m 1024,0,-1
626 228 m 1024,1,-1
394 373 m 1,2,3
 432 373 432 373 459 346 c 128,-1,4
 486 319 486 319 486 281 c 2,5,-1
 486 28 l 2,6,7
 486 -9 486 -9 459 -36 c 128,-1,8
 432 -63 432 -63 394 -63 c 2,9,-1
 118 -63 l 2,10,11
 80 -63 80 -63 53 -36 c 128,-1,12
 26 -9 26 -9 26 28 c 2,13,-1
 26 281 l 2,14,15
 26 319 26 319 53 346 c 128,-1,16
 80 373 80 373 118 373 c 1,17,-1
 118 350 l 2,18,19
 118 331 118 331 131.5 317.5 c 128,-1,20
 145 304 145 304 164 304 c 128,-1,21
 183 304 183 304 196.5 317.5 c 128,-1,22
 210 331 210 331 210 350 c 2,23,-1
 210 373 l 1,24,-1
 302 373 l 1,25,-1
 302 350 l 2,26,27
 302 331 302 331 315.5 317.5 c 128,-1,28
 329 304 329 304 348 304 c 128,-1,29
 367 304 367 304 380.5 317.5 c 128,-1,30
 394 331 394 331 394 350 c 2,31,-1
 394 373 l 1,32,-1
 394 373 l 1,2,3
440 5 m 1,33,-1
 440 258 l 1,34,-1
 72 258 l 1,35,-1
 72 5 l 1,36,-1
 440 5 l 1,33,-1
96 143 m 1,37,-1
 96 189 l 1,38,-1
 141 189 l 1,39,-1
 141 143 l 1,40,-1
 96 143 l 1,37,-1
187 143 m 1,41,-1
 187 189 l 1,42,-1
 233 189 l 1,43,-1
 233 143 l 1,44,-1
 187 143 l 1,41,-1
279 143 m 1,45,-1
 279 189 l 1,46,-1
 325 189 l 1,47,-1
 325 143 l 1,48,-1
 279 143 l 1,45,-1
371 143 m 1,49,-1
 371 189 l 1,50,-1
 416 189 l 1,51,-1
 416 143 l 1,52,-1
 371 143 l 1,49,-1
96 51 m 1,53,-1
 96 97 l 1,54,-1
 141 97 l 1,55,-1
 141 51 l 1,56,-1
 96 51 l 1,53,-1
187 51 m 1,57,-1
 187 97 l 1,58,-1
 233 97 l 1,59,-1
 233 51 l 1,60,-1
 187 51 l 1,57,-1
279 51 m 1,61,-1
 279 97 l 1,62,-1
 325 97 l 1,63,-1
 325 51 l 1,64,-1
 279 51 l 1,61,-1
371 51 m 1,65,-1
 371 97 l 1,66,-1
 416 97 l 1,67,-1
 416 51 l 1,68,-1
 371 51 l 1,65,-1
166 327 m 128,-1,70
 155 327 155 327 147 335 c 128,-1,71
 139 343 139 343 138 354 c 2,72,-1
 138 420 l 2,73,74
 138 431 138 431 146.5 439 c 128,-1,75
 155 447 155 447 166 447 c 128,-1,76
 177 447 177 447 185 439 c 128,-1,77
 193 431 193 431 193 420 c 2,78,-1
 193 354 l 2,79,80
 193 343 193 343 185 335 c 128,-1,69
 177 327 177 327 166 327 c 128,-1,70
348 327 m 128,-1,82
 337 327 337 327 329 335 c 128,-1,83
 321 343 321 343 320 354 c 2,84,-1
 320 420 l 2,85,86
 320 431 320 431 328.5 439 c 128,-1,87
 337 447 337 447 348 447 c 128,-1,88
 359 447 359 447 367 439 c 128,-1,89
 375 431 375 431 375 420 c 2,90,-1
 375 354 l 2,91,92
 375 343 375 343 367 335 c 128,-1,81
 359 327 359 327 348 327 c 128,-1,82
EndSplineSet
Validated: 5
EndChar

StartChar: uniE910
Encoding: 59664 59664 76
Width: 512
GlyphClass: 2
Flags: W
LayerCount: 2
Fore
SplineSet
459 362 m 0,0,1
 460 358 460 358 460 355 c 2,2,-1
 460 346 l 1,3,-1
 380 346 l 2,4,5
 375 346 375 346 371 350 c 128,-1,6
 367 354 367 354 364 359.5 c 128,-1,7
 361 365 361 365 360 370.5 c 128,-1,8
 359 376 359 376 359 380 c 2,9,-1
 359 448 l 1,10,-1
 360 448 l 2,11,12
 364 448 364 448 368.5 446.5 c 128,-1,13
 373 445 373 445 379.5 441 c 128,-1,14
 386 437 386 437 395 430 c 128,-1,15
 404 423 404 423 417 411 c 0,16,17
 432 397 432 397 440 388 c 0,18,19
 449 379 449 379 453.5 373 c 128,-1,20
 458 367 458 367 459 362 c 0,0,1
355 318.5 m 128,-1,22
 366 312 366 312 381 312 c 2,23,-1
 460 312 l 1,24,-1
 460 248 l 1,25,-1
 460 176 l 1,26,-1
 460 7 l 2,27,28
 460 -7 460 -7 453 -19.5 c 128,-1,29
 446 -32 446 -32 435.5 -42 c 128,-1,30
 425 -52 425 -52 412.5 -58 c 128,-1,31
 400 -64 400 -64 390 -64 c 2,32,-1
 314 -64 l 1,33,-1
 197 -64 l 1,34,-1
 122 -64 l 2,35,36
 112 -64 112 -64 99.5 -58 c 128,-1,37
 87 -52 87 -52 76.5 -42 c 128,-1,38
 66 -32 66 -32 59 -19.5 c 128,-1,39
 52 -7 52 -7 52 7 c 2,40,-1
 52 176 l 1,41,-1
 52 200 l 1,42,-1
 52 377 l 2,43,44
 52 389 52 389 57.5 401 c 128,-1,45
 63 413 63 413 71.5 423.5 c 128,-1,46
 80 434 80 434 91.5 441 c 128,-1,47
 103 448 103 448 115 448 c 2,48,-1
 324 448 l 1,49,-1
 324 380 l 2,50,51
 324 369 324 369 327 357 c 128,-1,52
 330 345 330 345 337 335 c 128,-1,21
 344 325 344 325 355 318.5 c 128,-1,22
382 49 m 128,-1,54
 392 59 392 59 392 73.5 c 128,-1,55
 392 88 392 88 382 97.5 c 128,-1,56
 372 107 372 107 358 107 c 2,57,-1
 312 107 l 1,58,-1
 200 107 l 1,59,-1
 154 107 l 2,60,61
 140 107 140 107 130 97.5 c 128,-1,62
 120 88 120 88 120 73.5 c 128,-1,63
 120 59 120 59 130 49 c 128,-1,64
 140 39 140 39 154 39 c 2,65,-1
 224 39 l 1,66,-1
 224 39 l 1,67,-1
 288 39 l 1,68,-1
 288 39 l 1,69,-1
 358 39 l 2,70,53
 372 39 372 39 382 49 c 128,-1,54
392 209.5 m 128,-1,72
 392 224 392 224 382 234 c 128,-1,73
 372 244 372 244 358 244 c 2,74,-1
 154 244 l 2,75,76
 140 244 140 244 130 234 c 128,-1,77
 120 224 120 224 120 209.5 c 128,-1,78
 120 195 120 195 130 185.5 c 128,-1,79
 140 176 140 176 154 176 c 2,80,-1
 358 176 l 2,81,82
 372 176 372 176 382 185.5 c 128,-1,71
 392 195 392 195 392 209.5 c 128,-1,72
EndSplineSet
Validated: 1
EndChar

StartChar: uniE911
Encoding: 59665 59665 77
Width: 512
GlyphClass: 2
Flags: W
LayerCount: 2
Fore
SplineSet
491.5 289.5 m 128,-1,1
 511 243 511 243 511 192 c 128,-1,2
 511 141 511 141 491.5 94.5 c 128,-1,3
 472 48 472 48 436 12 c 128,-1,4
 400 -24 400 -24 353.5 -43.5 c 128,-1,5
 307 -63 307 -63 256 -63 c 128,-1,6
 205 -63 205 -63 158.5 -43.5 c 128,-1,7
 112 -24 112 -24 76 12 c 128,-1,8
 40 48 40 48 20.5 94.5 c 128,-1,9
 1 141 1 141 1 192 c 128,-1,10
 1 243 1 243 20.5 289.5 c 128,-1,11
 40 336 40 336 76 372 c 128,-1,12
 112 408 112 408 158.5 427.5 c 128,-1,13
 205 447 205 447 256 447 c 128,-1,14
 307 447 307 447 353.5 427.5 c 128,-1,15
 400 408 400 408 436 372 c 128,-1,0
 472 336 472 336 491.5 289.5 c 128,-1,1
366 99 m 0,16,17
 368 102 368 102 368 105 c 0,18,19
 368 110 368 110 364 114 c 128,-1,20
 360 118 360 118 355 118 c 2,21,-1
 173 118 l 1,22,-1
 173 343 l 2,23,24
 173 346 173 346 177 346 c 2,25,-1
 199 346 l 1,26,-1
 199 165 l 2,27,28
 199 159 199 159 203 155.5 c 128,-1,29
 207 152 207 152 212.5 152 c 128,-1,30
 218 152 218 152 222 155.5 c 128,-1,31
 226 159 226 159 226 165 c 2,32,-1
 226 346 l 1,33,-1
 330 346 l 2,34,35
 334 346 334 346 334 343 c 2,36,-1
 334 165 l 2,37,38
 334 160 334 160 338 156 c 128,-1,39
 342 152 342 152 347.5 152 c 128,-1,40
 353 152 353 152 356.5 156 c 128,-1,41
 360 160 360 160 360 165 c 2,42,-1
 360 343 l 2,43,44
 360 355 360 355 351.5 364 c 128,-1,45
 343 373 343 373 330 373 c 2,46,-1
 177 373 l 2,47,48
 165 373 165 373 156 364 c 128,-1,49
 147 355 147 355 147 343 c 2,50,-1
 147 103 l 2,51,52
 147 100 147 100 148 97.5 c 128,-1,53
 149 95 149 95 151 94 c 2,54,-1
 237 7 l 2,55,56
 245 -1 245 -1 257 -1 c 128,-1,57
 269 -1 269 -1 277 7 c 2,58,-1
 363 94 l 2,59,60
 365 96 365 96 366 99 c 0,16,17
EndSplineSet
Validated: 1
EndChar

StartChar: uniE912
Encoding: 59666 59666 78
Width: 512
GlyphClass: 2
Flags: W
LayerCount: 2
Fore
SplineSet
442 69 m 1,0,1
 475 42 475 42 469 4 c 0,2,3
 467 -10 467 -10 454.5 -22.5 c 128,-1,4
 442 -35 442 -35 426.5 -43.5 c 128,-1,5
 411 -52 411 -52 398 -57.5 c 128,-1,6
 385 -63 385 -63 378 -64 c 0,7,8
 374 -62 374 -62 326.5 -57.5 c 128,-1,9
 279 -53 279 -53 262 -54 c 0,10,11
 260 -54 260 -54 256 -54 c 1,12,-1
 256 -54 l 1,13,-1
 256 -54 l 1,14,15
 252 -54 252 -54 250 -54 c 0,16,17
 233 -53 233 -53 185.5 -57.5 c 128,-1,18
 138 -62 138 -62 134 -64 c 0,19,20
 127 -63 127 -63 114 -57.5 c 128,-1,21
 101 -52 101 -52 85.5 -43.5 c 128,-1,22
 70 -35 70 -35 57.5 -22.5 c 128,-1,23
 45 -10 45 -10 43 4 c 0,24,25
 37 42 37 42 70 69 c 0,26,27
 81 79 81 79 103.5 93 c 128,-1,28
 126 107 126 107 138 113 c 0,29,30
 144 116 144 116 157.5 122 c 128,-1,31
 171 128 171 128 179.5 132 c 128,-1,32
 188 136 188 136 189 138 c 0,33,34
 191 144 191 144 189 157 c 1,35,36
 180 167 180 167 168.5 182.5 c 128,-1,37
 157 198 157 198 153 209 c 0,38,39
 149 221 149 221 145.5 241 c 128,-1,40
 142 261 142 261 141 272 c 1,41,-1
 98 272 l 1,42,43
 100 294 100 294 107 305 c 0,44,45
 111 313 111 313 117.5 320.5 c 128,-1,46
 124 328 124 328 127 329 c 0,47,48
 127 342 127 342 134 362 c 128,-1,49
 141 382 141 382 157 398 c 0,50,51
 179 419 179 419 206.5 433.5 c 128,-1,52
 234 448 234 448 255 448 c 0,53,54
 256 448 256 448 256 448 c 129,-1,55
 256 448 256 448 256 448 c 1,56,57
 278 448 278 448 305.5 433.5 c 128,-1,58
 333 419 333 419 355 398 c 0,59,60
 371 382 371 382 378 362 c 128,-1,61
 385 342 385 342 385 329 c 0,62,63
 388 328 388 328 394.5 320.5 c 128,-1,64
 401 313 401 313 405 305 c 0,65,66
 408 300 408 300 410.5 292 c 128,-1,67
 413 284 413 284 413 278 c 2,68,-1
 414 272 l 1,69,-1
 371 272 l 1,70,71
 370 261 370 261 366.5 241 c 128,-1,72
 363 221 363 221 359 209 c 0,73,74
 355 198 355 198 343.5 182.5 c 128,-1,75
 332 167 332 167 323 157 c 1,76,77
 321 144 321 144 323 138 c 0,78,79
 324 136 324 136 332.5 132 c 128,-1,80
 341 128 341 128 354.5 122 c 128,-1,81
 368 116 368 116 374 113 c 0,82,83
 386 107 386 107 408.5 93 c 128,-1,84
 431 79 431 79 442 69 c 1,85,-1
 442 69 l 1,0,1
137 -37 m 1,86,87
 138 -36 138 -36 148 -35 c 1,88,-1
 128 78 l 1,89,90
 115 71 115 71 103 62 c 0,91,92
 66 35 66 35 69 14 c 0,93,94
 72 2 72 2 80.5 -8 c 128,-1,95
 89 -18 89 -18 100.5 -23.5 c 128,-1,96
 112 -29 112 -29 120.5 -32.5 c 128,-1,97
 129 -36 129 -36 137 -37 c 1,98,-1
 137 -37 l 1,86,87
443 14 m 1,99,100
 446 35 446 35 409 62 c 0,101,102
 397 71 397 71 384 78 c 1,103,-1
 364 -35 l 1,104,105
 374 -36 374 -36 375 -37 c 0,106,107
 383 -36 383 -36 391.5 -32.5 c 128,-1,108
 400 -29 400 -29 411.5 -23.5 c 128,-1,109
 423 -18 423 -18 431.5 -8 c 128,-1,110
 440 2 440 2 443 14 c 1,111,-1
 443 14 l 1,99,100
EndSplineSet
Validated: 37
EndChar

StartChar: uniE913
Encoding: 59667 59667 79
Width: 512
GlyphClass: 2
Flags: W
LayerCount: 2
Fore
SplineSet
256 448 m 128,-1,1
 308 448 308 448 355.5 427.5 c 128,-1,2
 403 407 403 407 437 373 c 128,-1,3
 471 339 471 339 491.5 291.5 c 128,-1,4
 512 244 512 244 512 192 c 128,-1,5
 512 140 512 140 491.5 92.5 c 128,-1,6
 471 45 471 45 437 11 c 128,-1,7
 403 -23 403 -23 355.5 -43.5 c 128,-1,8
 308 -64 308 -64 256 -64 c 128,-1,9
 204 -64 204 -64 156.5 -43.5 c 128,-1,10
 109 -23 109 -23 75 11 c 128,-1,11
 41 45 41 45 20.5 92.5 c 128,-1,12
 0 140 0 140 0 192 c 128,-1,13
 0 244 0 244 20.5 291.5 c 128,-1,14
 41 339 41 339 75 373 c 128,-1,15
 109 407 109 407 156.5 427.5 c 128,-1,0
 204 448 204 448 256 448 c 128,-1,1
297 49 m 1,16,-1
 297 100 l 1,17,-1
 226 100 l 1,18,-1
 226 49 l 1,19,-1
 297 49 l 1,16,-1
306 309 m 2,20,21
 306 310 306 310 305 314 c 128,-1,22
 304 318 304 318 300.5 323.5 c 128,-1,23
 297 329 297 329 291.5 334.5 c 128,-1,24
 286 340 286 340 277.5 344 c 128,-1,25
 269 348 269 348 259 349 c 0,26,27
 249 349 249 349 241 345.5 c 128,-1,28
 233 342 233 342 228 336 c 128,-1,29
 223 330 223 330 219.5 324.5 c 128,-1,30
 216 319 216 319 215 315 c 2,31,-1
 214 311 l 1,32,-1
 230 121 l 1,33,-1
 292 121 l 1,34,-1
 289 124 l 1,35,-1
 306 309 l 2,20,21
EndSplineSet
Validated: 1
EndChar

StartChar: uniE914
Encoding: 59668 59668 80
Width: 512
GlyphClass: 2
Flags: W
LayerCount: 2
Fore
SplineSet
320 312 m 1,0,1
 320 305 320 305 316.5 300.5 c 128,-1,2
 313 296 313 296 309 296 c 2,3,-1
 203 296 l 2,4,5
 199 296 199 296 195.5 300.5 c 128,-1,6
 192 305 192 305 192 312 c 2,7,-1
 192 431 l 2,8,9
 192 438 192 438 195.5 442.5 c 128,-1,10
 199 447 199 447 203 447 c 2,11,-1
 309 447 l 2,12,13
 313 447 313 447 316.5 442.5 c 128,-1,14
 320 438 320 438 320 431 c 2,15,-1
 320 312 l 1,16,-1
 320 312 l 1,0,1
320 -47 m 1,17,18
 320 -54 320 -54 316.5 -58.5 c 128,-1,19
 313 -63 313 -63 309 -63 c 2,20,-1
 203 -63 l 2,21,22
 199 -63 199 -63 195.5 -58.5 c 128,-1,23
 192 -54 192 -54 192 -47 c 2,24,-1
 192 72 l 2,25,26
 192 79 192 79 195.5 83.5 c 128,-1,27
 199 88 199 88 203 88 c 2,28,-1
 309 88 l 2,29,30
 313 88 313 88 316.5 83.5 c 128,-1,31
 320 79 320 79 320 72 c 2,32,-1
 320 -47 l 1,33,-1
 320 -47 l 1,17,18
510 -47 m 1,34,35
 510 -54 510 -54 506.5 -58.5 c 128,-1,36
 503 -63 503 -63 498 -63 c 2,37,-1
 393 -63 l 2,38,39
 389 -63 389 -63 385.5 -58.5 c 128,-1,40
 382 -54 382 -54 382 -47 c 2,41,-1
 382 72 l 2,42,43
 382 79 382 79 385.5 83.5 c 128,-1,44
 389 88 389 88 393 88 c 2,45,-1
 498 88 l 2,46,47
 503 88 503 88 506.5 83.5 c 128,-1,48
 510 79 510 79 510 72 c 2,49,-1
 510 -47 l 1,50,-1
 510 -47 l 1,34,35
130 -47 m 1,51,52
 130 -54 130 -54 126.5 -58.5 c 128,-1,53
 123 -63 123 -63 119 -63 c 2,54,-1
 14 -63 l 2,55,56
 9 -63 9 -63 5.5 -58.5 c 128,-1,57
 2 -54 2 -54 2 -47 c 2,58,-1
 2 72 l 2,59,60
 2 79 2 79 5.5 83.5 c 128,-1,61
 9 88 9 88 14 88 c 2,62,-1
 119 88 l 2,63,64
 123 88 123 88 126.5 83.5 c 128,-1,65
 130 79 130 79 130 72 c 2,66,-1
 130 -47 l 1,67,-1
 130 -47 l 1,51,52
275 234 m 1,68,-1
 463 234 l 1,69,-1
 463 179 l 1,70,-1
 463 178 l 1,71,-1
 463 107 l 1,72,-1
 426 107 l 1,73,-1
 426 178 l 1,74,-1
 275 178 l 1,75,-1
 275 107 l 1,76,-1
 237 107 l 1,77,-1
 237 178 l 1,78,-1
 86 178 l 1,79,-1
 86 107 l 1,80,-1
 49 107 l 1,81,-1
 49 178 l 1,82,-1
 49 179 l 1,83,-1
 49 234 l 1,84,-1
 237 234 l 1,85,-1
 237 277 l 1,86,-1
 275 277 l 1,87,-1
 275 234 l 1,68,-1
EndSplineSet
Validated: 5
EndChar

StartChar: uniE915
Encoding: 59669 59669 81
Width: 512
GlyphClass: 2
Flags: W
LayerCount: 2
Fore
SplineSet
503 223 m 1024,0,-1
626 228 m 1024,1,-1
249 347 m 0,2,3
 245 349 245 349 242 353 c 128,-1,4
 239 357 239 357 238 363.5 c 128,-1,5
 237 370 237 370 237 375 c 128,-1,6
 237 380 237 380 237.5 389.5 c 128,-1,7
 238 399 238 399 238 403 c 0,8,9
 238 406 238 406 237.5 413.5 c 128,-1,10
 237 421 237 421 237 426 c 128,-1,11
 237 431 237 431 239 434 c 0,12,13
 239 436 239 436 240 437.5 c 128,-1,14
 241 439 241 439 242.5 440 c 128,-1,15
 244 441 244 441 244.5 442 c 128,-1,16
 245 443 245 443 247 444 c 128,-1,17
 249 445 249 445 249.5 445 c 128,-1,18
 250 445 250 445 253 446 c 128,-1,19
 256 447 256 447 256 448 c 1,20,21
 263 448 263 448 267 446.5 c 128,-1,22
 271 445 271 445 274 441.5 c 128,-1,23
 277 438 277 438 278.5 434 c 128,-1,24
 280 430 280 430 280 424 c 128,-1,25
 280 418 280 418 280 413.5 c 128,-1,26
 280 409 280 409 280 401.5 c 128,-1,27
 280 394 280 394 280 389 c 0,28,29
 280 387 280 387 280 380.5 c 128,-1,30
 280 374 280 374 280 370 c 128,-1,31
 280 366 280 366 279.5 361.5 c 128,-1,32
 279 357 279 357 277 355 c 0,33,34
 272 346 272 346 261 344 c 0,35,36
 256 344 256 344 249 347 c 0,2,3
114 333 m 0,37,38
 113 334 113 334 98 353 c 0,39,40
 97 354 97 354 94.5 357 c 128,-1,41
 92 360 92 360 91 361.5 c 128,-1,42
 90 363 90 363 88 366.5 c 128,-1,43
 86 370 86 370 85.5 372 c 128,-1,44
 85 374 85 374 85 377 c 128,-1,45
 85 380 85 380 86 383 c 128,-1,46
 87 386 87 386 90 389 c 0,47,48
 91 391 91 391 93 392 c 128,-1,49
 95 393 95 393 96 393.5 c 128,-1,50
 97 394 97 394 100 395 c 128,-1,51
 103 396 103 396 104 397 c 0,52,53
 114 397 114 397 120 392 c 0,54,55
 140 367 140 367 150 355 c 0,56,57
 151 353 151 353 154.5 349.5 c 128,-1,58
 158 346 158 346 161 342.5 c 128,-1,59
 164 339 164 339 165 335 c 0,60,61
 168 328 168 328 165 320.5 c 128,-1,62
 162 313 162 313 156 310 c 0,63,64
 151 306 151 306 144 307 c 128,-1,65
 137 308 137 308 132 311 c 0,66,67
 129 313 129 313 126 316.5 c 128,-1,68
 123 320 123 320 119 325.5 c 128,-1,69
 115 331 115 331 114 333 c 0,37,38
360 304 m 0,70,71
 353 308 353 308 350.5 316 c 128,-1,72
 348 324 348 324 352 333 c 0,73,74
 356 337 356 337 362.5 344.5 c 128,-1,75
 369 352 369 352 372 356 c 0,76,77
 375 359 375 359 380.5 365 c 128,-1,78
 386 371 386 371 389 374 c 0,79,80
 397 384 397 384 401 386 c 0,81,82
 406 388 406 388 409 389 c 0,83,84
 421 390 421 390 429 381.5 c 128,-1,85
 437 373 437 373 432 361 c 0,86,87
 430 358 430 358 427.5 354.5 c 128,-1,88
 425 351 425 351 421.5 347.5 c 128,-1,89
 418 344 418 344 416 342 c 0,90,91
 408 333 408 333 395 319 c 0,92,93
 386 307 386 307 383 305 c 0,94,95
 378 302 378 302 371.5 301.5 c 128,-1,96
 365 301 365 301 360 304 c 0,70,71
129 204 m 0,97,98
 144 255 144 255 188 281 c 0,99,100
 207 292 207 292 231 298 c 0,101,102
 234 298 234 298 239.5 298.5 c 128,-1,103
 245 299 245 299 248 299 c 0,104,105
 253 299 253 299 263 299 c 0,106,107
 291 295 291 295 295 294 c 0,108,109
 328 284 328 284 350.5 261 c 128,-1,110
 373 238 373 238 383 204 c 0,111,112
 385 198 385 198 386 188 c 128,-1,113
 387 178 387 178 387 172.5 c 128,-1,114
 387 167 387 167 387 151.5 c 128,-1,115
 387 136 387 136 387 135 c 2,116,-1
 387 14 l 1,117,-1
 125 14 l 1,118,-1
 125 134 l 2,119,120
 125 139 125 139 124.5 149 c 128,-1,121
 124 159 124 159 124.5 164.5 c 128,-1,122
 125 170 125 170 125 178 c 128,-1,123
 125 186 125 186 126 192.5 c 128,-1,124
 127 199 127 199 129 204 c 0,97,98
87 206 m 0,125,126
 82 205 82 205 68 209 c 0,127,128
 40 214 40 214 33 216 c 0,129,130
 30 216 30 216 24 217 c 128,-1,131
 18 218 18 218 14.5 219.5 c 128,-1,132
 11 221 11 221 8 223 c 0,133,134
 1 228 1 228 0.5 238.5 c 128,-1,135
 0 249 0 249 7 254 c 0,136,137
 8 255 8 255 19 260 c 0,138,139
 24 260 24 260 38 257 c 0,140,141
 44 256 44 256 56 253.5 c 128,-1,142
 68 251 68 251 73 250 c 0,143,144
 76 249 76 249 80 248.5 c 128,-1,145
 84 248 84 248 86.5 247.5 c 128,-1,146
 89 247 89 247 92 245.5 c 128,-1,147
 95 244 95 244 97 242 c 0,148,149
 102 238 102 238 103.5 231 c 128,-1,150
 105 224 105 224 101 216 c 256,151,152
 97 208 97 208 87 206 c 0,125,126
488 249 m 0,153,154
 502 249 502 249 508.5 238 c 128,-1,155
 515 227 515 227 507 216 c 0,156,157
 505 213 505 213 501.5 211 c 128,-1,158
 498 209 498 209 495.5 208.5 c 128,-1,159
 493 208 493 208 487 207 c 128,-1,160
 481 206 481 206 478 206 c 0,161,162
 472 205 472 205 460 203 c 128,-1,163
 448 201 448 201 443 200 c 0,164,165
 428 197 428 197 424 198 c 0,166,167
 413 201 413 201 409 210 c 256,168,169
 405 219 405 219 408.5 227 c 128,-1,170
 412 235 412 235 419 238 c 0,171,172
 422 239 422 239 428.5 240 c 128,-1,173
 435 241 435 241 436 241 c 0,174,175
 462 245 462 245 472 247 c 0,176,177
 478 248 478 248 488 249 c 0,153,154
355 -4 m 1,178,179
 361 -4 361 -4 373.5 -3.5 c 128,-1,180
 386 -3 386 -3 392 -3 c 128,-1,181
 398 -3 398 -3 406.5 -4.5 c 128,-1,182
 415 -6 415 -6 420.5 -9.5 c 128,-1,183
 426 -13 426 -13 429 -19 c 0,184,185
 435 -28 435 -28 433 -37 c 0,186,187
 432 -44 432 -44 429 -49 c 128,-1,188
 426 -54 426 -54 421.5 -56.5 c 128,-1,189
 417 -59 417 -59 412.5 -61 c 128,-1,190
 408 -63 408 -63 400 -63.5 c 128,-1,191
 392 -64 392 -64 386.5 -64 c 128,-1,192
 381 -64 381 -64 371.5 -63.5 c 128,-1,193
 362 -63 362 -63 356 -63 c 2,194,-1
 172 -63 l 1,195,-1
 119 -63 l 2,196,197
 96 -63 96 -63 92 -62 c 0,198,199
 79 -57 79 -57 73.5 -44.5 c 128,-1,200
 68 -32 68 -32 76 -18 c 0,201,202
 81 -10 81 -10 90 -6 c 0,203,204
 92 -5 92 -5 95 -4.5 c 128,-1,205
 98 -4 98 -4 99 -4 c 2,206,-1
 355 -4 l 1,207,-1
 355 -4 l 1,178,179
EndSplineSet
Validated: 37
EndChar

StartChar: uniE916
Encoding: 59670 59670 82
Width: 512
GlyphClass: 2
Flags: W
LayerCount: 2
Fore
SplineSet
484 -40 m 1,0,-1
 485 -42 l 1,1,2
 485 -51 485 -51 478.5 -57 c 128,-1,3
 472 -63 472 -63 463.5 -63 c 128,-1,4
 455 -63 455 -63 449 -57 c 128,-1,5
 443 -51 443 -51 443 -42 c 2,6,-1
 443 -40 l 1,7,8
 443 -40 443 -40 443 -38 c 0,9,10
 434 31 434 31 381.5 76.5 c 128,-1,11
 329 122 329 122 258 122 c 2,12,13
 258 122 258 122 257 122 c 128,-1,14
 256 122 256 122 255.5 122 c 128,-1,15
 255 122 255 122 254.5 122 c 128,-1,16
 254 122 254 122 254 122 c 2,17,18
 183 122 183 122 131 77.5 c 128,-1,19
 79 33 79 33 69 -34 c 0,20,21
 70 -38 70 -38 70 -40 c 2,22,-1
 70 -42 l 2,23,24
 70 -51 70 -51 64 -57 c 128,-1,25
 58 -63 58 -63 49 -63 c 128,-1,26
 40 -63 40 -63 34 -57 c 128,-1,27
 28 -51 28 -51 28 -42 c 1,28,-1
 28 -42 l 1,29,-1
 27 -42 l 2,30,31
 27 -41 27 -41 27.5 -40.5 c 128,-1,32
 28 -40 28 -40 28 -40 c 2,33,34
 28 -38 28 -38 28 -35 c 0,35,36
 36 28 36 28 75 76.5 c 128,-1,37
 114 125 114 125 171 147 c 1,38,39
 138 169 138 169 118 205.5 c 128,-1,40
 98 242 98 242 98 285 c 0,41,42
 98 329 98 329 119 366.5 c 128,-1,43
 140 404 140 404 176 425.5 c 128,-1,44
 212 447 212 447 255.5 447 c 128,-1,45
 299 447 299 447 335.5 425.5 c 128,-1,46
 372 404 372 404 393 366.5 c 128,-1,47
 414 329 414 329 414 285 c 0,48,49
 414 242 414 242 394 205.5 c 128,-1,50
 374 169 374 169 340 147 c 1,51,52
 398 125 398 125 436.5 77 c 128,-1,53
 475 29 475 29 483 -33 c 0,54,55
 484 -37 484 -37 484 -40 c 1,56,-1
 484 -40 l 1,0,-1
255.5 162 m 128,-1,58
 306 162 306 162 341.5 198 c 128,-1,59
 377 234 377 234 377 285 c 128,-1,60
 377 336 377 336 341.5 371.5 c 128,-1,61
 306 407 306 407 255.5 407 c 128,-1,62
 205 407 205 407 169.5 371.5 c 128,-1,63
 134 336 134 336 134 285 c 128,-1,64
 134 234 134 234 169.5 198 c 128,-1,57
 205 162 205 162 255.5 162 c 128,-1,58
EndSplineSet
Validated: 5
EndChar

StartChar: uniE917
Encoding: 59671 59671 83
Width: 512
GlyphClass: 2
Flags: W
LayerCount: 2
Fore
SplineSet
336 143 m 1,0,1
 361 136 361 136 383 126.5 c 128,-1,2
 405 117 405 117 429.5 100 c 128,-1,3
 454 83 454 83 471 61.5 c 128,-1,4
 488 40 488 40 499.5 7.5 c 128,-1,5
 511 -25 511 -25 511 -64 c 1,6,-1
 256 -64 l 1,7,-1
 1 -64 l 1,8,9
 1 52 1 52 98 110 c 0,10,11
 113 118 113 118 120 104 c 0,12,13
 124 96 124 96 122.5 90.5 c 128,-1,14
 121 85 121 85 117 82 c 2,15,-1
 113 79 l 1,16,17
 51 40 51 40 39 -27 c 1,18,-1
 256 -27 l 1,19,-1
 473 -27 l 1,20,21
 468 1 468 1 453 24.5 c 128,-1,22
 438 48 438 48 419.5 63 c 128,-1,23
 401 78 401 78 378 89 c 128,-1,24
 355 100 355 100 336 105 c 128,-1,25
 317 110 317 110 297 113.5 c 128,-1,26
 277 117 277 117 269 117.5 c 128,-1,27
 261 118 261 118 256 118 c 0,28,29
 214 118 214 118 179 140 c 128,-1,30
 144 162 144 162 123.5 200 c 128,-1,31
 103 238 103 238 103 283 c 128,-1,32
 103 328 103 328 123.5 366 c 128,-1,33
 144 404 144 404 179 426 c 128,-1,34
 214 448 214 448 256 448 c 128,-1,35
 298 448 298 448 333 426 c 128,-1,36
 368 404 368 404 388.5 366 c 128,-1,37
 409 328 409 328 409 283 c 0,38,39
 409 239 409 239 389 202 c 128,-1,40
 369 165 369 165 336 143 c 1,41,-1
 336 143 l 1,0,1
137 283 m 128,-1,43
 137 230 137 230 172 192.5 c 128,-1,44
 207 155 207 155 256 155 c 128,-1,45
 305 155 305 155 340 192.5 c 128,-1,46
 375 230 375 230 375 283 c 128,-1,47
 375 336 375 336 340 373.5 c 128,-1,48
 305 411 305 411 256 411 c 128,-1,49
 207 411 207 411 172 373.5 c 128,-1,42
 137 336 137 336 137 283 c 128,-1,43
EndSplineSet
Validated: 37
EndChar

StartChar: uniE918
Encoding: 59672 59672 84
Width: 512
GlyphClass: 2
Flags: W
LayerCount: 2
Fore
SplineSet
256 397 m 1,0,1
 211 397 211 397 178.5 367 c 128,-1,2
 146 337 146 337 146 294 c 1,3,-1
 91 294 l 1,4,5
 91 336 91 336 113 371.5 c 128,-1,6
 135 407 135 407 173 427.5 c 128,-1,7
 211 448 211 448 256 448 c 128,-1,8
 301 448 301 448 339 427.5 c 128,-1,9
 377 407 377 407 399 371.5 c 128,-1,10
 421 336 421 336 421 294 c 1,11,-1
 366 294 l 1,12,13
 366 337 366 337 333.5 367 c 128,-1,14
 301 397 301 397 256 397 c 1,15,-1
 256 397 l 1,0,1
439 260 m 2,16,17
 454 260 454 260 464.5 250 c 128,-1,18
 475 240 475 240 475 226 c 2,19,-1
 475 -30 l 2,20,21
 475 -44 475 -44 464.5 -54 c 128,-1,22
 454 -64 454 -64 439 -64 c 2,23,-1
 73 -64 l 2,24,25
 58 -64 58 -64 47.5 -54 c 128,-1,26
 37 -44 37 -44 37 -30 c 2,27,-1
 37 226 l 2,28,29
 37 240 37 240 47.5 250 c 128,-1,30
 58 260 58 260 73 260 c 2,31,-1
 439 260 l 2,16,17
445 -31 m 2,32,-1
 445 222 l 2,33,34
 445 225 445 225 443 227 c 128,-1,35
 441 229 441 229 438 229 c 2,36,-1
 76 229 l 2,37,38
 73 229 73 229 71 227 c 128,-1,39
 69 225 69 225 69 222 c 2,40,-1
 69 -31 l 2,41,42
 69 -34 69 -34 71 -36 c 128,-1,43
 73 -38 73 -38 76 -38 c 2,44,-1
 438 -38 l 2,45,46
 441 -38 441 -38 443 -36 c 128,-1,47
 445 -34 445 -34 445 -31 c 2,32,-1
256 175 m 128,-1,49
 279 175 279 175 295 160 c 128,-1,50
 311 145 311 145 311 124 c 0,51,52
 311 110 311 110 303.5 98 c 128,-1,53
 296 86 296 86 283 80 c 1,54,-1
 283 31 l 2,55,56
 283 20 283 20 275 12 c 128,-1,57
 267 4 267 4 256 4 c 128,-1,58
 245 4 245 4 237 12 c 128,-1,59
 229 20 229 20 229 31 c 2,60,-1
 229 80 l 1,61,62
 216 86 216 86 208.5 98 c 128,-1,63
 201 110 201 110 201 124 c 0,64,65
 201 145 201 145 217 160 c 128,-1,48
 233 175 233 175 256 175 c 128,-1,49
EndSplineSet
Validated: 5
EndChar

StartChar: uniE919
Encoding: 59673 59673 85
Width: 512
GlyphClass: 2
Flags: W
LayerCount: 2
Fore
SplineSet
469 50 m 1,0,-1
 469 50 l 1,1,2
 487 43 487 43 499 27.5 c 128,-1,3
 511 12 511 12 511 -7 c 2,4,-1
 511 -19 l 2,5,6
 511 -39 511 -39 496.5 -51 c 128,-1,7
 482 -63 482 -63 461 -63 c 2,8,-1
 280 -63 l 1,9,-1
 221 -63 l 1,10,-1
 51 -63 l 2,11,12
 30 -63 30 -63 15.5 -51 c 128,-1,13
 1 -39 1 -39 1 -19 c 2,14,-1
 1 -7 l 2,15,16
 1 12 1 12 13 27.5 c 128,-1,17
 25 43 25 43 43 49 c 2,18,-1
 145 95 l 2,19,20
 172 103 172 103 180 111 c 0,21,22
 184 116 184 116 184.5 127 c 128,-1,23
 185 138 185 138 180 148 c 0,24,25
 180 149 180 149 169 166 c 128,-1,26
 158 183 158 183 148.5 199.5 c 128,-1,27
 139 216 139 216 130.5 240 c 128,-1,28
 122 264 122 264 122 283 c 0,29,30
 122 328 122 328 140 365.5 c 128,-1,31
 158 403 158 403 188.5 425 c 128,-1,32
 219 447 219 447 255.5 447 c 128,-1,33
 292 447 292 447 322.5 425 c 128,-1,34
 353 403 353 403 370.5 365.5 c 128,-1,35
 388 328 388 328 388 283 c 0,36,37
 388 263 388 263 379 239 c 128,-1,38
 370 215 370 215 359 197.5 c 128,-1,39
 348 180 348 180 337.5 164 c 128,-1,40
 327 148 327 148 326 144 c 0,41,42
 318 118 318 118 326 110 c 0,43,44
 330 107 330 107 337.5 103 c 128,-1,45
 345 99 345 99 350 96 c 2,46,-1
 356 94 l 1,47,-1
 469 50 l 1,0,-1
EndSplineSet
Validated: 37
EndChar

StartChar: uniE91A
Encoding: 59674 59674 86
Width: 512
GlyphClass: 2
Flags: W
LayerCount: 2
Fore
SplineSet
503 223 m 1024,0,-1
504 241 m 0,1,2
 510 210 510 210 510 192 c 0,3,4
 510 171 510 171 504 142 c 0,5,6
 502 131 502 131 496 124.5 c 128,-1,7
 490 118 490 118 482 119 c 2,8,-1
 480 119 l 2,9,10
 453 119 453 119 433.5 99.5 c 128,-1,11
 414 80 414 80 414 53 c 0,12,13
 414 47 414 47 415.5 41 c 128,-1,14
 417 35 417 35 418.5 31.5 c 128,-1,15
 420 28 420 28 420 27 c 0,16,17
 424 18 424 18 421 7.5 c 128,-1,18
 418 -3 418 -3 410 -9 c 1,19,-1
 409 -9 l 1,20,-1
 345 -45 l 1,21,-1
 344 -45 l 2,22,23
 338 -47 338 -47 332 -47 c 0,24,25
 317 -47 317 -47 308 -37 c 128,-1,26
 299 -27 299 -27 283.5 -16.5 c 128,-1,27
 268 -6 268 -6 254.5 -6 c 128,-1,28
 241 -6 241 -6 225.5 -16.5 c 128,-1,29
 210 -27 210 -27 202 -37 c 0,30,31
 192 -47 192 -47 178 -47 c 0,32,33
 171 -47 171 -47 166 -44 c 2,34,-1
 165 -44 l 1,35,-1
 103 -9 l 1,36,-1
 102 -9 l 1,37,38
 94 -3 94 -3 91 7.5 c 128,-1,39
 88 18 88 18 92 27 c 2,40,41
 92 27 92 27 92.5 28 c 128,-1,42
 93 29 93 29 93.5 30.5 c 128,-1,43
 94 32 94 32 94.5 33.5 c 128,-1,44
 95 35 95 35 95.5 37.5 c 128,-1,45
 96 40 96 40 96.5 42.5 c 128,-1,46
 97 45 97 45 97.5 47.5 c 128,-1,47
 98 50 98 50 98 53 c 0,48,49
 98 80 98 80 78.5 99.5 c 128,-1,50
 59 119 59 119 32 119 c 2,51,-1
 30 119 l 2,52,53
 22 119 22 119 16 125 c 128,-1,54
 10 131 10 131 8 142 c 0,55,56
 2 171 2 171 2 192 c 256,57,58
 2 213 2 213 8 241 c 0,59,60
 10 252 10 252 16 258.5 c 128,-1,61
 22 265 22 265 30 265 c 2,62,-1
 32 265 l 2,63,64
 59 265 59 265 78.5 284.5 c 128,-1,65
 98 304 98 304 98 331 c 0,66,67
 98 336 98 336 96.5 342.5 c 128,-1,68
 95 349 95 349 93.5 352.5 c 128,-1,69
 92 356 92 356 92 356 c 2,70,71
 88 366 88 366 91 376 c 128,-1,72
 94 386 94 386 102 392 c 2,73,-1
 103 393 l 1,74,-1
 168 429 l 1,75,-1
 169 429 l 2,76,77
 175 431 175 431 181 431 c 0,78,79
 196 431 196 431 205 422 c 0,80,81
 214 412 214 412 229 402 c 128,-1,82
 244 392 244 392 257 392 c 128,-1,83
 270 392 270 392 285 402 c 128,-1,84
 300 412 300 412 309 421 c 0,85,86
 318 431 318 431 333 431 c 0,87,88
 339 431 339 431 345 428 c 2,89,-1
 346 428 l 1,90,-1
 409 393 l 1,91,-1
 410 392 l 2,92,93
 418 386 418 386 421 376 c 128,-1,94
 424 366 424 366 420 356 c 1,95,96
 420 356 420 356 419.5 355.5 c 128,-1,97
 419 355 419 355 419 354 c 128,-1,98
 419 353 419 353 418.5 352 c 128,-1,99
 418 351 418 351 417.5 349.5 c 128,-1,100
 417 348 417 348 416.5 346.5 c 128,-1,101
 416 345 416 345 415.5 343 c 128,-1,102
 415 341 415 341 414.5 339 c 128,-1,103
 414 337 414 337 414 335 c 128,-1,104
 414 333 414 333 414 331 c 0,105,106
 414 304 414 304 433.5 284.5 c 128,-1,107
 453 265 453 265 480 265 c 2,108,-1
 482 265 l 2,109,110
 490 265 490 265 496 258.5 c 128,-1,111
 502 252 502 252 504 241 c 0,1,2
255 104 m 1,112,113
 291 104 291 104 317 130 c 128,-1,114
 343 156 343 156 343 192 c 128,-1,115
 343 228 343 228 317 254 c 128,-1,116
 291 280 291 280 255 280 c 128,-1,117
 219 280 219 280 193 254 c 128,-1,118
 167 228 167 228 167 192 c 128,-1,119
 167 156 167 156 193 130 c 128,-1,120
 219 104 219 104 255 104 c 1,121,-1
 255 104 l 1,112,113
255 250 m 128,-1,123
 279 250 279 250 296 233 c 128,-1,124
 313 216 313 216 313 192 c 128,-1,125
 313 168 313 168 296 151 c 128,-1,126
 279 134 279 134 255 134 c 128,-1,127
 231 134 231 134 214 151 c 128,-1,128
 197 168 197 168 197 192 c 128,-1,129
 197 216 197 216 214 233 c 128,-1,122
 231 250 231 250 255 250 c 128,-1,123
EndSplineSet
Validated: 37
EndChar

StartChar: uniE91B
Encoding: 59675 59675 87
Width: 512
GlyphClass: 2
Flags: W
LayerCount: 2
Fore
SplineSet
257 273 m 0,0,1
 270 273 270 273 287 257 c 0,2,3
 292 253 292 253 446 112 c 1,4,-1
 446 6 l 2,5,6
 446 -1 446 -1 441 -6 c 128,-1,7
 436 -11 436 -11 428 -11 c 2,8,-1
 328 -11 l 2,9,10
 324 -11 324 -11 321.5 -8.5 c 128,-1,11
 319 -6 319 -6 319 -2 c 2,12,-1
 319 74 l 2,13,14
 319 78 319 78 316.5 80.5 c 128,-1,15
 314 83 314 83 310 83 c 2,16,-1
 199 83 l 2,17,18
 196 83 196 83 193.5 80.5 c 128,-1,19
 191 78 191 78 191 74 c 2,20,-1
 191 -2 l 2,21,22
 191 -6 191 -6 188 -8.5 c 128,-1,23
 185 -11 185 -11 182 -11 c 2,24,-1
 83 -11 l 2,25,26
 76 -11 76 -11 71 -6 c 128,-1,27
 66 -1 66 -1 66 6 c 2,28,-1
 66 113 l 1,29,30
 221 253 221 253 225 257 c 0,31,32
 243 273 243 273 257 273 c 0,0,1
500 185 m 2,33,34
 510 175 510 175 510.5 163 c 128,-1,35
 511 151 511 151 503 143 c 0,36,37
 493 134 493 134 480.5 134.5 c 128,-1,38
 468 135 468 135 460 142 c 0,39,40
 457 144 457 144 445 156 c 0,41,42
 437 162 437 162 414 185 c 0,43,44
 396 201 396 201 375 221 c 0,45,46
 356 238 356 238 336 257 c 0,47,48
 319 273 319 273 305 286 c 0,49,50
 292 299 292 299 288 302 c 0,51,52
 272 316 272 316 256 315.5 c 128,-1,53
 240 315 240 315 225 302 c 0,54,55
 220 297 220 297 206 285 c 0,56,57
 191 271 191 271 174 255 c 0,58,59
 155 238 155 238 135 219 c 0,60,61
 116 201 116 201 98 185 c 0,62,63
 82 170 82 170 68 158 c 0,64,65
 56 146 56 146 53 144 c 0,66,67
 45 138 45 138 32.5 137.5 c 128,-1,68
 20 137 20 137 11 145 c 0,69,70
 1 154 1 154 1.5 167 c 128,-1,71
 2 180 2 180 10 187 c 0,72,73
 13 190 13 190 29 205 c 0,74,75
 44 219 44 219 66 239 c 0,76,77
 94 264 94 264 113 282 c 0,78,79
 138 305 138 305 160 325 c 0,80,81
 176 341 176 341 197 360 c 0,82,83
 212 374 212 374 215 376 c 0,84,85
 234 395 234 395 256.5 395 c 128,-1,86
 279 395 279 395 295 380 c 0,87,88
 298 378 298 378 307 369 c 0,89,90
 317 359 317 359 331 346 c 0,91,92
 344 334 344 334 362 316 c 0,93,94
 380 300 380 300 397 283 c 0,95,96
 415 266 415 266 432 249.5 c 128,-1,97
 449 233 449 233 463 220 c 256,98,99
 477 207 477 207 487 197 c 2,100,-1
 500 185 l 2,33,34
EndSplineSet
Validated: 33
EndChar

StartChar: uniE91C
Encoding: 59676 59676 88
Width: 512
GlyphClass: 2
Flags: W
LayerCount: 2
Fore
SplineSet
256 447 m 128,-1,1
 309 447 309 447 354.5 421 c 128,-1,2
 400 395 400 395 426.5 349.5 c 128,-1,3
 453 304 453 304 453 250 c 0,4,5
 453 189 453 189 418 138 c 0,6,7
 416 135 416 135 414 133 c 2,8,-1
 271 -56 l 2,9,10
 265 -63 265 -63 256 -63 c 128,-1,11
 247 -63 247 -63 241 -57 c 2,12,-1
 97 133 l 2,13,14
 96 135 96 135 94 139 c 0,15,16
 59 189 59 189 59 250 c 0,17,18
 59 304 59 304 85.5 349.5 c 128,-1,19
 112 395 112 395 157.5 421 c 128,-1,0
 203 447 203 447 256 447 c 128,-1,1
256 180 m 128,-1,21
 285 180 285 180 305.5 200.5 c 128,-1,22
 326 221 326 221 326 250 c 128,-1,23
 326 279 326 279 305.5 300 c 128,-1,24
 285 321 285 321 256 321 c 128,-1,25
 227 321 227 321 206.5 300 c 128,-1,26
 186 279 186 279 186 250 c 128,-1,27
 186 221 186 221 206.5 200.5 c 128,-1,20
 227 180 227 180 256 180 c 128,-1,21
EndSplineSet
Validated: 1
EndChar

StartChar: uniE91D
Encoding: 59677 59677 89
Width: 512
GlyphClass: 2
Flags: W
LayerCount: 2
Fore
SplineSet
245 130 m 2,0,-1
 190 185 l 2,1,2
 184 191 184 191 184 199.5 c 128,-1,3
 184 208 184 208 190 214 c 2,4,-1
 407 431 l 2,5,6
 413 437 413 437 421.5 437 c 128,-1,7
 430 437 430 437 437 431 c 2,8,-1
 492 376 l 2,9,10
 498 370 498 370 498 361.5 c 128,-1,11
 498 353 498 353 492 347 c 2,12,-1
 275 130 l 2,13,14
 269 123 269 123 260 123.5 c 128,-1,15
 251 124 251 124 245 130 c 2,0,-1
140 60 m 2,16,17
 132 57 132 57 128 61.5 c 128,-1,18
 124 66 124 66 126 74 c 2,19,-1
 149 153 l 2,20,21
 151 161 151 161 157 162.5 c 128,-1,22
 163 164 163 164 170 158 c 2,23,-1
 225 103 l 2,24,25
 231 97 231 97 229.5 91 c 128,-1,26
 228 85 228 85 219 83 c 2,27,-1
 140 60 l 2,16,17
488 -11 m 1,28,29
 497 -11 497 -11 503 -17.5 c 128,-1,30
 509 -24 509 -24 509 -32.5 c 128,-1,31
 509 -41 509 -41 503 -47 c 128,-1,32
 497 -53 497 -53 488 -53 c 2,33,-1
 24 -53 l 2,34,35
 15 -53 15 -53 9 -47 c 128,-1,36
 3 -41 3 -41 3 -32.5 c 128,-1,37
 3 -24 3 -24 9 -17.5 c 128,-1,38
 15 -11 15 -11 24 -11 c 2,39,-1
 488 -11 l 1,40,-1
 488 -11 l 1,28,29
EndSplineSet
Validated: 37
EndChar

StartChar: uniE91E
Encoding: 59678 59678 90
Width: 512
GlyphClass: 2
Flags: W
LayerCount: 2
Fore
SplineSet
499 384 m 2,0,1
 503 380 503 380 503 376 c 128,-1,2
 503 372 503 372 499 369 c 2,3,-1
 470 339 l 1,4,-1
 395 413 l 1,5,-1
 425 443 l 2,6,7
 428 446 428 446 432 446 c 128,-1,8
 436 446 436 446 440 443 c 2,9,-1
 499 384 l 2,0,1
184 128 m 1,10,-1
 184 203 l 1,11,-1
 364 383 l 1,12,-1
 439 308 l 1,13,-1
 259 128 l 1,14,-1
 184 128 l 1,10,-1
470 291 m 2,15,16
 476 298 476 298 479 306 c 0,17,18
 483 307 483 307 487 310 c 1,19,-1
 487 -1 l 2,20,21
 487 -26 487 -26 468.5 -44 c 128,-1,22
 450 -62 450 -62 425 -62 c 2,23,-1
 71 -62 l 2,24,25
 46 -62 46 -62 28 -44 c 128,-1,26
 10 -26 10 -26 10 -1 c 2,27,-1
 10 353 l 2,28,29
 10 379 10 379 28 397 c 128,-1,30
 46 415 46 415 71 415 c 2,31,-1
 348 415 l 1,32,-1
 347 414 l 1,33,-1
 161 227 l 2,34,35
 151 218 151 218 151 203 c 2,36,-1
 151 128 l 2,37,38
 151 114 151 114 160.5 104.5 c 128,-1,39
 170 95 170 95 184 95 c 2,40,-1
 259 95 l 2,41,42
 273 95 273 95 283 105 c 2,43,-1
 470 291 l 2,15,16
EndSplineSet
Validated: 1
EndChar

StartChar: uniE91F
Encoding: 59679 59679 91
Width: 512
GlyphClass: 2
Flags: W
LayerCount: 2
Fore
SplineSet
460 339 m 1,0,-1
 460 339 l 1,1,-1
 460 -18 l 1,2,-1
 460 -18 l 1,3,-1
 460 -22 l 2,4,5
 460 -39 460 -39 450.5 -51 c 128,-1,6
 441 -63 441 -63 427 -63 c 2,7,-1
 85 -63 l 2,8,9
 71 -63 71 -63 61.5 -51 c 128,-1,10
 52 -39 52 -39 52 -22 c 2,11,-1
 52 406 l 2,12,13
 52 423 52 423 61.5 435 c 128,-1,14
 71 447 71 447 85 447 c 2,15,-1
 427 447 l 2,16,17
 441 447 441 447 450.5 435 c 128,-1,18
 460 423 460 423 460 406 c 2,19,-1
 460 339 l 1,0,-1
145 -5 m 128,-1,21
 161 -5 161 -5 172.5 6.5 c 128,-1,22
 184 18 184 18 184 34 c 128,-1,23
 184 50 184 50 172.5 61 c 128,-1,24
 161 72 161 72 145 72 c 128,-1,25
 129 72 129 72 117.5 61 c 128,-1,26
 106 50 106 50 106 34 c 128,-1,27
 106 18 106 18 117.5 6.5 c 128,-1,20
 129 -5 129 -5 145 -5 c 128,-1,21
402 129 m 1,28,-1
 402 153 l 1,29,-1
 110 153 l 1,30,-1
 110 129 l 1,31,-1
 402 129 l 1,28,-1
402 221 m 1,32,-1
 402 246 l 1,33,-1
 110 246 l 1,34,-1
 110 221 l 1,35,-1
 402 221 l 1,32,-1
402 314 m 1,36,-1
 402 339 l 1,37,-1
 110 339 l 1,38,-1
 110 314 l 1,39,-1
 402 314 l 1,36,-1
EndSplineSet
Validated: 1
EndChar

StartChar: uniE920
Encoding: 59680 59680 92
Width: 512
GlyphClass: 2
Flags: W
LayerCount: 2
Fore
SplineSet
626 228 m 1024,0,-1
209 187 m 128,-1,2
 209 211 209 211 225.5 227.5 c 128,-1,3
 242 244 242 244 265.5 244 c 128,-1,4
 289 244 289 244 306 227.5 c 128,-1,5
 323 211 323 211 323 187 c 128,-1,6
 323 163 323 163 306 146.5 c 128,-1,7
 289 130 289 130 265.5 130 c 128,-1,8
 242 130 242 130 225.5 146.5 c 128,-1,1
 209 163 209 163 209 187 c 128,-1,2
489 399 m 2,9,10
 498 399 498 399 504.5 392.5 c 128,-1,11
 511 386 511 386 511 376 c 2,12,-1
 511 8 l 2,13,14
 511 -2 511 -2 504.5 -8.5 c 128,-1,15
 498 -15 498 -15 489 -15 c 2,16,-1
 23 -15 l 2,17,18
 14 -15 14 -15 7.5 -8.5 c 128,-1,19
 1 -2 1 -2 1 8 c 2,20,-1
 1 64 l 1,21,-1
 1 86 l 1,22,-1
 1 376 l 2,23,24
 1 386 1 386 7.5 392.5 c 128,-1,25
 14 399 14 399 23 399 c 2,26,-1
 411 399 l 1,27,-1
 433 399 l 1,28,-1
 489 399 l 2,9,10
393 157 m 1,29,30
 397 172 397 172 397 187 c 0,31,32
 397 201 397 201 394 214 c 1,33,34
 382 212 382 212 370.5 218 c 128,-1,35
 359 224 359 224 353 236 c 0,36,37
 346 248 346 248 346.5 261 c 128,-1,38
 347 274 347 274 355 283 c 1,39,40
 334 303 334 303 306 312 c 1,41,42
 302 300 302 300 291 293 c 128,-1,43
 280 286 280 286 266 286 c 128,-1,44
 252 286 252 286 241 293 c 128,-1,45
 230 300 230 300 226 312 c 1,46,47
 198 303 198 303 177 284 c 1,48,49
 184 274 184 274 185 261 c 128,-1,50
 186 248 186 248 179 236 c 256,51,52
 172 224 172 224 160.5 218.5 c 128,-1,53
 149 213 149 213 137 214 c 1,54,55
 134 201 134 201 134 187 c 0,56,57
 134 172 134 172 138 157 c 1,58,59
 150 159 150 159 161 153 c 128,-1,60
 172 147 172 147 178.5 135.5 c 128,-1,61
 185 124 185 124 185 111.5 c 128,-1,62
 185 99 185 99 178 90 c 1,63,64
 199 70 199 70 227 62 c 1,65,66
 232 72 232 72 242.5 78.5 c 128,-1,67
 253 85 253 85 266 85 c 128,-1,68
 279 85 279 85 289.5 78.5 c 128,-1,69
 300 72 300 72 305 62 c 1,70,71
 332 70 332 70 353 89 c 1,72,73
 347 99 347 99 346.5 111 c 128,-1,74
 346 123 346 123 352.5 135 c 128,-1,75
 359 147 359 147 370.5 152.5 c 128,-1,76
 382 158 382 158 393 157 c 1,29,30
EndSplineSet
Validated: 33
EndChar

StartChar: uniE921
Encoding: 59681 59681 93
Width: 512
GlyphClass: 2
Flags: W
LayerCount: 2
Fore
SplineSet
313 146.5 m 128,-1,1
 300 125 300 125 278 137.5 c 128,-1,2
 256 150 256 150 234 137.5 c 128,-1,3
 212 125 212 125 199 146.5 c 128,-1,4
 186 168 186 168 160.5 168.5 c 128,-1,5
 135 169 135 169 134.5 194.5 c 128,-1,6
 134 220 134 220 112.5 233 c 128,-1,7
 91 246 91 246 103.5 268 c 128,-1,8
 116 290 116 290 103.5 312 c 128,-1,9
 91 334 91 334 112.5 347 c 128,-1,10
 134 360 134 360 134.5 385 c 128,-1,11
 135 410 135 410 160.5 410.5 c 128,-1,12
 186 411 186 411 199 433 c 128,-1,13
 212 455 212 455 234 442.5 c 128,-1,14
 256 430 256 430 278 442.5 c 128,-1,15
 300 455 300 455 313 433 c 128,-1,16
 326 411 326 411 351.5 410.5 c 128,-1,17
 377 410 377 410 377 385 c 128,-1,18
 377 360 377 360 399 347 c 128,-1,19
 421 334 421 334 408.5 312 c 128,-1,20
 396 290 396 290 408.5 268 c 128,-1,21
 421 246 421 246 399 233 c 128,-1,22
 377 220 377 220 377 194.5 c 128,-1,23
 377 169 377 169 351.5 168.5 c 128,-1,0
 326 168 326 168 313 146.5 c 128,-1,1
138 124 m 1,24,25
 152 124 152 124 162 120 c 128,-1,26
 172 116 172 116 176.5 110.5 c 128,-1,27
 181 105 181 105 185.5 99 c 128,-1,28
 190 93 190 93 197.5 89 c 128,-1,29
 205 85 205 85 217 85 c 1,30,31
 217 85 217 85 196 48.5 c 128,-1,32
 175 12 175 12 155 -26 c 2,33,-1
 134 -63 l 1,34,-1
 94 -11 l 1,35,-1
 21 -18 l 1,36,-1
 111 133 l 2,37,38
 112 132 112 132 113 130.5 c 128,-1,39
 114 129 114 129 120.5 126.5 c 128,-1,40
 127 124 127 124 138 124 c 1,41,-1
 138 124 l 1,24,25
401 133 m 1,42,-1
 491 -15 l 1,43,-1
 421 -7 l 1,44,-1
 396 -63 l 1,45,-1
 296 89 l 2,46,47
 297 90 297 90 302 89 c 128,-1,48
 307 88 307 88 317 91.5 c 128,-1,49
 327 95 327 95 334 102 c 0,50,51
 338 105 338 105 341.5 110.5 c 128,-1,52
 345 116 345 116 348.5 119.5 c 128,-1,53
 352 123 352 123 365 127 c 128,-1,54
 378 131 378 131 401 133 c 1,55,-1
 401 133 l 1,42,-1
EndSplineSet
Validated: 37
EndChar

StartChar: uniE922
Encoding: 59682 59682 94
Width: 512
GlyphClass: 2
Flags: W
LayerCount: 2
Fore
SplineSet
154 327 m 1,0,1
 148 327 148 327 143.5 331.5 c 128,-1,2
 139 336 139 336 139 342 c 2,3,-1
 139 388 l 2,4,5
 139 394 139 394 143 398.5 c 128,-1,6
 147 403 147 403 154 403 c 2,7,-1
 166 403 l 2,8,9
 172 403 172 403 176.5 407.5 c 128,-1,10
 181 412 181 412 181 418 c 0,11,12
 181 430 181 430 190 438.5 c 128,-1,13
 199 447 199 447 211 447 c 2,14,-1
 301 447 l 2,15,16
 313 447 313 447 322 438.5 c 128,-1,17
 331 430 331 430 331 418 c 0,18,19
 331 412 331 412 335.5 407.5 c 128,-1,20
 340 403 340 403 346 403 c 2,21,-1
 356 403 l 2,22,23
 362 403 362 403 366.5 399 c 128,-1,24
 371 395 371 395 371 388 c 2,25,-1
 371 342 l 2,26,27
 371 336 371 336 367 331.5 c 128,-1,28
 363 327 363 327 356 327 c 2,29,-1
 154 327 l 1,30,-1
 154 327 l 1,0,1
257 418 m 0,31,32
 244 418 244 418 234.5 408.5 c 128,-1,33
 225 399 225 399 225 386 c 128,-1,34
 225 373 225 373 234.5 363.5 c 128,-1,35
 244 354 244 354 257 354 c 256,36,37
 270 354 270 354 279.5 362.5 c 128,-1,38
 289 371 289 371 289 386 c 0,39,40
 289 399 289 399 280 408.5 c 128,-1,41
 271 418 271 418 257 418 c 0,31,32
440 384 m 2,42,43
 455 384 455 384 464.5 373.5 c 128,-1,44
 474 363 474 363 474 350 c 2,45,-1
 474 -23 l 2,46,47
 474 -37 474 -37 461 -50 c 128,-1,48
 448 -63 448 -63 434 -63 c 2,49,-1
 78 -63 l 2,50,51
 62 -63 62 -63 50 -50 c 128,-1,52
 38 -37 38 -37 38 -23 c 2,53,-1
 38 348 l 2,54,55
 38 365 38 365 47 374.5 c 128,-1,56
 56 384 56 384 74 382 c 2,57,-1
 84 382 l 2,58,59
 90 382 90 382 94.5 378 c 128,-1,60
 99 374 99 374 99 367 c 2,61,-1
 99 300 l 2,62,63
 99 294 99 294 103 289.5 c 128,-1,64
 107 285 107 285 114 285 c 2,65,-1
 398 287 l 2,66,67
 404 287 404 287 408.5 291.5 c 128,-1,68
 413 296 413 296 413 302 c 2,69,-1
 413 369 l 2,70,71
 413 376 413 376 418 380 c 128,-1,72
 423 384 423 384 430 384 c 2,73,-1
 440 384 l 2,42,43
413 207 m 2,74,75
 419 214 419 214 413 217 c 2,76,-1
 386 240 l 2,77,78
 385 241 385 241 382.5 240.5 c 128,-1,79
 380 240 380 240 379 238 c 2,80,-1
 238 66 l 2,81,82
 233 61 233 61 226 64 c 2,83,-1
 137 137 l 2,84,85
 136 138 136 138 133.5 138 c 128,-1,86
 131 138 131 138 129 137 c 2,87,-1
 109 112 l 2,88,89
 103 110 103 110 109 104 c 2,90,-1
 223 11 l 2,91,92
 227 7 227 7 234 6 c 128,-1,93
 241 5 241 5 244 9 c 2,94,-1
 413 207 l 2,74,75
EndSplineSet
Validated: 37
EndChar

StartChar: uniE923
Encoding: 59683 59683 95
Width: 512
GlyphClass: 2
Flags: W
LayerCount: 2
Fore
SplineSet
70 255 m 1,0,-1
 70 272 l 1,1,-1
 274 272 l 1,2,-1
 274 255 l 1,3,-1
 70 255 l 1,0,-1
70 187 m 1,4,-1
 70 204 l 1,5,-1
 189 204 l 1,6,-1
 189 187 l 1,7,-1
 70 187 l 1,4,-1
70 119 m 1,8,-1
 70 136 l 1,9,-1
 155 136 l 1,10,-1
 155 119 l 1,11,-1
 70 119 l 1,8,-1
70 51 m 1,12,-1
 70 68 l 1,13,-1
 121 68 l 1,14,-1
 121 51 l 1,15,-1
 70 51 l 1,12,-1
342 -15 m 1,16,-1
 342 86 l 1,17,-1
 376 120 l 1,18,-1
 376 -49 l 1,19,-1
 2 -49 l 1,20,-1
 2 392 l 1,21,-1
 70 392 l 1,22,-1
 70 426 l 1,23,-1
 104 426 l 1,24,-1
 104 392 l 1,25,-1
 138 392 l 1,26,-1
 138 426 l 1,27,-1
 172 426 l 1,28,-1
 172 392 l 1,29,-1
 206 392 l 1,30,-1
 206 426 l 1,31,-1
 240 426 l 1,32,-1
 240 392 l 1,33,-1
 274 392 l 1,34,-1
 274 426 l 1,35,-1
 308 426 l 1,36,-1
 308 392 l 1,37,-1
 376 392 l 1,38,-1
 376 341 l 1,39,-1
 342 307 l 1,40,-1
 342 358 l 1,41,-1
 308 358 l 1,42,-1
 308 324 l 1,43,-1
 274 324 l 1,44,-1
 274 358 l 1,45,-1
 240 358 l 1,46,-1
 240 324 l 1,47,-1
 206 324 l 1,48,-1
 206 358 l 1,49,-1
 172 358 l 1,50,-1
 172 324 l 1,51,-1
 138 324 l 1,52,-1
 138 358 l 1,53,-1
 104 358 l 1,54,-1
 104 324 l 1,55,-1
 70 324 l 1,56,-1
 70 358 l 1,57,-1
 36 358 l 1,58,-1
 36 -15 l 1,59,-1
 342 -15 l 1,16,-1
453 214 m 1,60,-1
 360 307 l 1,61,-1
 411 357 l 1,62,-1
 503 264 l 1,63,-1
 453 214 l 1,60,-1
161 106 m 1,64,-1
 252 15 l 1,65,-1
 161 15 l 1,66,-1
 161 106 l 1,64,-1
436 197 m 1,67,-1
 268 29 l 1,68,-1
 175 121 l 1,69,-1
 344 290 l 1,70,-1
 436 197 l 1,67,-1
EndSplineSet
Validated: 1
EndChar

StartChar: uniE924
Encoding: 59684 59684 96
Width: 512
GlyphClass: 2
Flags: W
LayerCount: 2
Fore
SplineSet
506 130 m 1,0,1
 515 123 515 123 509 113 c 0,2,3
 495 89 495 89 490 83 c 0,4,5
 472 61 472 61 425 8 c 0,6,7
 422 5 422 5 417 5 c 0,8,9
 337 4 337 4 250 5 c 0,10,11
 246 5 246 5 240 7 c 0,12,13
 179 30 179 30 128 16 c 0,14,15
 123 15 123 15 117.5 12.5 c 128,-1,16
 112 10 112 10 105 7 c 128,-1,17
 98 4 98 4 94.5 2.5 c 128,-1,18
 91 1 91 1 87 0 c 0,19,20
 76 -4 76 -4 66 7 c 0,21,22
 60 13 60 13 4 70 c 0,23,24
 0 73 0 73 0.5 80.5 c 128,-1,25
 1 88 1 88 6 90 c 0,26,27
 37 108 37 108 150 172 c 0,28,29
 173 186 173 186 208 177 c 0,30,31
 237 170 237 170 259 162 c 0,32,33
 266 159 266 159 271 159 c 0,34,35
 292 159 292 159 381 159 c 0,36,37
 399 159 399 159 406.5 146.5 c 128,-1,38
 414 134 414 134 407 118 c 0,39,40
 402 105 402 105 389 106 c 0,41,42
 379 106 379 106 301 106 c 2,43,-1
 293 106 l 1,44,-1
 293 95 l 1,45,46
 299 94 299 94 299 94 c 1,47,48
 375 94 375 94 400 94 c 0,49,50
 406 94 406 94 410 98 c 0,51,52
 439 123 439 123 460 143 c 0,53,54
 467 149 467 149 476 144 c 0,55,56
 478 142 478 142 483 140.5 c 128,-1,57
 488 139 488 139 489 139 c 0,58,59
 502 133 502 133 506 130 c 1,60,-1
 506 130 l 1,0,1
138 219 m 1,61,-1
 138 210 l 1,62,-1
 97 210 l 1,63,-1
 97 396 l 1,64,-1
 443 396 l 1,65,-1
 443 172 l 1,66,67
 431 172 431 172 405 172 c 1,68,-1
 405 180 l 2,69,70
 405 317 405 317 405 345 c 0,71,72
 405 353 405 353 403 355 c 128,-1,73
 401 357 401 357 393 357 c 0,74,75
 360 357 360 357 344 357 c 0,76,77
 338 357 338 357 335.5 355 c 128,-1,78
 333 353 333 353 333 346 c 0,79,80
 333 337 333 337 333 268 c 1,81,-1
 210 268 l 1,82,-1
 210 276 l 2,83,84
 210 340 210 340 210 346 c 0,85,86
 210 353 210 353 207.5 355 c 128,-1,87
 205 357 205 357 198 357 c 0,88,89
 163 357 163 357 148 357 c 0,90,91
 142 357 142 357 140 355 c 128,-1,92
 138 353 138 353 138 347 c 0,93,94
 138 330 138 330 138 219 c 1,95,-1
 138 219 l 1,61,-1
EndSplineSet
Validated: 33
EndChar

StartChar: uniE925
Encoding: 59685 59685 97
Width: 512
GlyphClass: 2
Flags: W
LayerCount: 2
Fore
SplineSet
256 448 m 1,0,1
 308 448 308 448 355.5 427.5 c 128,-1,2
 403 407 403 407 437 373 c 128,-1,3
 471 339 471 339 491.5 291.5 c 128,-1,4
 512 244 512 244 512 192 c 128,-1,5
 512 140 512 140 491.5 92.5 c 128,-1,6
 471 45 471 45 437 11 c 128,-1,7
 403 -23 403 -23 355.5 -43.5 c 128,-1,8
 308 -64 308 -64 256 -64 c 128,-1,9
 204 -64 204 -64 156.5 -43.5 c 128,-1,10
 109 -23 109 -23 75 11 c 128,-1,11
 41 45 41 45 20.5 92.5 c 128,-1,12
 0 140 0 140 0 192 c 128,-1,13
 0 244 0 244 20.5 291.5 c 128,-1,14
 41 339 41 339 75 373 c 128,-1,15
 109 407 109 407 156.5 427.5 c 128,-1,16
 204 448 204 448 256 448 c 1,17,-1
 256 448 l 1,0,1
211 58 m 1,18,-1
 417 262 l 1,19,-1
 379 300 l 1,20,-1
 211 133 l 1,21,-1
 146 198 l 1,22,-1
 108 160 l 1,23,-1
 211 58 l 1,18,-1
EndSplineSet
Validated: 5
EndChar

StartChar: uniE926
Encoding: 59686 59686 98
Width: 512
GlyphClass: 2
Flags: W
LayerCount: 2
Fore
SplineSet
37 82 m 1,0,-1
 256 302 l 1,1,-1
 475 82 l 1,2,-1
 329 82 l 1,3,-1
 329 -64 l 1,4,-1
 183 -64 l 1,5,-1
 183 82 l 1,6,-1
 37 82 l 1,0,-1
475 448 m 2,7,8
 490 448 490 448 501 437 c 128,-1,9
 512 426 512 426 512 411 c 2,10,-1
 512 375 l 2,11,12
 512 359 512 359 501 348.5 c 128,-1,13
 490 338 490 338 475 338 c 2,14,-1
 37 338 l 2,15,16
 22 338 22 338 11 348.5 c 128,-1,17
 0 359 0 359 0 375 c 2,18,-1
 0 411 l 2,19,20
 0 426 0 426 11 437 c 128,-1,21
 22 448 22 448 37 448 c 2,22,-1
 475 448 l 2,7,8
329 375 m 1,23,-1
 329 411 l 1,24,-1
 293 411 l 1,25,-1
 293 375 l 1,26,-1
 329 375 l 1,23,-1
439 375 m 1,27,-1
 439 411 l 1,28,-1
 402 411 l 1,29,-1
 402 375 l 1,30,-1
 439 375 l 1,27,-1
EndSplineSet
Validated: 1
EndChar

